<?xml version="1.0" encoding="UTF-8"?>
<svg id="_圖層_2" data-name="圖層 2" xmlns="http://www.w3.org/2000/svg" xmlns:xlink="http://www.w3.org/1999/xlink" viewBox="0 0 302.96 139.18">
  <defs>
    <style>
      .cls-1 {
        fill: url(#New_Gradient_Swatch);
      }

      .cls-2 {
        fill: #0a0d29;
      }

      .cls-3 {
        fill: #fff;
      }
    </style>
    <linearGradient id="New_Gradient_Swatch" data-name="New Gradient Swatch" x1="190.62" y1="36.44" x2="302.96" y2="36.44" gradientUnits="userSpaceOnUse">
      <stop offset="0" stop-color="#c7d300"/>
      <stop offset=".11" stop-color="#bacf0c"/>
      <stop offset=".31" stop-color="#98c72e"/>
      <stop offset=".58" stop-color="#61ba65"/>
      <stop offset=".9" stop-color="#16a8b0"/>
      <stop offset=".99" stop-color="#00a3c7"/>
    </linearGradient>
  </defs>
  <g>
    <g id="slV309">
      <path class="cls-1" d="M213.24,33.32c-.04-.8-.07-1.42-.1-2.04-.26-4.34.12-8.65,1.85-12.62C220.03,7.08,228.93.71,241.6.05c10.29-.54,18.71,3.47,25.11,11.47,1.71,2.13,2.87,4.73,4.1,7.2.85,1.71.76,1.88,2.69,1.72,5.92-.48,11.53.63,16.56,3.77,7.84,4.89,12.35,11.95,12.86,21.32.29,5.37-.98,10.38-3.96,14.85-3.79,5.68-8.9,9.74-15.59,11.39-2.9.72-5.97,1.06-8.96,1.07-20.85.09-41.69.04-62.54.05-3.45,0-6.78-.55-9.9-2.08-9.97-4.9-13.76-15.92-9.79-25.43,3.04-7.26,10.15-12.33,19.14-12.06.58.02,1.16,0,1.92,0Z"/>
    </g>
    <path class="cls-3" d="M265.73,28.88c-5.19,0-10.07,2.16-13.73,6.08-.41.44-.88.98-1.39,1.6l3.89,5.13c.9-1.14,1.71-2.1,2.33-2.77,2.42-2.6,5.58-4.03,8.9-4.03,6.26,0,11.35,4.77,11.35,10.64s-5.09,10.64-11.35,10.64c-3.14,0-6.14-1.31-8.48-3.62l-5.52-7.23.02-.02-3.95-5.22-.03.04-.72-.95c-1.19-1.6-2.3-3.19-3.16-4.16-3.45-3.9-8.47-6.14-13.78-6.14-9.8,0-17.77,7.47-17.77,16.66s7.97,16.65,17.77,16.65c5.38,0,10.41-2.25,13.8-6.17.07-.08.13-.16.19-.24.02-.03.43-.6,1.09-1.53l-3.97-5.25c-1.2,1.67-2.09,2.92-2.38,3.34-2.17,2.44-5.34,3.83-8.73,3.83-6.26,0-11.35-4.77-11.35-10.64s5.09-10.64,11.35-10.64c3.24,0,6.32,1.33,8.53,3.65.16.12.32.23.48.34l4.81,6.38s-.02.02-.02.03l3.96,5.23s0,0,0,0c0,0,0,0,0,0v-.02s.1.11.1.11c0,0-.02,0-.03,0,.02.02.03.05.05.07l1.94,2.57-.05.03c1.4,1.92,1.84,2.5,2.12,2.8.11.12.23.23.34.35l.14.19.02-.02c3.61,3.59,8.27,5.56,13.22,5.56,9.8,0,17.77-7.47,17.77-16.65s-7.97-16.66-17.77-16.66Z"/>
  </g>
  <g>
    <path class="cls-2" d="M2.94,124.57c6.88,3.19,11.33,4.36,16.36,4.36,5.54,0,9.4-2.94,9.4-7.13,0-1.43-.59-2.6-1.68-3.52q-1.26-1.09-7.64-4.36c-10.49-5.29-13.85-9.23-13.85-16.36,0-5.37,2.43-10.41,6.55-13.76,3.94-3.19,8.81-4.7,15.36-4.7s12.17,1.01,18.63,3.27l-3.52,10.57c-6.21-2.6-10.4-3.61-14.6-3.61-5.12,0-8.47,2.6-8.47,6.46,0,1.59.67,2.85,2.1,3.86q1.09.84,6.38,3.52c5.79,2.94,8.98,4.95,10.99,6.88,2.35,2.35,3.69,5.96,3.69,9.99,0,5.87-2.43,11.08-6.71,14.43-4.03,3.19-9.15,4.7-16.28,4.7-7.72,0-13.26-1.01-19.64-3.61l2.94-10.99Z"/>
    <path class="cls-2" d="M55.13,111.15c.59-3.69,1.26-8.73,2.1-15.94h11.75l-.59,5.71c4.62-4.78,8.73-6.71,14.1-6.71,5.96,0,9.9,2.52,11.33,7.13,5.03-5.29,8.73-7.13,14.18-7.13,7.38,0,11.75,4.11,11.75,11.08,0,1.93-.25,4.62-.67,7.3l-4.03,25.59h-12.75l4.03-25.09q.67-4.28.67-5.29c0-2.85-1.34-4.36-3.94-4.36-2.85,0-6.04,2.35-9.4,6.88l-4.36,27.86h-12.67l3.94-25.09c.67-4.03.67-4.28.67-5.29,0-2.85-1.34-4.36-3.94-4.36-2.85,0-6.04,2.35-9.31,6.88l-4.45,27.86h-12.67l4.28-27.02Z"/>
    <path class="cls-2" d="M173.69,95.21c-1.43,6.38-1.59,7.3-2.94,15.61l-2.01,12.59c-1.34,8.81-1.59,10.99-1.93,14.77h-12.25l.42-5.03c-2.77,4.2-6.38,6.04-11.66,6.04-4.87,0-8.22-1.26-10.57-3.94-2.85-3.27-4.28-7.8-4.28-13.59,0-7.05,1.85-14.01,5.12-18.96,3.69-5.71,8.56-8.48,14.77-8.48,5.45,0,8.89,1.85,11.58,6.21l1.01-5.2h12.75ZM158.25,110.06c-1.68-4.53-3.94-6.63-7.13-6.63-5.2,0-9.57,7.72-9.57,17.12,0,6.04,1.93,9.4,5.37,9.4s6.55-2.52,9.23-7.05l2.1-12.84Z"/>
    <path class="cls-2" d="M183.51,109.64c.42-2.69,1.59-11.41,1.85-14.43h12l-.76,7.55c2.69-5.29,6.88-8.14,11.92-8.14,1.51,0,2.35.17,4.11.67l-2.35,10.99c-1.59-.34-2.6-.5-3.86-.5-5.03,0-8.89,3.19-11.16,9.15l-3.69,23.24h-12.59l4.53-28.53Z"/>
    <path class="cls-2" d="M216.07,104.44l1.43-9.23h6.8l1.43-9.23,13.09-2.43-1.85,11.66h9.31l-1.51,9.23h-9.23l-2.35,14.43c-.42,2.52-.59,4.62-.59,6.21,0,2.69,1.59,4.11,4.62,4.11,1.51,0,3.11-.42,4.53-1.09l-.34,9.57c-2.85.92-6.63,1.51-10.15,1.51-7.89,0-11.75-3.36-11.75-10.24,0-2.27.34-5.37.84-8.89l2.43-15.61h-6.71Z"/>
  </g>
</svg>