<?xml version="1.0" encoding="UTF-8"?>
<svg id="_圖層_2" data-name="圖層 2" xmlns="http://www.w3.org/2000/svg" viewBox="0 0 656.13 63.47">
  <defs>
    <style>
      .cls-1 {
        fill: #0a0d29;
      }
    </style>
  </defs>
  <path class="cls-1" d="M0,35.55l1.11-.88c4.22-3.31,7.72-6.79,10.5-10.43,1.93-2.51,3.73-5.42,5.39-8.71l5.75,3.77-.94,1.36c-2.64,3.7-4.61,6.38-5.91,8.03v34.06h-6.34v-27.59c-.43.45-.76.79-.97,1.01-1.69,1.73-3.35,3.31-4.97,4.74l-3.61-5.36ZM.03,17.71c3.7-2.66,6.78-5.35,9.23-8.06,1.75-1.93,4.06-5.15,6.92-9.65l5.75,3.77-1.07,1.37c-5,6.5-10.51,12.38-16.51,17.65L.03,17.71ZM38.09,52.06v-24.5h6.04v9.72h14.72v5.36h-14.72v11.63c3.83.26,7.05.39,9.65.39,1.13,0,3.14-.04,6.04-.13l1.95-.03-2.66,6.56c-1.93-.11-5.69-.22-11.28-.32-5.5-.09-10.06-1.52-13.68-4.29-1.6-1.21-3.52-3.42-5.75-6.63-1.69,4.46-3.69,8.51-6.01,12.15l-5.85-3.02c2.84-3.88,4.84-7.26,6.01-10.14,1.28-3.16,2.46-8.29,3.54-15.37l.26-1.66,6.17,1.14-.36,1.85c-.56,2.99-1.07,5.61-1.53,7.86,1.49,3.68,3.98,6.82,7.44,9.42ZM41.99,16.38c.97-2.32,2.45-6.78,4.42-13.39l.45-1.53,6.69,1.63c-1.13,2.95-2.09,5.54-2.89,7.77,3.79,4.25,7.39,8.31,10.79,12.19l-5,4.06c-3.21-4.27-5.88-7.7-8.03-10.3-2.23,5.42-3.68,8.85-4.35,10.3l-6.04-1.75c.41-.89,1.15-2.44,2.21-4.65.39-.82.97-2.12,1.75-3.9l-3.96,4.06c-.84-.85-2.68-2.69-5.49-5.52-1.21,3.66-2.94,7.73-5.17,12.22l-6.04-1.72c2.38-4.64,4.24-8.93,5.56-12.87.93-2.75,2.09-6.75,3.48-11.99l6.76,1.53c-.3.82-.53,1.44-.68,1.85-.82,2.23-1.43,3.9-1.82,5,3.01,3.01,4.98,4.92,5.91,5.72.61.52,1.09.95,1.46,1.3Z"/>
  <path class="cls-1" d="M79.68,44.19c.15-.04.3-.09.45-.13.61-.15,2.49-.96,5.65-2.44l.58,6.63c-2.69,1.02-6.01,2.14-9.98,3.38l-4.35,1.4c-1.88.58-3.23,1.01-4.03,1.27l-2.34-6.43c1.75-.32,4.39-.91,7.9-1.75v-22.85h-6.79v-6.08h6.79V1.43h6.11v15.76h6.99v6.08h-6.99v20.93ZM88.62,12.06h17.71c-.26-5.18-.39-8.59-.39-10.24V.07h6.27c.02,2.6.16,6.6.42,11.99h14.1v5.49h-14.1c.5,8.38,1.41,15.2,2.73,20.44,1.54-4.31,2.73-9.22,3.57-14.72l6.14,2.11c-2.14,8.58-4.45,15.55-6.92,20.93.84,1.75,1.84,3.51,2.99,5.26.84,1.26,1.42,1.89,1.72,1.89.43,0,.77-1.73,1.01-5.2l5.98,2.89c-.15.89-.32,1.98-.52,3.28-.84,5.26-2.33,7.9-4.45,7.9-3.08,0-6.76-3.52-11.05-10.56-1.32,1.97-2.97,3.98-4.94,6.01-1.1,1.15-2.96,2.97-5.56,5.46l-4.22-5c2.84-2.08,5.03-3.95,6.56-5.62,1.86-1.99,3.77-4.34,5.72-7.05-1.04-3.12-1.9-6.6-2.57-10.43-.58-3.23-1.22-8.24-1.92-15.05l-.26-2.53h-12.22v7.83h11.28l-.78,22.88c-.04,1.84-.37,3.12-.98,3.83-.89,1.04-3.57,1.93-8.06,2.66l-1.72-6.5c.71.04,1.26.06,1.62.06.63,0,1.23-.06,1.82-.19.43-.11.81-.23,1.14-.36.2-.09.31-.82.36-2.21l.49-14.75h-5.17c-.15,6.87-.62,12.48-1.4,16.83-.67,3.79-1.73,7.4-3.18,10.82-.17.43-.84,1.95-2.01,4.55l-6.11-3.44c2.43-4.03,4.07-7.7,4.94-11.02.65-2.45,1.12-5.49,1.4-9.13.37-4.51.55-8.15.55-10.92V12.06ZM120.2,1.46c2.36,2.88,3.99,5.45,4.87,7.7l-5.62,2.47c-.69-1.8-1.41-3.28-2.14-4.45-.24-.41-.95-1.47-2.14-3.18l5.04-2.53Z"/>
  <path class="cls-1" d="M167.23,30.74v32.07h-6.27V30.74h-12.61v26.45h-6.27V24.73h18.88v-8.42h-26.71v-5.98h26.97c-.63-2.69-1.64-5.28-3.02-7.77l5.98-2.21c1.65,2.84,2.83,5.83,3.54,8.97l-2.96,1.01h29.7v5.98h-27.23v8.42h19.21v26.16c0,2.27-.54,3.87-1.62,4.78-1.28,1.04-3.6,1.8-6.95,2.28-.67.09-2.09.24-4.26.45l-1.82-7.51h6.92c1.04,0,1.56-.52,1.56-1.56v-18.59h-13.03Z"/>
  <path class="cls-1" d="M235.7,55.15v-11.67h-20.12v-6.73l18.65-27.65h9.26v28.27h6.21v6.11h-6.21v11.67h-7.8ZM235.83,37.37v-19.47l-12.77,19.47h12.77Z"/>
  <path class="cls-1" d="M262.02,45.56c1.45,0,2.68.51,3.67,1.53.95.98,1.43,2.19,1.43,3.64s-.48,2.66-1.43,3.64c-.97,1.02-2.22,1.53-3.74,1.53s-2.76-.51-3.74-1.53c-.95-.98-1.43-2.19-1.43-3.64s.48-2.69,1.43-3.64c1.02-1.02,2.29-1.53,3.8-1.53Z"/>
  <path class="cls-1" d="M290.91,8.35c6.33,0,10.8,2.78,13.42,8.35,1.69,3.64,2.53,8.79,2.53,15.44,0,7.32-1.05,12.85-3.15,16.57-2.71,4.79-7.05,7.18-13.03,7.18-6.48,0-11.03-2.78-13.65-8.35-1.69-3.64-2.53-8.8-2.53-15.47,0-7.32,1.05-12.85,3.15-16.57,2.71-4.77,7.13-7.15,13.26-7.15ZM290.58,14.85c-5.31,0-7.96,5.75-7.96,17.26s2.69,17.29,8.06,17.29,8.06-5.77,8.06-17.32c0-5.81-.62-10.05-1.85-12.74-1.36-2.99-3.47-4.48-6.3-4.48Z"/>
  <path class="cls-1" d="M349.34,37.21h11.83v5.88h-11.83v8.74l2.44-.29c2.6-.3,5.8-.7,9.59-1.2l2.18-.26-.23,6.11-1.92.23c-3.47.41-6.04.71-7.73.91-10.94,1.19-18.71,2.23-23.3,3.12l-1.49-6.69,2.31-.16,4.35-.39c3.86-.35,6.43-.6,7.73-.75v-9.36h-11.86v-5.88h11.86v-8.42c-.78.06-1.59.14-2.44.23-2.73.22-5.75.63-9.07,1.24l-2.05-6.21c2.79-1.71,4.98-3.64,6.56-5.78,1.95-2.62,3.55-5.3,4.81-8.03h-11.37v-5.91h33.83v5.91h-15.05c-.45.8-.91,1.6-1.36,2.4-2.34,4.18-4.72,7.67-7.15,10.46l13.81-1.17c-.93-1.47-2.06-3.06-3.38-4.78l5.36-3.25c3.9,5.44,6.83,10.16,8.81,14.17l-5.75,3.35c-.54-1.26-1.19-2.63-1.95-4.13l-7.54.78v9.13ZM368.87,47.67V9.78h5.95v37.89h-5.95ZM372.83,54.95h7.25c1.13,0,1.69-.56,1.69-1.69V1.11h6.11v53.85c0,2.53-.75,4.24-2.24,5.1-1.56.91-5.17,1.64-10.82,2.18l-1.98-7.28Z"/>
  <path class="cls-1" d="M408.48,44.19c.15-.04.3-.09.45-.13.61-.15,2.49-.96,5.65-2.44l.59,6.63c-2.69,1.02-6.01,2.14-9.98,3.38l-4.35,1.4c-1.88.58-3.23,1.01-4.03,1.27l-2.34-6.43c1.75-.32,4.39-.91,7.9-1.75v-22.85h-6.79v-6.08h6.79V1.43h6.11v15.76h6.99v6.08h-6.99v20.93ZM417.42,12.06h17.71c-.26-5.18-.39-8.59-.39-10.24V.07h6.27c.02,2.6.16,6.6.42,11.99h14.1v5.49h-14.1c.5,8.38,1.41,15.2,2.73,20.44,1.54-4.31,2.73-9.22,3.57-14.72l6.14,2.11c-2.14,8.58-4.45,15.55-6.92,20.93.84,1.75,1.84,3.51,2.99,5.26.84,1.26,1.42,1.89,1.72,1.89.43,0,.77-1.73,1.01-5.2l5.98,2.89c-.15.89-.32,1.98-.52,3.28-.84,5.26-2.33,7.9-4.45,7.9-3.08,0-6.76-3.52-11.05-10.56-1.32,1.97-2.97,3.98-4.94,6.01-1.1,1.15-2.96,2.97-5.56,5.46l-4.22-5c2.84-2.08,5.03-3.95,6.56-5.62,1.86-1.99,3.77-4.34,5.72-7.05-1.04-3.12-1.9-6.6-2.57-10.43-.59-3.23-1.22-8.24-1.92-15.05l-.26-2.53h-12.22v7.83h11.28l-.78,22.88c-.04,1.84-.37,3.12-.98,3.83-.89,1.04-3.57,1.93-8.06,2.66l-1.72-6.5c.71.04,1.26.06,1.62.06.63,0,1.23-.06,1.82-.19.43-.11.81-.23,1.14-.36.2-.09.31-.82.36-2.21l.49-14.75h-5.17c-.15,6.87-.62,12.48-1.4,16.83-.67,3.79-1.73,7.4-3.18,10.82-.17.43-.84,1.95-2.01,4.55l-6.11-3.44c2.43-4.03,4.07-7.7,4.94-11.02.65-2.45,1.12-5.49,1.4-9.13.37-4.51.55-8.15.55-10.92V12.06ZM449,1.46c2.36,2.88,3.99,5.45,4.87,7.7l-5.62,2.47c-.69-1.8-1.41-3.28-2.14-4.45-.24-.41-.95-1.47-2.14-3.18l5.04-2.53Z"/>
  <path class="cls-1" d="M496.02,30.74v32.07h-6.27V30.74h-12.61v26.45h-6.27V24.73h18.88v-8.42h-26.71v-5.98h26.97c-.63-2.69-1.64-5.28-3.02-7.77l5.98-2.21c1.65,2.84,2.83,5.83,3.54,8.97l-2.96,1.01h29.7v5.98h-27.23v8.42h19.21v26.16c0,2.27-.54,3.87-1.62,4.78-1.28,1.04-3.6,1.8-6.95,2.28-.67.09-2.09.24-4.26.45l-1.82-7.51h6.92c1.04,0,1.56-.52,1.56-1.56v-18.59h-13.03Z"/>
  <path class="cls-1" d="M529.59,23.33l3.35-5.75c4.48,2.19,8.6,4.41,12.35,6.66l-3.54,6.08c-4.33-2.77-8.38-5.1-12.15-6.99ZM530.96,57.45l.65-1.82c2.43-6.72,4.69-14.28,6.79-22.68l5.75,3.35c-.67,2.43-1.83,6.77-3.48,13.03-.26.98-1.32,4.68-3.18,11.11l-6.53-2.99ZM533.27,6.89l4.13-4.87c3.9,2.38,7.7,5.02,11.41,7.9l-4.55,5.3-1.14-.91c-2.97-2.45-6.25-4.92-9.85-7.41ZM566.22,20.86c-.09-.41-.21-.87-.36-1.37-.63-2.43-1.44-4.74-2.44-6.95l5.62-1.62c1,2.06,1.99,4.89,2.99,8.48l-5.13,1.46h7.12c1.8-3.57,3.35-6.77,4.65-9.59l.62-1.33,6.14,2.6c-1.39,2.23-3.1,5-5.13,8.32h4.32v10.24h5.36v5.39h-5.36v13.65h-6.17v-3.06h-7.96v9.29c-.11,3.12-1.17,5.03-3.18,5.72-1.71.58-3.99.88-6.82.88-.3,0-.76-.01-1.36-.03l-2.37-6.56h6.08c.52-.11.87-.25,1.04-.42.28-.32.42-.83.42-1.53v-7.34h-14.04v-5.39h14.04v-5.2h-17.26v-5.39h17.26v-4.91h-12.74v-5.33h3.48c-.65-1.56-1.81-3.87-3.48-6.92l5.2-2.05c.97,1.6,2.11,3.87,3.41,6.79l.75,1.69-1.14.49h6.47ZM550.03,5.98l1.85-.13c7.3-.39,13.64-.98,19.01-1.75,3.31-.46,7.33-1.24,12.06-2.34l5.04,5.3c-2.99.56-6.09,1.09-9.29,1.59-3.96.63-10.95,1.47-20.96,2.53-.61.06-2.36.26-5.26.59l-2.44-5.78ZM570.47,31.1h7.96v-4.91h-7.96v4.91ZM570.47,41.69h7.96v-5.2h-7.96v5.2Z"/>
  <path class="cls-1" d="M620.1,28.92c.13-.13.24-.22.32-.26.82-.65,1.65-1.42,2.47-2.31v-9.88h-19.37v8.58h-6.21v-14.2h25.57v-2.44h-21.25V2.76h47.64v5.65h-20.21v2.44h25.41v14.2h-6.24v-8.58h-19.17v10.11h-2.99l3.74,1.63-.75.71c2.36,1.82,5.76,3.61,10.2,5.36,4.9,1.93,10.52,3.43,16.87,4.52l-2.66,6.17c-.72-.22-1.55-.44-2.5-.68-6.93-1.82-13.09-4.2-18.46-7.15-1.78-.98-4.18-2.5-7.21-4.58-3.25,2.23-6.53,4.17-9.85,5.82-3.18,1.6-8.33,3.68-15.44,6.24l-1.62.58-2.92-5.91c5.59-1.41,10.01-2.75,13.26-4.03,2.82-1.08,6.19-2.87,10.11-5.36h-13.03v-4.45h14.3v3.48ZM606.48,18.46h13.62v4.45h-13.62v-4.45ZM607.03,43.58h39.74c-1.23,1.17-3.35,2.84-6.34,5-4.92,3.62-8.08,5.88-9.49,6.79,1.58.5,4.3,1.48,8.16,2.96l-2.83,5.13c-1.91-.65-5.83-2.04-11.76-4.16-2.47-.87-6.76-2.18-12.87-3.93l2.18-5.23c4.07,1.15,7.68,2.24,10.82,3.28,2.38-1.43,4.86-3.04,7.44-4.84h-25.05v-5ZM621.23,36.66l5.49-1.56c1.04,2.34,1.72,4.51,2.05,6.5l-5.88,1.4c-.09-.61-.22-1.41-.39-2.41-.2-1.17-.62-2.48-1.27-3.93ZM631.89,18.46h13.55v4.45h-13.55v-4.45ZM631.89,29.9v-4.45h13.81v4.45h-13.81Z"/>
</svg>