<?xml version="1.0" encoding="UTF-8"?>
<svg id="_圖層_2" data-name="圖層 2" xmlns="http://www.w3.org/2000/svg" viewBox="0 0 802.52 86.74">
  <defs>
    <style>
      .cls-1 {
        fill: #0a0d29;
      }
    </style>
  </defs>
  <g>
    <path class="cls-1" d="M339.03,53.31h-7.37v2.49h-8.84c2.85,2.49,5.25,4.79,7.18,6.91l-6.63,4.6c-1.11-1.29-2.3-2.58-3.5-3.87-5.25.18-10.59.46-15.93.64v3.5h27.62v6.63h-27.62v2.95h35.82v7.27h-80.01v-7.27h35.36v-2.95h-28.08v-6.63h28.08v-3.22c-7.92.18-15.84.37-23.94.46l-1.57-5.52c2.58-.18,5.43-1.29,8.38-3.5h-10.68v-2.76h-8.01v-12.52h79.74v12.8ZM294.37,4.24V.74h9.58v3.5h33.33v7h-33.33v2.85h29v6.81h-68.04v-6.81h29.46v-2.85h-33.52v-7h33.52ZM329.82,49.45v-2.58h-61.32v2.58h61.32ZM329.17,23.48v14.64h-59.76v-14.64h59.76ZM320.33,29.56h-42.17v2.58h42.17v-2.58ZM287.92,55.8c-1.47,1.29-2.76,2.39-4.05,3.41,10.59-.18,20.81-.55,30.57-1.01l-2.76-2.39h-23.76Z"/>
    <path class="cls-1" d="M369.13,36.74l-6.26,6.17c-3.31-4.24-8.01-8.75-14.09-13.63l6.17-5.98c5.52,4.42,10.31,8.93,14.18,13.44ZM370.51,52.21c-3.87,11.6-8.1,22.47-12.89,32.69l-8.66-3.78c5.16-10.5,9.67-21.27,13.53-32.23l8.01,3.31ZM369.5,14.64l-6.26,6.26c-3.04-4.14-7.46-8.56-13.17-13.35l6.17-5.89c5.16,4.33,9.58,8.66,13.26,12.98ZM375.76,33.06c-.28,3.87-.83,7.55-1.66,11.14l-5.52-1.93c1.01-3.31,1.75-6.81,2.21-10.5l4.97,1.29ZM391.32,29.65l-5.52,1.38c-.18-.92-.46-1.75-.64-2.49-4.42.74-9.3,1.47-14.73,2.21l-1.2-5.34c1.66-.55,4.24-3.22,7.64-8.01-1.93.18-3.87.46-5.89.64l-1.29-4.97c2.58-2.76,4.88-6.81,6.81-12.15l6.08,1.84c-1.84,4.05-3.87,7.27-6.08,9.85l3.78-.37c.92-1.66,1.93-3.22,2.95-4.88l6.08,2.21c-2.58,3.87-4.79,7.09-6.63,9.67l4.79-1.47c1.38,3.41,2.67,7.37,3.87,11.88ZM384.32,66.48h45.3c0,8.29-.74,13.63-2.03,16.02-1.29,2.21-4.42,3.41-9.21,3.5-4.6,0-9.02-.09-13.26-.28l-2.03-7.55c4.97.18,9.58.37,13.81.37,1.84,0,2.95-.46,3.31-1.2.37-.83.55-2.03.55-3.5h-46.04l2.58-18.05h40.51v-3.87h-41.43v-6.81h50v17.59h-41.43l-.64,3.78ZM383.4,42.72l-5.62.74c-.09-4.6-.28-8.1-.46-10.59l4.7-.55c.64,2.58,1.1,5.99,1.38,10.4ZM378.71,24.22l4.88-.83c-.46-1.38-.92-2.58-1.29-3.68-1.38,1.84-2.58,3.31-3.59,4.51ZM391.14,40.42l-4.97,1.84c-.64-3.22-1.38-6.35-2.21-9.48l4.6-1.29c1.11,3.22,1.93,6.17,2.58,8.93ZM396.57,5.89c-.55-1.57-1.1-2.95-1.66-4.24l7.92-1.29c.55,1.66,1.11,3.5,1.57,5.52h7.37v6.08h-22.19v-6.08h7ZM409.74,28.64v14h-18.05v-14h18.05ZM409,14.27v5.06h-16.57v-5.06h16.57ZM408.91,21.36v5.06h-16.48v-5.06h16.48ZM403.57,33.24h-5.71v4.42h5.71v-4.42ZM433.4,29.19l-5.43,1.38c-.18-.83-.37-1.57-.55-2.12-4.42.74-9.48,1.47-15.1,2.12l-1.29-5.34c1.75-.55,4.33-3.13,7.83-7.64l-5.71.55-1.29-4.97c2.58-2.85,4.88-6.91,6.81-12.06l6.08,1.75c-1.75,3.96-3.77,7.18-6.08,9.76,1.38-.18,2.76-.28,4.05-.46,1.01-1.47,2.03-3.04,3.13-4.7l5.98,2.21c-2.3,3.31-4.33,6.08-6.08,8.38l3.5-1.11c1.57,3.5,2.95,7.64,4.14,12.25ZM417.93,32.87c-.28,3.77-.74,7.46-1.38,11.05l-5.52-1.93c.92-3.22,1.57-6.72,1.93-10.4l4.97,1.29ZM425.85,42.45l-5.62.74c-.18-4.6-.46-8.1-.83-10.59l4.7-.55c.92,2.58,1.47,5.98,1.75,10.4ZM420.42,24.31c1.93-.37,3.78-.64,5.43-1.01-.46-1.29-.92-2.49-1.38-3.59-1.57,1.84-2.95,3.41-4.05,4.6ZM433.77,39.87l-4.97,1.84c-.74-3.22-1.66-6.35-2.76-9.48l4.6-1.29c1.38,3.22,2.39,6.17,3.13,8.93Z"/>
    <path class="cls-1" d="M475.29,36v7.37c-4.6,15.65-14.46,27.53-29.37,35.63l-5.8-7.64c12.25-6.26,20.72-15.1,25.51-26.33h-22.83v-9.02h32.5ZM523.27,24.68c-6.81,8.84-14.55,15.47-23.3,20.07,6.81,10.22,15.65,18.88,26.43,26.06l-6.91,8.01c-12.43-9.76-22.19-21.55-29.37-35.27v33.06c0,6.26-3.59,9.39-10.68,9.39h-11.6l-2.58-9.3,11.42.46c2.49,0,3.78-1.2,3.78-3.59V27.25h-26.24v-9.3h35.91v7.83c1.57,4.05,3.31,8.01,5.34,11.69,7.73-4.6,14.55-10.96,20.44-18.88l7.37,6.08ZM499.69,8.84l-3.5,8.75c-8.29-4.24-17.03-7.46-26.06-9.76l3.96-7.83c8.93,2.03,17.49,4.97,25.6,8.84Z"/>
    <path class="cls-1" d="M543.15,62.98c-.37,8.01-1.29,15.1-2.76,21.27l-7.92-2.58c1.66-5.71,2.67-12.34,3.04-19.7l7.64,1.01ZM566.81,55.06l-7.64,1.93c-.18-1.29-.46-2.58-.64-3.77-7.92,2.39-15.47,4.14-22.56,5.06l-2.3-7.92c1.57-.64,2.85-1.47,3.96-2.49,2.58-2.67,5.8-7.27,9.67-13.9-4.05.64-8.19,1.29-12.52,2.03l-2.12-7.64c1.29-.55,2.49-1.66,3.5-3.22,4.24-7.46,7.92-15.65,11.05-24.49l8.38,3.31c-4.14,9.58-8.38,17.4-12.71,23.57,2.95-.37,5.89-.83,8.84-1.38,1.75-3.31,3.59-7,5.62-10.86l8.29,3.13c-7.92,14.18-14.36,24.49-19.52,30.75,3.68-.74,7.37-1.57,11.05-2.58-.55-2.39-1.2-4.79-1.84-7l7.09-2.39c1.66,5.16,3.13,11.14,4.42,17.86ZM555.77,79.28l-8.01,1.93c-.55-7.18-1.2-13.63-1.93-19.15l7.18-1.57c1.01,5.71,1.93,11.97,2.76,18.78ZM566.91,73.38l-7,3.22c-1.2-6.08-2.49-11.51-3.96-16.21l6.63-2.3c1.66,4.79,3.13,9.85,4.33,15.28ZM613.31,43.28v31.58h-9.21c5.16,1.57,10.04,3.31,14.55,5.34l-4.33,6.54c-6.26-3.32-12.61-5.89-19.15-7.73l2.76-4.14h-12.89l3.5,3.96c-5.89,3.04-12.89,5.62-21.18,7.64l-3.41-7c6.26-1.29,11.51-2.76,15.93-4.6h-9.48v-31.58h42.91ZM587.35,4.97V.64h9.12v4.33h20.07v6.45h-20.07v3.22h17.4v6.08h-43.92v-6.08h17.4v-3.22h-20.07v-6.45h20.07ZM615.71,23.76v16.48h-47.88v-16.48h47.88ZM582.19,29.46h-6.35v5.06h6.35v-5.06ZM604.38,52.58v-3.68h-25.23v3.68h25.23ZM604.38,60.59v-3.31h-25.23v3.31h25.23ZM604.38,65.47h-25.23v3.41h25.23v-3.41ZM594.9,29.46h-6.54v5.06h6.54v-5.06ZM607.7,29.46h-6.63v5.06h6.63v-5.06Z"/>
    <path class="cls-1" d="M646,1.84v63.26h3.87V12.25h7.55v19.43c6.81-1.29,12.8-2.85,17.95-4.79-2.3-1.84-4.24-3.68-5.8-5.62-1.47,1.47-3.04,2.76-4.51,4.05l-5.89-7c5.8-4.24,10.86-10.13,15.19-17.68l8.47,1.93c-.74,1.47-1.57,2.95-2.3,4.24h22.74v7.55c-2.21,4.6-5.71,8.66-10.31,12.34,5.06,1.75,10.87,3.13,17.31,4.24l-3.41,8.56c-9.12-1.66-16.76-4.05-22.93-7.18-6.54,3.22-14.36,5.89-23.57,8.1l-2.95-5.43v41.34h-7.55v-3.32h-23.39V12.15h8.1v52.94h3.87V1.84h7.55ZM679.05,41.99v-5.43h9.48v5.43h17.03v8.29h-17.03v5.16h15.01v8.29h-15.01v4.88h20.07v8.29h-20.07v9.02h-9.48v-9.02h-19.61v-8.29h19.61v-4.88h-15.65v-8.29h15.65v-5.16h-17.31v-8.29h17.31ZM692.96,14.92h-17.86c-.09.09-.18.18-.28.37,2.3,2.76,5.34,5.25,9.21,7.37,3.68-2.3,6.72-4.88,8.93-7.73Z"/>
    <path class="cls-1" d="M721.68,29.28l-5.16-8.1c14.82-5.89,28.18-12.71,40.15-20.44h5.71c11.97,7.73,25.32,14.55,40.15,20.44l-5.16,8.01c-1.66-.74-3.13-1.38-4.51-2.12v24.31h-66.66v-24.22c-1.47.74-3.04,1.38-4.51,2.12ZM778.03,19.7v3.22h-37.11v-3.04c-4.05,2.12-8.29,4.24-12.61,6.26h62.61c-4.6-2.21-8.84-4.33-12.89-6.44ZM789.36,86.09h-9.12v-2.76h-41.34v2.85h-9.12v-31.58h59.57v31.49ZM755.2,33.33h-20.26v11.05h20.26v-11.05ZM780.24,65.37v-3.68h-41.34v3.68h41.34ZM780.24,75.87v-4.05h-41.34v4.05h41.34ZM750.32,42.26l-6.26,1.66c-1.2-2.95-2.67-5.71-4.42-8.47l6.35-1.93c1.66,2.58,3.04,5.43,4.33,8.75ZM759.52,8.84c-3.59,2.39-7.46,4.7-11.51,7.09h23.11c-4.24-2.39-8.1-4.79-11.6-7.09ZM784.11,33.33h-20.26v11.05h20.26v-11.05ZM779.23,35.27c-1.2,3.31-2.67,6.17-4.33,8.66l-6.17-2.21c1.47-2.21,2.85-4.88,4.05-8.1l6.44,1.66Z"/>
  </g>
  <g>
    <path class="cls-1" d="M0,70.74c26.7-24.56,34.96-34.85,34.96-43.86,0-6.43-5.15-10.83-12.76-10.83-5.15,0-11.15,1.82-17.8,5.58L1.29,10.8c7.51-3.54,14.58-5.15,22.3-5.15,15.44,0,24.45,7.51,24.45,20.48,0,9.22-3.75,16.41-15.01,28.63-5.04,5.36-9.01,9.44-15.87,15.76h31.42v10.51H0v-10.29Z"/>
    <path class="cls-1" d="M112.91,43.93c0,25.95-8.36,38.28-26.06,38.28s-26.06-12.22-26.06-38.71S69.27,5.65,86.85,5.65s26.06,12.33,26.06,38.28ZM73.88,43.61c0,19.19,4.07,28.09,12.97,28.09s12.97-8.9,12.97-27.77-4.18-27.77-12.97-27.77-12.97,8.9-12.97,27.45Z"/>
    <path class="cls-1" d="M123.52,70.74c26.7-24.56,34.96-34.85,34.96-43.86,0-6.43-5.15-10.83-12.76-10.83-5.15,0-11.15,1.82-17.8,5.58l-3.11-10.83c7.51-3.54,14.58-5.15,22.3-5.15,15.44,0,24.45,7.51,24.45,20.48,0,9.22-3.75,16.41-15.01,28.63-5.04,5.36-9.01,9.44-15.87,15.76h31.42v10.51h-48.57v-10.29Z"/>
    <path class="cls-1" d="M189.04,66.99c6.11,3.32,11.15,4.83,16.62,4.83,9.44,0,15.44-5.9,15.44-15.23,0-8.69-5.58-13.51-15.66-13.51-5.36,0-10.08.86-17.05,3.11l1.18-39.35h41.93v10.51h-29.38l-.64,16.51c3.11-.54,5.04-.75,8.04-.75,15.66,0,24.66,8.58,24.66,23.7,0,7.83-2.57,14.48-7.61,19.09-4.72,4.4-10.83,6.33-19.62,6.33-8.15,0-14.8-1.39-21.55-4.5l3.65-10.72Z"/>
  </g>
</svg>