<?xml version="1.0" encoding="UTF-8"?>
<svg id="_圖層_2" data-name="圖層 2" xmlns="http://www.w3.org/2000/svg" viewBox="0 0 155.31 115">
  <defs>
    <style>
      .cls-1 {
        fill: #009fa8;
      }

      .cls-1, .cls-2 {
        fill-rule: evenodd;
      }

      .cls-2 {
        fill: none;
      }
    </style>
  </defs>
  <path class="cls-1" d="M4.13,68.19v-4.37c2.49.78,4.69,1.18,6.61,1.18,2.65,0,3.97-.7,3.97-2.1,0-.52-.19-.96-.58-1.31-.4-.38-1.41-.9-3.03-1.57-2.92-1.2-4.82-2.22-5.7-3.07-1.15-1.12-1.72-2.53-1.72-4.23,0-2.19.84-3.86,2.51-5.01,1.65-1.14,3.8-1.7,6.45-1.7,1.46,0,3.58.27,6.34.81v4.21c-2.06-.82-3.97-1.23-5.73-1.23-2.48,0-3.73.68-3.73,2.05,0,.51.25.93.75,1.25.41.26,1.56.82,3.44,1.66,2.7,1.2,4.5,2.25,5.4,3.13,1.06,1.05,1.6,2.42,1.6,4.09,0,2.4-1.05,4.23-3.13,5.5-1.69,1.02-3.88,1.53-6.58,1.53-2.28,0-4.57-.27-6.87-.81h0Z"/>
  <path class="cls-2" d="M4.13,45.19v-4.38c2.49.79,4.69,1.18,6.61,1.18,2.65,0,3.97-.7,3.97-2.1,0-.52-.19-.96-.58-1.31-.4-.38-1.41-.9-3.03-1.57-2.92-1.2-4.82-2.22-5.7-3.07-1.15-1.11-1.72-2.52-1.72-4.22,0-2.2.84-3.86,2.51-5.01,1.65-1.14,3.8-1.71,6.45-1.71,1.46,0,3.58.27,6.34.81v4.21c-2.06-.82-3.97-1.23-5.73-1.23-2.48,0-3.73.69-3.73,2.05,0,.51.25.93.75,1.25.41.26,1.56.82,3.44,1.66,2.7,1.2,4.5,2.25,5.4,3.13,1.06,1.05,1.6,2.42,1.6,4.09,0,2.4-1.05,4.23-3.13,5.49-1.69,1.02-3.88,1.54-6.58,1.54-2.28,0-4.57-.27-6.87-.81h0Z"/>
  <path class="cls-2" d="M4.13,22.19v-4.37c2.49.78,4.69,1.17,6.61,1.17,2.65,0,3.97-.7,3.97-2.1,0-.52-.19-.96-.58-1.31-.4-.37-1.41-.9-3.03-1.56-2.92-1.2-4.82-2.22-5.7-3.07-1.15-1.11-1.72-2.53-1.72-4.23,0-2.19.84-3.86,2.51-5.01C7.83.58,9.98.01,12.64.01c1.46,0,3.58.27,6.34.81v4.21c-2.06-.82-3.97-1.23-5.73-1.23-2.48,0-3.73.69-3.73,2.05,0,.51.25.93.75,1.26.41.26,1.56.82,3.44,1.66,2.7,1.2,4.5,2.24,5.4,3.13,1.06,1.05,1.6,2.42,1.6,4.09,0,2.4-1.05,4.22-3.13,5.49-1.69,1.02-3.88,1.53-6.58,1.53-2.28,0-4.57-.27-6.87-.81h0Z"/>
  <path class="cls-2" d="M4.13,114.18v-4.38c2.49.78,4.69,1.18,6.61,1.18,2.65,0,3.97-.7,3.97-2.1,0-.52-.19-.96-.58-1.32-.4-.38-1.41-.9-3.03-1.57-2.92-1.2-4.82-2.22-5.7-3.07-1.15-1.12-1.72-2.53-1.72-4.23,0-2.2.84-3.86,2.51-5.01,1.65-1.14,3.8-1.7,6.45-1.7,1.46,0,3.58.27,6.34.81v4.21c-2.06-.82-3.97-1.23-5.73-1.23-2.48,0-3.73.68-3.73,2.05,0,.51.25.93.75,1.25.41.26,1.56.82,3.44,1.66,2.7,1.2,4.5,2.24,5.4,3.13,1.06,1.05,1.6,2.42,1.6,4.09,0,2.4-1.05,4.23-3.13,5.5-1.69,1.02-3.88,1.53-6.58,1.53-2.28,0-4.57-.27-6.87-.81h0Z"/>
  <path class="cls-2" d="M4.13,91.18v-4.37c2.49.78,4.69,1.18,6.61,1.18,2.65,0,3.97-.7,3.97-2.1,0-.52-.19-.96-.58-1.31-.4-.38-1.41-.9-3.03-1.57-2.92-1.2-4.82-2.22-5.7-3.07-1.15-1.11-1.72-2.52-1.72-4.23,0-2.19.84-3.86,2.51-5.01,1.65-1.14,3.8-1.71,6.45-1.71,1.46,0,3.58.27,6.34.81v4.21c-2.06-.83-3.97-1.24-5.73-1.24-2.48,0-3.73.68-3.73,2.05,0,.51.25.93.75,1.25.41.26,1.56.81,3.44,1.66,2.7,1.2,4.5,2.24,5.4,3.13,1.06,1.06,1.6,2.42,1.6,4.09,0,2.4-1.05,4.23-3.13,5.49-1.69,1.02-3.88,1.54-6.58,1.54-2.28,0-4.57-.27-6.87-.81h0Z"/>
  <path class="cls-2" d="M150.01,51.96h4.37c-.78,2.49-1.18,4.7-1.18,6.62,0,2.65.7,3.97,2.1,3.97.52,0,.96-.19,1.32-.57.38-.4.9-1.41,1.57-3.03,1.2-2.92,2.22-4.82,3.07-5.71,1.12-1.14,2.53-1.72,4.23-1.72,2.19,0,3.86.84,5.01,2.51,1.14,1.65,1.7,3.8,1.7,6.45,0,1.46-.27,3.58-.81,6.34h-4.21c.83-2.06,1.23-3.97,1.23-5.73,0-2.49-.68-3.73-2.05-3.73-.51,0-.93.25-1.25.75-.26.42-.81,1.57-1.66,3.45-1.2,2.7-2.24,4.5-3.13,5.4-1.05,1.06-2.42,1.6-4.09,1.6-2.4,0-4.24-1.05-5.5-3.13-1.02-1.69-1.53-3.88-1.53-6.58,0-2.27.27-4.57.81-6.87h0Z"/>
  <path class="cls-2" d="M-18.51,51.96h4.38c-.78,2.49-1.18,4.7-1.18,6.62,0,2.65.7,3.97,2.1,3.97.52,0,.96-.19,1.31-.57.38-.4.9-1.41,1.57-3.03,1.2-2.92,2.22-4.82,3.07-5.71,1.12-1.14,2.53-1.72,4.23-1.72,2.19,0,3.86.84,5.01,2.51,1.14,1.65,1.7,3.8,1.7,6.45,0,1.46-.27,3.58-.81,6.34H-1.34c.83-2.06,1.23-3.97,1.23-5.73,0-2.49-.68-3.73-2.05-3.73-.51,0-.93.25-1.25.75-.26.42-.81,1.57-1.66,3.45-1.2,2.7-2.24,4.5-3.13,5.4-1.05,1.06-2.42,1.6-4.09,1.6-2.4,0-4.23-1.05-5.49-3.13-1.03-1.69-1.53-3.88-1.53-6.58,0-2.27.27-4.57.8-6.87h0Z"/>
  <polygon class="cls-1" points="24.21 46.38 24.21 46.38 30.4 46.38 30.4 68.55 24.21 68.55 24.21 46.38"/>
  <polygon class="cls-1" points="36.08 68.55 36.08 46.38 51.95 46.38 51.95 50.39 42.04 50.39 42.04 55.4 50.67 55.4 50.67 59.05 42.04 59.05 42.04 64.31 52.21 64.31 52.21 68.55 36.08 68.55 36.08 68.55"/>
  <polygon class="cls-1" points="56.25 68.55 56.25 46.38 64.28 46.38 69.85 60.54 75.57 46.38 83.19 46.38 83.19 68.55 77.32 68.55 77.32 52.85 70.82 68.77 66.99 68.77 60.61 52.85 60.61 68.55 56.25 68.55 56.25 68.55"/>
  <polygon class="cls-1" points="88.87 68.55 88.87 46.38 104.75 46.38 104.75 50.39 94.84 50.39 94.84 55.4 103.46 55.4 103.46 59.05 94.84 59.05 94.84 64.31 105.01 64.31 105.01 68.55 88.87 68.55 88.87 68.55"/>
  <polygon class="cls-1" points="109.08 68.55 109.08 46.38 116.25 46.38 123.87 61.22 123.87 46.38 128.23 46.38 128.23 68.55 121.25 68.55 113.44 53.51 113.44 68.55 109.08 68.55 109.08 68.55"/>
  <path class="cls-1" d="M132.62,68.19v-4.37c2.47.78,4.68,1.18,6.62,1.18,2.65,0,3.97-.7,3.97-2.1,0-.52-.19-.96-.56-1.31-.4-.38-1.41-.9-3.05-1.57-2.91-1.19-4.81-2.21-5.71-3.07-1.15-1.11-1.72-2.52-1.72-4.24,0-2.18.83-3.85,2.51-5,1.65-1.14,3.8-1.7,6.45-1.7,1.49,0,3.42.24,5.79.71l.55.1v4.21c-2.06-.82-3.97-1.23-5.75-1.23-2.48,0-3.71.68-3.71,2.05,0,.51.25.93.75,1.25.4.26,1.55.81,3.46,1.66,2.69,1.2,4.48,2.25,5.39,3.13,1.06,1.05,1.6,2.42,1.6,4.09,0,2.4-1.03,4.23-3.12,5.5-1.7,1.02-3.9,1.53-6.59,1.53-2.28,0-4.57-.27-6.87-.81h0Z"/>
</svg>