<?xml version="1.0" encoding="UTF-8"?>
<svg id="_圖層_2" data-name="圖層 2" xmlns="http://www.w3.org/2000/svg" viewBox="0 0 173.15 115">
  <defs>
    <style>
      .cls-1 {
        fill: #ffea00;
      }

      .cls-2 {
        fill: #df0011;
      }

      .cls-3 {
        fill: #1c1c1b;
      }
    </style>
  </defs>
  <rect x="2.89" y="10.2" width="6.54" height="34.01"/>
  <rect class="cls-2" x="2.89" y="41.59" width="6.54" height="34.01"/>
  <rect class="cls-1" x="2.89" y="72.99" width="6.54" height="34.01"/>
  <g>
    <path class="cls-3" d="M21.79,23.91v-13.18h4.53c1.03,0,1.81.06,2.35.19.75.17,1.4.49,1.93.95.7.59,1.21,1.34,1.56,2.25.35.91.51,1.96.51,3.13,0,1.01-.11,1.89-.34,2.67-.23.77-.53,1.41-.9,1.92-.37.51-.76.9-1.2,1.2-.44.29-.96.51-1.57.66-.61.15-1.31.22-2.12.22h-4.75ZM23.53,22.35h2.81c.87,0,1.54-.08,2.04-.24.49-.16.89-.39,1.18-.68.41-.41.73-.97.96-1.67.23-.7.34-1.54.34-2.54,0-1.38-.23-2.44-.68-3.18-.45-.73-1-1.23-1.65-1.49-.47-.18-1.21-.26-2.25-.26h-2.76v10.06Z"/>
    <path class="cls-3" d="M41.41,20.82l1.66.22c-.26.98-.75,1.74-1.46,2.27-.72.54-1.62.81-2.73.81-1.4,0-2.51-.43-3.32-1.28-.82-.86-1.23-2.07-1.23-3.62s.42-2.85,1.24-3.74c.82-.89,1.9-1.33,3.22-1.33s2.32.44,3.13,1.3c.81.87,1.21,2.09,1.21,3.67,0,.09,0,.24,0,.43h-7.13c.07,1.05.36,1.85.89,2.41.54.56,1.2.84,2.01.84.59,0,1.1-.16,1.52-.47.42-.31.75-.81,1-1.5ZM36.08,18.23h5.35c-.07-.81-.27-1.41-.61-1.82-.52-.62-1.19-.94-2.02-.94-.75,0-1.37.25-1.88.75-.51.5-.79,1.17-.85,2.01Z"/>
    <path class="cls-3" d="M51.37,23.91v-1.41c-.75,1.08-1.76,1.62-3.03,1.62-.56,0-1.08-.11-1.57-.32-.49-.21-.85-.49-1.09-.82-.23-.33-.4-.73-.5-1.2-.07-.32-.09-.82-.09-1.51v-5.92h1.61v5.29c0,.84.03,1.41.09,1.71.1.43.32.76.65,1,.33.24.74.37,1.22.37s.94-.12,1.37-.37c.42-.25.73-.59.9-1.01.17-.43.26-1.05.26-1.86v-5.12h1.61v9.55h-1.44Z"/>
    <path class="cls-3" d="M58.9,22.46l.22,1.43c-.46.1-.87.15-1.22.15-.59,0-1.04-.1-1.37-.28-.32-.19-.55-.43-.68-.73-.13-.3-.2-.94-.2-1.91v-5.5h-1.2v-1.26h1.2v-2.36l1.61-.98v3.34h1.65v1.26h-1.65v5.59c0,.46.03.76.09.89.06.13.15.24.28.31.13.08.31.12.56.12.18,0,.43-.02.72-.06Z"/>
    <path class="cls-3" d="M59.82,21.05l1.6-.24c.09.65.34,1.14.75,1.48.42.35,1,.51,1.74.51s1.3-.15,1.66-.45c.36-.31.54-.66.54-1.07,0-.36-.17-.65-.49-.86-.22-.14-.77-.33-1.65-.55-1.18-.3-2.01-.56-2.47-.78-.46-.21-.81-.52-1.05-.9-.23-.39-.36-.81-.36-1.28,0-.42.1-.82.29-1.18.19-.37.46-.66.8-.9.25-.19.59-.34,1.03-.47.44-.13.9-.19,1.4-.19.75,0,1.41.11,1.98.32.57.21.99.51,1.26.87.27.37.46.86.56,1.48l-1.58.22c-.08-.49-.28-.88-.63-1.16-.34-.27-.83-.42-1.46-.42-.74,0-1.28.13-1.59.37-.32.24-.48.53-.48.86,0,.21.07.4.2.57.14.17.34.32.63.43.16.06.63.2,1.43.42,1.15.3,1.95.55,2.4.75.45.19.81.48,1.07.85.26.37.39.83.39,1.38s-.16,1.05-.47,1.52c-.31.48-.77.84-1.36,1.11-.59.26-1.26.39-2.01.39-1.25,0-2.19-.25-2.84-.77-.65-.52-1.07-1.28-1.25-2.3Z"/>
    <path class="cls-3" d="M75.92,20.41l1.59.22c-.17,1.09-.62,1.95-1.34,2.56-.72.62-1.59.92-2.63.92-1.3,0-2.36-.43-3.15-1.28-.79-.85-1.18-2.08-1.18-3.67,0-1.03.17-1.93.51-2.7.35-.77.86-1.36,1.56-1.74.7-.39,1.46-.58,2.27-.58,1.03,0,1.88.26,2.54.79.66.52,1.08,1.26,1.26,2.23l-1.57.24c-.15-.65-.42-1.12-.79-1.45-.38-.32-.84-.49-1.38-.49-.81,0-1.47.3-1.98.88-.51.58-.76,1.51-.76,2.78s.24,2.22.73,2.8c.49.59,1.14.87,1.93.87.63,0,1.16-.19,1.59-.58.42-.39.7-.99.81-1.8Z"/>
    <path class="cls-3" d="M78.88,23.91v-13.18h1.61v4.74c.75-.88,1.71-1.32,2.85-1.32.71,0,1.32.14,1.84.42.52.28.89.66,1.12,1.16.22.49.34,1.2.34,2.14v6.05h-1.61v-6.05c0-.81-.18-1.39-.53-1.77-.35-.37-.84-.55-1.48-.55-.48,0-.93.13-1.35.37-.42.25-.72.59-.9,1.01-.18.43-.27,1.01-.27,1.76v5.22h-1.61Z"/>
    <path class="cls-3" d="M95.66,20.82l1.67.22c-.26.98-.76,1.74-1.47,2.27-.72.54-1.62.81-2.73.81-1.4,0-2.5-.43-3.32-1.28-.82-.86-1.23-2.07-1.23-3.62s.42-2.85,1.24-3.74c.83-.89,1.9-1.33,3.22-1.33s2.32.44,3.13,1.3c.81.87,1.21,2.09,1.21,3.67,0,.09,0,.24,0,.43h-7.13c.07,1.05.36,1.85.89,2.41.54.56,1.2.84,2,.84.59,0,1.11-.16,1.52-.47.42-.31.76-.81,1-1.5ZM90.33,18.23h5.34c-.07-.81-.27-1.41-.61-1.82-.52-.62-1.19-.94-2.02-.94-.75,0-1.37.25-1.88.75-.51.5-.79,1.17-.84,2.01Z"/>
    <path class="cls-3" d="M98.71,21.05l1.6-.24c.09.65.34,1.14.76,1.48.41.35.99.51,1.73.51s1.3-.15,1.66-.45c.36-.31.54-.66.54-1.07,0-.36-.16-.65-.48-.86-.22-.14-.78-.33-1.66-.55-1.19-.3-2.01-.56-2.48-.78-.46-.21-.81-.52-1.04-.9-.24-.39-.35-.81-.35-1.28,0-.42.1-.82.29-1.18.19-.37.46-.66.79-.9.25-.19.59-.34,1.04-.47.43-.13.9-.19,1.39-.19.75,0,1.41.11,1.99.32.56.21.98.51,1.25.87.27.37.46.86.56,1.48l-1.59.22c-.07-.49-.28-.88-.62-1.16-.35-.27-.83-.42-1.46-.42-.74,0-1.27.13-1.59.37-.32.24-.48.53-.48.86,0,.21.07.4.2.57.13.17.34.32.62.43.16.06.64.2,1.43.42,1.15.3,1.95.55,2.4.75.46.19.81.48,1.06.85.26.37.39.83.39,1.38s-.16,1.05-.48,1.52c-.31.48-.77.84-1.36,1.11-.59.26-1.27.39-2.02.39-1.24,0-2.19-.25-2.84-.77-.65-.52-1.07-1.28-1.25-2.3Z"/>
    <path class="cls-3" d="M114.19,23.91v-13.18h1.75v13.18h-1.75Z"/>
    <path class="cls-3" d="M118.8,23.91v-9.55h1.45v1.36c.71-1.05,1.72-1.57,3.05-1.57.58,0,1.1.11,1.58.31.48.21.84.48,1.09.81.24.33.41.74.5,1.19.06.31.09.83.09,1.58v5.87h-1.61v-5.81c0-.66-.07-1.15-.19-1.48-.13-.33-.35-.59-.68-.78-.31-.19-.69-.29-1.12-.29-.7,0-1.28.22-1.79.66-.5.44-.75,1.26-.75,2.49v5.21h-1.62Z"/>
    <path class="cls-3" d="M128.39,21.05l1.6-.24c.09.65.34,1.14.76,1.48.41.35.99.51,1.73.51s1.3-.15,1.67-.45c.36-.31.54-.66.54-1.07,0-.36-.16-.65-.48-.86-.22-.14-.77-.33-1.66-.55-1.18-.3-2.01-.56-2.47-.78-.46-.21-.81-.52-1.05-.9-.23-.39-.35-.81-.35-1.28,0-.42.1-.82.29-1.18.2-.37.46-.66.8-.9.25-.19.6-.34,1.03-.47.44-.13.9-.19,1.4-.19.75,0,1.41.11,1.98.32.57.21.99.51,1.26.87.27.37.45.86.55,1.48l-1.58.22c-.07-.49-.28-.88-.62-1.16-.35-.27-.84-.42-1.46-.42-.75,0-1.28.13-1.59.37-.31.24-.47.53-.47.86,0,.21.06.4.19.57.13.17.34.32.62.43.16.06.63.2,1.43.42,1.15.3,1.94.55,2.4.75.45.19.81.48,1.07.85.26.37.38.83.38,1.38s-.16,1.05-.47,1.52c-.32.48-.77.84-1.37,1.11-.6.26-1.27.39-2.02.39-1.24,0-2.19-.25-2.84-.77-.65-.52-1.07-1.28-1.25-2.3Z"/>
    <path class="cls-3" d="M141.79,22.46l.21,1.43c-.46.1-.86.15-1.22.15-.59,0-1.05-.1-1.37-.28-.33-.19-.55-.43-.69-.73-.14-.3-.2-.94-.2-1.91v-5.5h-1.2v-1.26h1.2v-2.36l1.62-.98v3.34h1.64v1.26h-1.64v5.59c0,.46.03.76.09.89.06.13.15.24.28.31.13.08.32.12.56.12.18,0,.42-.02.72-.06Z"/>
    <path class="cls-3" d="M143.37,12.57v-1.84h1.61v1.84h-1.61ZM143.37,23.91v-9.55h1.61v9.55h-1.61Z"/>
    <path class="cls-3" d="M151,22.46l.22,1.43c-.45.1-.87.15-1.23.15-.58,0-1.04-.1-1.36-.28-.33-.19-.55-.43-.68-.73-.14-.3-.2-.94-.2-1.91v-5.5h-1.2v-1.26h1.2v-2.36l1.61-.98v3.34h1.64v1.26h-1.64v5.59c0,.46.03.76.08.89.06.13.15.24.28.31.13.08.31.12.56.12.18,0,.42-.02.72-.06Z"/>
    <path class="cls-3" d="M158.83,23.91v-1.41c-.75,1.08-1.76,1.62-3.03,1.62-.57,0-1.09-.11-1.58-.32-.49-.21-.85-.49-1.09-.82-.23-.33-.4-.73-.5-1.2-.07-.32-.1-.82-.1-1.51v-5.92h1.61v5.29c0,.84.04,1.41.1,1.71.1.43.32.76.65,1,.32.24.73.37,1.22.37s.94-.12,1.37-.37c.42-.25.73-.59.9-1.01.17-.43.26-1.05.26-1.86v-5.12h1.61v9.55h-1.44Z"/>
    <path class="cls-3" d="M166.35,22.46l.22,1.43c-.46.1-.87.15-1.22.15-.59,0-1.05-.1-1.37-.28-.33-.19-.55-.43-.69-.73-.13-.3-.2-.94-.2-1.91v-5.5h-1.19v-1.26h1.19v-2.36l1.61-.98v3.34h1.64v1.26h-1.64v5.59c0,.46.03.76.09.89.06.13.15.24.28.31.13.08.31.12.56.12.18,0,.42-.02.72-.06Z"/>
    <path class="cls-3" d="M25.13,43.29v-11.63h-4.34v-1.55h10.43v1.55h-4.35v11.63h-1.74Z"/>
    <path class="cls-3" d="M37.04,42.09c-.6.52-1.19.88-1.75,1.09-.55.22-1.15.32-1.79.32-1.05,0-1.86-.25-2.43-.77-.56-.51-.85-1.17-.85-1.96,0-.47.11-.89.32-1.28.22-.39.49-.7.84-.93.35-.23.74-.41,1.17-.53.32-.08.8-.16,1.45-.24,1.31-.15,2.27-.34,2.89-.55,0-.22,0-.36,0-.43,0-.66-.15-1.12-.46-1.39-.42-.36-1.03-.55-1.85-.55-.77,0-1.33.13-1.7.4-.36.26-.63.74-.81,1.42l-1.59-.22c.14-.67.38-1.22.72-1.64.33-.42.81-.74,1.43-.97.62-.22,1.35-.33,2.17-.33s1.49.09,2,.29c.51.19.88.43,1.12.72.24.3.41.66.51,1.1.06.27.09.78.09,1.49v2.16c0,1.5.03,2.45.1,2.85.07.4.2.78.39,1.15h-1.68c-.16-.34-.26-.74-.3-1.2ZM36.91,38.5c-.59.24-1.48.44-2.65.61-.67.1-1.15.2-1.43.32-.27.12-.49.29-.63.52-.15.23-.23.49-.23.77,0,.43.17.79.49,1.08.33.29.81.43,1.44.43s1.18-.14,1.67-.41c.48-.27.84-.65,1.07-1.12.18-.37.26-.9.26-1.62v-.59Z"/>
    <path class="cls-3" d="M41.03,31.95v-1.84h1.61v1.84h-1.61ZM41.03,43.29v-9.55h1.61v9.55h-1.61Z"/>
    <path class="cls-3" d="M45.11,46.95v-13.21h1.47v1.24c.35-.49.75-.85,1.18-1.09.44-.24.97-.37,1.59-.37.82,0,1.54.21,2.16.62.62.42,1.1,1.02,1.41,1.78.31.76.48,1.6.48,2.51,0,.98-.18,1.86-.53,2.64-.36.78-.86,1.38-1.53,1.8-.66.42-1.37.63-2.11.63-.54,0-1.03-.11-1.46-.34-.43-.23-.78-.52-1.06-.86v4.64h-1.61ZM46.57,38.57c0,1.23.25,2.14.75,2.73.5.58,1.1.88,1.81.88s1.34-.3,1.85-.91c.51-.61.77-1.55.77-2.83,0-1.21-.25-2.13-.75-2.73-.5-.6-1.1-.91-1.8-.91s-1.3.32-1.83.97c-.53.65-.8,1.58-.8,2.81Z"/>
    <path class="cls-3" d="M61.89,40.2l1.66.22c-.26.97-.75,1.74-1.46,2.27-.72.54-1.62.81-2.73.81-1.4,0-2.51-.43-3.32-1.29-.82-.86-1.23-2.07-1.23-3.62s.42-2.85,1.24-3.74c.83-.89,1.9-1.33,3.22-1.33s2.32.43,3.13,1.3c.81.87,1.21,2.09,1.21,3.67,0,.09,0,.24-.01.43h-7.13c.07,1.05.36,1.85.89,2.41.54.56,1.2.84,2.01.84.59,0,1.1-.16,1.52-.47.42-.31.75-.82,1-1.5ZM56.56,37.61h5.35c-.07-.81-.27-1.41-.62-1.82-.51-.62-1.18-.94-2.01-.94-.75,0-1.37.25-1.88.75-.51.5-.79,1.17-.85,2Z"/>
    <path class="cls-3" d="M65.6,31.95v-1.84h1.61v1.84h-1.61ZM65.6,43.29v-9.55h1.61v9.55h-1.61Z"/>
  </g>
  <g>
    <path class="cls-3" d="M23.06,61.65c-.45.36-.85.66-1.23.91l-1.07-.63c.89-.61,1.67-1.22,2.34-1.85v-.05c.71-.73,1.32-1.56,1.83-2.48l1.2.4c-.6.97-1.19,1.78-1.76,2.43v9.2h-1.32v-7.91ZM24.46,53.63l1.22.38c-.91,1.67-2,2.96-3.3,3.89l-1.11-.6c1.44-1,2.5-2.22,3.19-3.66ZM27.35,64.66l1.29.22c-.4,1.55-1.07,2.88-2.01,3.99l-1.03-.54c.88-1.08,1.45-2.29,1.74-3.67ZM26,62.28h15.96v1.01h-15.96v-1.01ZM41.21,60.95c0,.1-.07.15-.2.15h-13.76c-.12,0-.18-.05-.18-.15v-3.74c.02-.09.08-.14.18-.14h5.87v-1.32h-6.68v-1.01h6.68v-1.23h1.32v1.23h7.44v1.01h-7.44v1.32h6.57c.13.01.2.06.2.14v3.74ZM31.34,60.09v-2.01h-2.91s-.05.02-.05.03v1.92s.03.05.05.05h2.91ZM29.82,64.14h1.32v3.44c0,.24.03.4.09.48.13.12.38.19.73.19h4.58c.24,0,.43-.03.58-.07.13-.03.22-.1.28-.2.14-.14.21-.63.21-1.49l1.33.17c0,1.2-.14,1.92-.4,2.16-.34.3-.87.45-1.58.45h-5.59c-.37,0-.67-.07-.91-.2-.48-.27-.7-.71-.65-1.32v-3.6ZM35.62,60.09v-2.01h-2.96v2.01h2.96ZM33.45,64.59l1.22-.32c.38.56.71,1.27,1.02,2.12l-1.24.26c-.14-.37-.31-.76-.54-1.18-.25-.44-.4-.74-.47-.87ZM36.93,58.08v2.01h2.89s.07-.02.07-.05v-1.92s-.03-.03-.07-.03h-2.89ZM39.06,64.64l1.22-.36c.67,1.04,1.25,2.33,1.76,3.89l-1.27.32c-.55-1.65-1.12-2.93-1.71-3.85Z"/>
    <path class="cls-3" d="M66.09,68.77c0,.18-.12.27-.35.27h-18.34c-.22,0-.33-.09-.33-.27v-14.38c0-.17.11-.26.33-.26h18.34c.24,0,.35.08.35.26v14.38ZM62.69,56.52l-.16.07h1.2v1.01h-4.65c.31,1.93.7,3.55,1.16,4.86.75-1.22,1.32-2.47,1.72-3.74l1.27.27c-.68,1.97-1.47,3.53-2.36,4.66-.05.03-.08.07-.09.12.32.66.63,1.25.91,1.78.25.4.41.6.46.6.12-.02.21-.14.27-.36.07-.53.1-1.16.09-1.88l1.29.22c-.09,1.85-.36,2.91-.83,3.15-.16.1-.38.15-.66.14-.36-.03-.7-.18-1.02-.46-.47-.54-.94-1.26-1.38-2.16-1.11,1.12-2.05,1.95-2.81,2.52l-1.05-.62c1.14-.82,2.25-1.87,3.32-3.13-.62-1.54-1.16-3.53-1.61-5.98h-8.03v-1.01h7.88c-.1-.51-.16-1-.18-1.46h-8.92c-.09,0-.14.04-.14.1v12.67c0,.09.05.12.14.12h16.11c.11,0,.16-.04.16-.12v-12.67c0-.07-.05-.1-.16-.1h-2.85c.32.38.63.84.91,1.39ZM57.26,64.11l.33.97c-1.89.5-4.32.86-7.3,1.08l-.31-.97c3.16-.31,5.58-.67,7.28-1.08ZM56.92,63.41c0,.1-.07.15-.2.15h-6.46c-.12,0-.17-.05-.17-.15v-4.49c.02-.09.07-.14.17-.14h6.46c.14.01.2.06.2.14v4.49ZM55.54,59.79h-4.09s-.05.03-.05.04v2.67s.03.05.05.05h4.09s.07-.02.07-.05v-2.67s-.02-.04-.07-.04ZM60.38,55.34l.47-.21h-2.07c.04.48.1.97.16,1.46h2.34c-.33-.55-.63-.96-.89-1.25Z"/>
    <path class="cls-3" d="M74.45,62.09c-.69.54-1.41,1.07-2.18,1.6l-1.07-.72c2.86-1.79,5.12-3.92,6.76-6.39.06-.1.12-.19.18-.27h-6.54v-1.01h7.12c.3-.55.58-1.17.86-1.85l1.25.32c-.25.56-.5,1.07-.74,1.53h11.74v1.01h-12.27c-.89,1.58-2.16,3.15-3.81,4.69v8.56h-1.31v-7.47ZM83.98,67.89v-5.77h-5.88v-1.01h5.88v-3.08h1.31v3.08h6.1v1.01h-6.1v5.77h6.63v1.01h-14.27v-1.01h6.32Z"/>
    <path class="cls-3" d="M114.39,58.67l-17.65.92-.33-1,2-.09c1.66-1.48,3.23-3.14,4.72-4.96l1.09.57c-.92,1.2-2.25,2.63-4.01,4.31l13.07-.63c-.68-.62-1.77-1.41-3.24-2.38l.95-.68c2.63,1.85,4.74,3.51,6.35,4.98l-.98.65c-.59-.55-1.25-1.11-1.96-1.69ZM115.09,68.63c0,.18-.12.27-.36.27h-15.77c-.22,0-.33-.09-.33-.27v-6.71c0-.17.11-.26.33-.26h15.77c.24,0,.36.08.36.26v6.71ZM113.7,62.67h-13.71s-.05.02-.05.03v5.14s.03.05.05.05h13.71s.07-.01.07-.05v-5.14s-.02-.03-.07-.03Z"/>
    <path class="cls-3" d="M124.06,58.63h-2.58v-1.01h2.58v-4.18h1.31v4.18h2.45v1.01h-2.45v11.06h-1.31v-11.06ZM129.2,62.88h-2.71v-1.01h2.81c.01-.09.02-.18.02-.26v-1.05h1.31v1.05c0,.09,0,.18-.02.26h2.72c.12,0,.2.03.26.03.15.08.22.25.22.53-.01,1.34-.03,2.54-.04,3.58-.06,1.72-.4,2.79-1.03,3.2-.57.33-1.82.27-3.74-.17v-1.18c.89.24,1.59.38,2.09.43.49.06.78.04.89-.07.15-.17.29-.56.43-1.18.13-2.31.15-3.67.05-4.1-.07-.04-.12-.07-.18-.07h-1.76c-.12.59-.25,1.21-.38,1.9-.72,2.03-1.63,3.51-2.74,4.45l-1.29-.33c1.65-1.64,2.68-3.65,3.09-6.03ZM133.12,55.96h-5.48v-1.01h5.63c.03-.19.05-.39.05-.6v-.95h1.31v.95c0,.22,0,.42-.02.6h6.28c.12.01.21.02.27.03.09.04.14.09.15.16.02.03.04.06.05.1,0,2.28-.14,3.58-.38,3.94-.19.27-.45.47-.76.58-1.11.38-2.86.35-5.23-.09l-.06-1.18c2.18.49,3.69.58,4.54.27.15-.07.27-.17.37-.32.12-.17.19-.45.2-.84.06-.95.05-1.47-.04-1.58-.05-.05-.1-.06-.16-.06h-5.36c-.25,1.12-.81,1.99-1.67,2.62-1.4.96-3.25,1.58-5.57,1.87l-.62-1.01c1.37-.2,2.47-.44,3.32-.72.5-.18.96-.37,1.36-.58.9-.53,1.51-1.25,1.82-2.18ZM137.15,62.94h-2.47v-1.01h2.56v-1.37h1.31v1.37h2.96c.12.02.21.02.27.03.14.08.22.26.22.53,0,1.34-.02,2.52-.07,3.54-.07,1.7-.43,2.76-1.09,3.17-.6.32-1.85.29-3.77-.09v-1.2c.86.23,1.54.36,2.05.4.49.05.81.01.95-.11.15-.12.27-.34.38-.67.05-.16.09-.36.14-.6.16-2.42.17-3.73.03-3.93-.05-.05-.1-.07-.16-.07h-2c-.11.67-.29,1.49-.56,2.45-.68,1.77-1.58,3.1-2.69,3.99l-1.27-.36c1.91-1.79,2.98-3.82,3.21-6.08Z"/>
    <path class="cls-3" d="M157.06,54.69c-.82.51-2.1,1.08-3.86,1.7h8.24v1.01h-8.4v-.96c-1.6.47-3.48.92-5.63,1.34l-.51-.94c5.18-.87,8.62-2.03,10.31-3.48l.91.51c-.11.07-.19.14-.24.21,2.87,1.33,6.16,2.21,9.86,2.67l-.54.95c-3.68-.63-7.07-1.63-10.15-3ZM165.76,62.66c0,.1-.07.15-.2.15h-16.78c-.12,0-.18-.05-.18-.15v-4.15c.02-.08.07-.13.18-.13h16.78c.14.01.2.06.2.13v4.15ZM164.52,69.64c0,.1-.07.15-.2.15h-14.38c-.12,0-.18-.05-.18-.15v-5.51c.01-.09.07-.14.18-.14h14.38c.13.01.2.06.2.14v5.51ZM156.62,61.8v-2.41h-6.66s-.04.02-.04.03v2.33s.03.05.04.05h6.66ZM151.07,66.46h12.13v-1.42s-.02-.04-.07-.04h-12.02s-.04.03-.04.04v1.42ZM163.2,67.47h-12.13v1.26s.03.05.04.05h12.02s.07-.02.07-.05v-1.26ZM152.16,60.48l.89-.74c.55.31,1.12.73,1.71,1.25l-.95.72c-.64-.54-1.19-.96-1.65-1.23ZM162.07,60.24c-.3.48-.68,1-1.14,1.56h3.45s.07-.01.07-.05v-2.33s-.02-.03-.07-.03h-6.46v2.41h1.38c.73-.82,1.27-1.51,1.62-2.07l1.14.51Z"/>
  </g>
</svg>