<?xml version="1.0" encoding="UTF-8"?>
<svg id="_圖層_2" data-name="圖層 2" xmlns="http://www.w3.org/2000/svg" xmlns:xlink="http://www.w3.org/1999/xlink" viewBox="0 0 248.28 115">
  <defs>
    <style>
      .cls-1, .cls-2, .cls-3 {
        fill: none;
      }

      .cls-4 {
        fill: #7e95c0;
      }

      .cls-5 {
        fill: #859cc5;
      }

      .cls-6 {
        fill: #c7cfe5;
      }

      .cls-7 {
        fill: #f3f5fa;
      }

      .cls-8 {
        fill: #9baccf;
      }

      .cls-9 {
        fill: #738ebb;
      }

      .cls-10 {
        fill: #135d96;
      }

      .cls-11 {
        fill: #004d89;
      }

      .cls-12 {
        fill: #0a5a94;
      }

      .cls-13 {
        fill: #00528d;
      }

      .cls-14 {
        fill: #fff;
      }

      .cls-14, .cls-3, .cls-15 {
        fill-rule: evenodd;
      }

      .cls-16 {
        fill: #d8deed;
      }

      .cls-17 {
        fill: #366aa1;
      }

      .cls-18 {
        fill: #e7eaf4;
      }

      .cls-19 {
        fill: #004c88;
      }

      .cls-20 {
        fill: #035993;
      }

      .cls-21 {
        fill: #849bc4;
      }

      .cls-22 {
        fill: #1b5f98;
      }

      .cls-23 {
        fill: #00518d;
      }

      .cls-24 {
        fill: #4975a9;
      }

      .cls-25 {
        fill: #a1b1d3;
      }

      .cls-26 {
        fill: #ced5e8;
      }

      .cls-27 {
        fill: #396ba2;
      }

      .cls-28 {
        fill: #93a7cc;
      }

      .cls-29 {
        fill: #005792;
      }

      .cls-30 {
        fill: #3f6fa5;
      }

      .cls-31 {
        fill: #5a7fb1;
      }

      .cls-32 {
        fill: #a5b4d4;
      }

      .cls-33 {
        fill: #abb9d7;
      }

      .cls-34 {
        fill: #d0d7e9;
      }

      .cls-35 {
        fill: #6383b4;
      }

      .cls-36 {
        fill: #e0e4f1;
      }

      .cls-37 {
        fill: #7c94bf;
      }

      .cls-38 {
        fill: #c5cde4;
      }

      .cls-39 {
        fill: #6585b5;
      }

      .cls-40 {
        fill: #6786b6;
      }

      .cls-41 {
        fill: #5c80b1;
      }

      .cls-42 {
        fill: #00548f;
      }

      .cls-43 {
        fill: #7791bd;
      }

      .cls-44 {
        fill: #ebedf6;
      }

      .cls-45 {
        fill: #e9ecf5;
      }

      .cls-46 {
        fill: #6b89b8;
      }

      .cls-47 {
        fill: #b3bfdb;
      }

      .cls-48 {
        fill: #d2ddea;
      }

      .cls-49 {
        fill: #c9d1e6;
      }

      .cls-50 {
        fill: #8098c2;
      }

      .cls-51 {
        clip-path: url(#clippath-1);
      }

      .cls-52 {
        fill: #dce1ef;
      }

      .cls-53 {
        fill: #dae0ef;
      }

      .cls-54 {
        fill: #adbbd8;
      }

      .cls-55 {
        fill: #6d8ab9;
      }

      .cls-56 {
        fill: #0f5b95;
      }

      .cls-57 {
        fill: #f1f3f9;
      }

      .cls-58 {
        fill: #718dba;
      }

      .cls-59 {
        fill: #c1cae1;
      }

      .cls-60 {
        fill: #4774a8;
      }

      .cls-61 {
        fill: #bfc9e1;
      }

      .cls-62 {
        fill: #6082b3;
      }

      .cls-63 {
        fill: #d6dded;
      }

      .cls-64 {
        fill: #8fa4ca;
      }

      .cls-65 {
        fill: #e20413;
      }

      .cls-66 {
        fill: #4572a7;
      }

      .cls-67 {
        fill: #5e81b2;
      }

      .cls-68 {
        fill: #e2e7f2;
      }

      .cls-69 {
        fill: #c3cce3;
      }

      .cls-70 {
        fill: #97a9cd;
      }

      .cls-2 {
        clip-rule: evenodd;
      }

      .cls-71 {
        fill: #f8d200;
      }

      .cls-72 {
        fill: #edeff7;
      }

      .cls-73 {
        fill: #2c659d;
      }

      .cls-74 {
        fill: #829ac3;
      }

      .cls-75 {
        fill: #dee3f0;
      }

      .cls-76 {
        fill: #7a92be;
      }

      .cls-77 {
        fill: #7690bd;
      }

      .cls-78 {
        fill: #a9b7d6;
      }

      .cls-79 {
        fill: #00538e;
      }

      .cls-80 {
        fill: #bbc6df;
      }

      .cls-15, .cls-81 {
        fill: #1c1c1b;
      }

      .cls-82 {
        fill: #4f79ac;
      }

      .cls-83 {
        fill: #587eb0;
      }

      .cls-84 {
        fill: #6988b7;
      }

      .cls-85 {
        fill: #547bae;
      }

      .cls-86 {
        fill: #9fafd1;
      }

      .cls-87 {
        fill: #d4dbec;
      }

      .cls-88 {
        fill: #a3b2d3;
      }

      .cls-89 {
        fill: #3469a0;
      }

      .cls-90 {
        fill: #e4e8f3;
      }

      .cls-91 {
        fill: #005893;
      }

      .cls-92 {
        fill: #3d6ea4;
      }

      .cls-93 {
        fill: #004f8b;
      }

      .cls-94 {
        fill: #eff1f8;
      }

      .cls-95 {
        fill: #2a659d;
      }

      .cls-96 {
        fill: #b7c2dd;
      }

      .cls-97 {
        fill: #a7b5d5;
      }

      .cls-98 {
        fill: #31689f;
      }

      .cls-99 {
        fill: #4070a5;
      }

      .cls-100 {
        fill: #004b88;
      }

      .cls-101 {
        fill: #24629b;
      }

      .cls-102 {
        fill: #527aad;
      }

      .cls-103 {
        fill: #95a8cc;
      }

      .cls-104 {
        fill: #99aace;
      }

      .cls-105 {
        fill: #bdc7e0;
      }

      .cls-106 {
        fill: #27639b;
      }

      .cls-107 {
        fill: #9daed1;
      }

      .cls-108 {
        fill: #899fc7;
      }

      .cls-109 {
        fill: #8da2c8;
      }

      .cls-110 {
        fill: #afbcd9;
      }

      .cls-111 {
        fill: #005690;
      }

      .cls-112 {
        fill: #175e97;
      }

      .cls-113 {
        fill: #8ba0c8;
      }

      .cls-114 {
        fill: #1e6098;
      }

      .cls-115 {
        fill: #6f8bb9;
      }

      .cls-116 {
        fill: #3a6ca3;
      }

      .cls-117 {
        fill: #d2d8ea;
      }

      .cls-118 {
        fill: #8097c1;
      }

      .cls-119 {
        fill: #2f679e;
      }

      .cls-120 {
        clip-path: url(#clippath);
      }

      .cls-121 {
        fill: #b1bdda;
      }

      .cls-122 {
        fill: #005691;
      }

      .cls-123 {
        fill: #b9c4de;
      }

      .cls-124 {
        fill: #879dc5;
      }

      .cls-125 {
        fill: #4b76aa;
      }

      .cls-126 {
        fill: #4271a7;
      }

      .cls-127 {
        fill: #00508c;
      }

      .cls-128 {
        fill: #4d77ab;
      }

      .cls-129 {
        fill: #f5f7fb;
      }

      .cls-130 {
        fill: #cad2e6;
      }

      .cls-131 {
        fill: #ccd4e8;
      }

      .cls-132 {
        fill: #91a5cb;
      }

      .cls-133 {
        fill: #b5c0dc;
      }

      .cls-134 {
        fill: #21619a;
      }

      .cls-135 {
        fill: #567caf;
      }
    </style>
    <clipPath id="clippath">
      <path class="cls-2" d="M40.86,38.58c-.16-.26-.21-.15-.42-.39-.21-.25-.51-.42-.74-.69-.23-.28.11-.37,0-.59-.12-.22-.55.04-.55.04,0,0-.3.2-.58-.02-.29-.22-.57-.28-.8-.34-.23-.06-.26-.14-.41-.34-.15-.21-.32-.42-.46-.45-.14-.04-.49-.31-.55-.47-.06-.16-.02-.42-.23-.57-.21-.15-.16-.35-.38-.45,0,0-.22-.13-.33-.15-.12-.03-.45-.06-.48-.14-.03-.08-.66-.33-.77-.06-.11.27-.15.72-.36.8-.21.07-.2.34-.2.34,0,0-.23-.06-.25.11,0,.11.07.28.13.38l2.88.69-.42,1.75-3.83,1.46,3.3.79-.41,1.74-6-1.43.41-1.73,3.85-1.47-3.1-.74c-.23.14-.58.35-.79.34-.27-.02-.49.3-.49.3,0,0-.48.38-.64.51-.16.14-.48.16-.52.32-.04.16-.21,1-.49,1.13-.28.13-.38.45-.38.45,0,0-.33.24-.47.33-.14.09-.09.61-.09.61,0,0,.02.72-.05.82-.07.11-.44.31-.57.35-.13.04-.33.27-.37.43s-.08.44-.25.43c-.17-.01-.78-.01-.86.21-.08.22-.08.64-.26.6-.18-.04-.37.11-.41.27-.04.17-.13.46-.27.53-.14.06-.3.54-.3.54,0,0-.41.49-.57.55-.16.06-.28.25-.3.34-.02.09-.19.3-.28.35-.08.05-.08.23-.08.23,0,0-.12.07-.15.23-.04.16-.16.57-.38.67-.22.1-.41.39-.41.39,0,0-.32.51-.37.72-.05.21.15.8,0,.76-.16-.04-.33-.03-.46.21-.13.24-.39.71-.43.85-.03.14-.57.65-.95.82-.39.18-.48.47-.51.69-.03.21-.41,1.1-.57,1.26-.16.16-.4.54-.41.69,0,.15.21.37,0,.42-.21.05-.48.15-.48.15,0,0-.55.56-.6.79-.06.23-.1.61-.31.57-.21-.05-.34.19-.38.37-.05.18-.24.39-.3.62-.06.23-.06.47-.03.56.03.08.03.4.03.4,0,0,.2.29.06.48-.14.19-.14.58-.14.58,0,0-.05.82.05,1.02.1.19-.07.47-.2.64-.14.16-.35.55-.36.77,0,.22-.13.24-.27.43-.14.19-.36.8-.35,1.07,0,.27-.12.9-.2,1.27-.09.37-.27.94-.09.98.19.05.41-.07.59.19.18.26.45.57.45.57,0,0,.38,1.58.4,1.83.02.25.34,1.26.34,1.26,0,0,.13.57.41.83.28.26.2.51.2.51,0,0-.05.11.53.25,0,0,.05.5.19.54.14.03.46.33.46.33,0,0,.21.13.35.16.14.03.42.71.42.93,0,.22.57.9.57.9,0,0,.01.25.27.31.25.06.51.54.51.54l.56,1.14s.46,1.33.46,1.58c0,.24.18.36.18.36,0,0,.08.68.15.92.07.24.18.61.14.77-.04.17-.12.71-.22.93-.1.22-.16.28-.07.81.09.54.28.97.43.86.15-.11.17-.3.36-.26.18.05.93.91,1.14.79.2-.12.26-.06.17-.4-.09-.34-.1-.71,0-.86.11-.15.44-.7.53-1.07.09-.37.06-.55.12-.81.06-.26.01-.56.15-1.14.14-.58.17-1.11.17-1.11,0,0,.07-.94.32-1.34.24-.41.63-1.1.72-1.49.09-.4.35-.95.57-1.29.23-.34.29-.62.34-.8.04-.19.31-.61.78-.89.11-.07.24-.13.38-.19l-2.9-.69-.45,1.89-1.48-.35,1.34-5.64,1.48.35-.45,1.89,3.94.94c.04-.13.07-.21.16-.3.17-.2.36-.16,1.04-1.18.68-1.01.86-.85.98-1.36.12-.51.3-.54.42-.85.12-.31.25-1.05.55-1.49.3-.44,1.06-1.9,1.19-2.44.13-.53.29-.91.44-1.54.15-.63.51-1.32.64-1.86.13-.54.25-1.14.35-1.58.1-.44.34-1.02.44-1.46.11-.44.39-1.21.48-1.38.09-.18.35-.33.36-.58,0-.24-.24-.96-.08-1.32.16-.35.7-.76.76-1.02.06-.25-.12-.32.3-.66.43-.34,1.19-1.41,1.33-1.99.14-.58.09-.79.31-1.08.22-.29.5-.55.63-.91.14-.36.11-.27.23-.78.12-.51.2-.93-.07-1.44-.27-.51-.41-.34-.24-1.04.17-.69-.08-1.91.67-2.39.75-.48,1.83-1.33,1.83-1.33,0,0,.28.07.12-.19Z"/>
    </clipPath>
    <clipPath id="clippath-1">
      <polygon class="cls-1" points="23.1 82.43 6.55 75.06 26.59 30.05 43.14 37.42 23.1 82.43 23.1 82.43"/>
    </clipPath>
  </defs>
  <g>
    <path class="cls-48" d="M56.42,30.47H1.72v54.07h54.7c3.4-8.8,4.8-18.06,4.83-27.03.03-9.75-1.56-19.09-4.83-27.04Z"/>
    <g>
      <path class="cls-100" d="M118.91,84.53h-63.09c3.35-8.69,4.79-17.82,4.83-27.03.05-9.52-1.53-19.09-4.83-27.03h63.09v54.07Z"/>
      <g>
        <path class="cls-14" d="M91.85,40.39c0-.49.4-.89.89-.89h1.79c.49,0,.89.4.89.89v16.24c0,.49-.4.89-.9.89h-1.77c-.49,0-.9-.4-.9-.89v-6.69s-7.25,0-7.25,0v6.69c0,.49-.4.89-.89.89h-1.79c-.49,0-.89-.4-.89-.89v-16.24c0-.49.4-.89.89-.89h1.79c.49,0,.89.4.89.89v6.53h7.25v-6.53Z"/>
        <path class="cls-14" d="M113.92,40.39c.44-.49.51-.89-.09-.89l-2.64.02c-.49,0-.96-.11-1.76.68l-6.67,7.45v-7.25c0-.49-.38-.89-.87-.89h-1.82c-.49,0-.89.4-.89.89v16.23c0,.49.4.89.89.89h1.83c.49,0,.87-.4.87-.89v-3.78s3.07-3.41,3.07-3.41l4.44,7.19c.3.49.73.89,1.22.89h2.56c.49,0,.65-.4.35-.89l-6.16-9.89,5.69-6.36Z"/>
        <path class="cls-14" d="M72.04,39.5c.67,0,1.03.4,1.2.89l5.54,16.24c.17.49-.1.89-.59.89h-1.77c-.49,0-1.05-.4-1.21-.89l-1.18-3.66h-6.1l-1.18,3.66c-.17.49-.72.89-1.21.89h-1.77c-.49,0-.76-.4-.59-.89l5.54-16.24c.17-.49.52-.89,1.2-.89h2.13ZM68.58,49.93h4.07l-2.02-6.29-2.05,6.29Z"/>
      </g>
    </g>
    <g>
      <g class="cls-120">
        <g class="cls-51">
          <g>
            <polygon class="cls-100" points="23.09 82.44 22.96 82.38 43 37.37 43.13 37.42 23.09 82.44 23.09 82.44"/>
            <polygon class="cls-19" points="22.96 82.38 22.83 82.32 42.87 37.31 43 37.37 22.96 82.38 22.96 82.38"/>
            <polygon class="cls-11" points="22.83 82.32 22.7 82.26 42.74 37.25 42.87 37.31 22.83 82.32 22.83 82.32"/>
            <polygon class="cls-11" points="22.7 82.26 22.57 82.21 42.61 37.19 42.74 37.25 22.7 82.26 22.7 82.26"/>
            <polygon class="cls-93" points="22.57 82.21 22.44 82.15 42.48 37.13 42.61 37.19 22.57 82.21 22.57 82.21"/>
            <polygon class="cls-127" points="22.44 82.15 22.3 82.09 42.35 37.07 42.48 37.13 22.44 82.15 22.44 82.15"/>
            <polygon class="cls-127" points="22.3 82.09 22.17 82.03 42.21 37.02 42.35 37.07 22.3 82.09 22.3 82.09"/>
            <polygon class="cls-23" points="22.17 82.03 22.04 81.97 42.08 36.96 42.21 37.02 22.17 82.03 22.17 82.03"/>
            <polygon class="cls-13" points="22.04 81.97 21.91 81.91 41.95 36.9 42.08 36.96 22.04 81.97 22.04 81.97"/>
            <polygon class="cls-79" points="21.91 81.91 21.78 81.85 41.82 36.84 41.95 36.9 21.91 81.91 21.91 81.91"/>
            <polygon class="cls-42" points="21.78 81.85 21.65 81.8 41.69 36.78 41.82 36.84 21.78 81.85 21.78 81.85"/>
            <polygon class="cls-111" points="21.65 81.8 21.52 81.74 41.56 36.72 41.69 36.78 21.65 81.8 21.65 81.8"/>
            <polygon class="cls-122" points="21.52 81.74 21.38 81.68 41.43 36.66 41.56 36.72 21.52 81.74 21.52 81.74"/>
            <polygon class="cls-29" points="21.38 81.68 21.25 81.62 41.3 36.61 41.43 36.66 21.38 81.68 21.38 81.68"/>
            <polygon class="cls-91" points="21.25 81.62 21.12 81.56 41.16 36.55 41.3 36.61 21.25 81.62 21.25 81.62"/>
            <polygon class="cls-20" points="21.12 81.56 20.99 81.5 41.03 36.49 41.16 36.55 21.12 81.56 21.12 81.56"/>
            <polygon class="cls-12" points="20.99 81.5 20.86 81.45 40.9 36.43 41.03 36.49 20.99 81.5 20.99 81.5"/>
            <polygon class="cls-56" points="20.86 81.45 20.73 81.39 40.77 36.37 40.9 36.43 20.86 81.45 20.86 81.45"/>
            <polygon class="cls-10" points="20.73 81.39 20.6 81.33 40.64 36.31 40.77 36.37 20.73 81.39 20.73 81.39"/>
            <polygon class="cls-112" points="20.6 81.33 20.46 81.27 40.51 36.26 40.64 36.31 20.6 81.33 20.6 81.33"/>
            <polygon class="cls-22" points="20.46 81.27 20.33 81.21 40.38 36.2 40.51 36.26 20.46 81.27 20.46 81.27"/>
            <polygon class="cls-114" points="20.33 81.21 20.2 81.15 40.24 36.14 40.38 36.2 20.33 81.21 20.33 81.21"/>
            <polygon class="cls-134" points="20.2 81.15 20.07 81.09 40.11 36.08 40.24 36.14 20.2 81.15 20.2 81.15"/>
            <polygon class="cls-101" points="20.07 81.09 19.94 81.04 39.98 36.02 40.11 36.08 20.07 81.09 20.07 81.09"/>
            <polygon class="cls-106" points="19.94 81.04 19.81 80.98 39.85 35.96 39.98 36.02 19.94 81.04 19.94 81.04"/>
            <polygon class="cls-95" points="19.81 80.98 19.68 80.92 39.72 35.9 39.85 35.96 19.81 80.98 19.81 80.98"/>
            <polygon class="cls-73" points="19.68 80.92 19.55 80.86 39.59 35.85 39.72 35.9 19.68 80.92 19.68 80.92"/>
            <polygon class="cls-119" points="19.55 80.86 19.41 80.8 39.46 35.79 39.59 35.85 19.55 80.86 19.55 80.86"/>
            <polygon class="cls-98" points="19.41 80.8 19.28 80.74 39.32 35.73 39.46 35.79 19.41 80.8 19.41 80.8"/>
            <polygon class="cls-89" points="19.28 80.74 19.15 80.69 39.19 35.67 39.32 35.73 19.28 80.74 19.28 80.74"/>
            <polygon class="cls-17" points="19.15 80.69 19.02 80.63 39.06 35.61 39.19 35.67 19.15 80.69 19.15 80.69"/>
            <polygon class="cls-27" points="19.02 80.63 18.89 80.57 38.93 35.55 39.06 35.61 19.02 80.63 19.02 80.63"/>
            <polygon class="cls-116" points="18.89 80.57 18.76 80.51 38.8 35.49 38.93 35.55 18.89 80.57 18.89 80.57"/>
            <polygon class="cls-92" points="18.76 80.51 18.63 80.45 38.67 35.44 38.8 35.49 18.76 80.51 18.76 80.51"/>
            <polygon class="cls-30" points="18.63 80.45 18.49 80.39 38.54 35.38 38.67 35.44 18.63 80.45 18.63 80.45"/>
            <polygon class="cls-99" points="18.49 80.39 18.36 80.33 38.41 35.32 38.54 35.38 18.49 80.39 18.49 80.39"/>
            <polygon class="cls-126" points="18.36 80.33 18.23 80.28 38.27 35.26 38.41 35.32 18.36 80.33 18.36 80.33"/>
            <polygon class="cls-66" points="18.23 80.28 18.1 80.22 38.14 35.2 38.27 35.26 18.23 80.28 18.23 80.28"/>
            <polygon class="cls-60" points="18.1 80.22 17.97 80.16 38.01 35.14 38.14 35.2 18.1 80.22 18.1 80.22"/>
            <polygon class="cls-24" points="17.97 80.16 17.84 80.1 37.88 35.09 38.01 35.14 17.97 80.16 17.97 80.16"/>
            <polygon class="cls-125" points="17.84 80.1 17.71 80.04 37.75 35.03 37.88 35.09 17.84 80.1 17.84 80.1"/>
            <polygon class="cls-128" points="17.71 80.04 17.58 79.98 37.62 34.97 37.75 35.03 17.71 80.04 17.71 80.04"/>
            <polygon class="cls-82" points="17.58 79.98 17.44 79.92 37.49 34.91 37.62 34.97 17.58 79.98 17.58 79.98"/>
            <polygon class="cls-102" points="17.44 79.92 17.31 79.87 37.35 34.85 37.49 34.91 17.44 79.92 17.44 79.92"/>
            <polygon class="cls-85" points="17.31 79.87 17.18 79.81 37.22 34.79 37.35 34.85 17.31 79.87 17.31 79.87"/>
            <polygon class="cls-135" points="17.18 79.81 17.05 79.75 37.09 34.73 37.22 34.79 17.18 79.81 17.18 79.81"/>
            <polygon class="cls-83" points="17.05 79.75 16.92 79.69 36.96 34.68 37.09 34.73 17.05 79.75 17.05 79.75"/>
            <polygon class="cls-31" points="16.92 79.69 16.79 79.63 36.83 34.62 36.96 34.68 16.92 79.69 16.92 79.69"/>
            <polygon class="cls-41" points="16.79 79.63 16.66 79.57 36.7 34.56 36.83 34.62 16.79 79.63 16.79 79.63"/>
            <polygon class="cls-67" points="16.66 79.57 16.52 79.52 36.57 34.5 36.7 34.56 16.66 79.57 16.66 79.57"/>
            <polygon class="cls-62" points="16.52 79.52 16.39 79.46 36.44 34.44 36.57 34.5 16.52 79.52 16.52 79.52"/>
            <polygon class="cls-35" points="16.39 79.46 16.26 79.4 36.3 34.38 36.44 34.44 16.39 79.46 16.39 79.46"/>
            <polygon class="cls-39" points="16.26 79.4 16.13 79.34 36.17 34.33 36.3 34.38 16.26 79.4 16.26 79.4"/>
            <polygon class="cls-40" points="16.13 79.34 16 79.28 36.04 34.27 36.17 34.33 16.13 79.34 16.13 79.34"/>
            <polygon class="cls-84" points="16 79.28 15.87 79.22 35.91 34.21 36.04 34.27 16 79.28 16 79.28"/>
            <polygon class="cls-46" points="15.87 79.22 15.74 79.16 35.78 34.15 35.91 34.21 15.87 79.22 15.87 79.22"/>
            <polygon class="cls-55" points="15.74 79.16 15.6 79.11 35.65 34.09 35.78 34.15 15.74 79.16 15.74 79.16"/>
            <polygon class="cls-115" points="15.6 79.11 15.47 79.05 35.52 34.03 35.65 34.09 15.6 79.11 15.6 79.11"/>
            <polygon class="cls-58" points="15.47 79.05 15.34 78.99 35.38 33.97 35.52 34.03 15.47 79.05 15.47 79.05"/>
            <polygon class="cls-9" points="15.34 78.99 15.21 78.93 35.25 33.92 35.38 33.97 15.34 78.99 15.34 78.99"/>
            <polygon class="cls-77" points="15.21 78.93 15.08 78.87 35.12 33.86 35.25 33.92 15.21 78.93 15.21 78.93"/>
            <polygon class="cls-43" points="15.08 78.87 14.95 78.81 34.99 33.8 35.12 33.86 15.08 78.87 15.08 78.87"/>
            <polygon class="cls-76" points="14.95 78.81 14.82 78.76 34.86 33.74 34.99 33.8 14.95 78.81 14.95 78.81"/>
            <polygon class="cls-37" points="14.82 78.76 14.69 78.7 34.73 33.68 34.86 33.74 14.82 78.76 14.82 78.76"/>
            <polygon class="cls-4" points="14.69 78.7 14.55 78.64 34.6 33.62 34.73 33.68 14.69 78.7 14.69 78.7"/>
            <polygon class="cls-118" points="14.55 78.64 14.42 78.58 34.46 33.56 34.6 33.62 14.55 78.64 14.55 78.64"/>
            <polygon class="cls-50" points="14.42 78.58 14.29 78.52 34.33 33.51 34.46 33.56 14.42 78.58 14.42 78.58"/>
            <polygon class="cls-74" points="14.29 78.52 14.16 78.46 34.2 33.45 34.33 33.51 14.29 78.52 14.29 78.52"/>
            <polygon class="cls-21" points="14.16 78.46 14.03 78.4 34.07 33.39 34.2 33.45 14.16 78.46 14.16 78.46"/>
            <polygon class="cls-5" points="14.03 78.4 13.9 78.35 33.94 33.33 34.07 33.39 14.03 78.4 14.03 78.4"/>
            <polygon class="cls-124" points="13.9 78.35 13.77 78.29 33.81 33.27 33.94 33.33 13.9 78.35 13.9 78.35"/>
            <polygon class="cls-108" points="13.77 78.29 13.63 78.23 33.68 33.21 33.81 33.27 13.77 78.29 13.77 78.29"/>
            <polygon class="cls-113" points="13.63 78.23 13.5 78.17 33.55 33.16 33.68 33.21 13.63 78.23 13.63 78.23"/>
            <polygon class="cls-109" points="13.5 78.17 13.37 78.11 33.41 33.1 33.55 33.16 13.5 78.17 13.5 78.17"/>
            <polygon class="cls-64" points="13.37 78.11 13.24 78.05 33.28 33.04 33.41 33.1 13.37 78.11 13.37 78.11"/>
            <polygon class="cls-132" points="13.24 78.05 13.11 78 33.15 32.98 33.28 33.04 13.24 78.05 13.24 78.05"/>
            <polygon class="cls-28" points="13.11 78 12.98 77.94 33.02 32.92 33.15 32.98 13.11 78 13.11 78"/>
            <polygon class="cls-103" points="12.98 77.94 12.85 77.88 32.89 32.86 33.02 32.92 12.98 77.94 12.98 77.94"/>
            <polygon class="cls-70" points="12.85 77.88 12.71 77.82 32.76 32.8 32.89 32.86 12.85 77.88 12.85 77.88"/>
            <polygon class="cls-104" points="12.71 77.82 12.58 77.76 32.63 32.75 32.76 32.8 12.71 77.82 12.71 77.82"/>
            <polygon class="cls-8" points="12.58 77.76 12.45 77.7 32.49 32.69 32.63 32.75 12.58 77.76 12.58 77.76"/>
            <polygon class="cls-107" points="12.45 77.7 12.32 77.64 32.36 32.63 32.49 32.69 12.45 77.7 12.45 77.7"/>
            <polygon class="cls-86" points="12.32 77.64 12.19 77.59 32.23 32.57 32.36 32.63 12.32 77.64 12.32 77.64"/>
            <polygon class="cls-25" points="12.19 77.59 12.06 77.53 32.1 32.51 32.23 32.57 12.19 77.59 12.19 77.59"/>
            <polygon class="cls-88" points="12.06 77.53 11.93 77.47 31.97 32.45 32.1 32.51 12.06 77.53 12.06 77.53"/>
            <polygon class="cls-32" points="11.93 77.47 11.8 77.41 31.84 32.4 31.97 32.45 11.93 77.47 11.93 77.47"/>
            <polygon class="cls-97" points="11.8 77.41 11.66 77.35 31.71 32.34 31.84 32.4 11.8 77.41 11.8 77.41"/>
            <polygon class="cls-78" points="11.66 77.35 11.53 77.29 31.57 32.28 31.71 32.34 11.66 77.35 11.66 77.35"/>
            <polygon class="cls-33" points="11.53 77.29 11.4 77.23 31.44 32.22 31.57 32.28 11.53 77.29 11.53 77.29"/>
            <polygon class="cls-54" points="11.4 77.23 11.27 77.18 31.31 32.16 31.44 32.22 11.4 77.23 11.4 77.23"/>
            <polygon class="cls-110" points="11.27 77.18 11.14 77.12 31.18 32.1 31.31 32.16 11.27 77.18 11.27 77.18"/>
            <polygon class="cls-121" points="11.14 77.12 11.01 77.06 31.05 32.04 31.18 32.1 11.14 77.12 11.14 77.12"/>
            <polygon class="cls-47" points="11.01 77.06 10.88 77 30.92 31.99 31.05 32.04 11.01 77.06 11.01 77.06"/>
            <polygon class="cls-133" points="10.88 77 10.74 76.94 30.79 31.93 30.92 31.99 10.88 77 10.88 77"/>
            <polygon class="cls-96" points="10.74 76.94 10.61 76.88 30.66 31.87 30.79 31.93 10.74 76.94 10.74 76.94"/>
            <polygon class="cls-123" points="10.61 76.88 10.48 76.83 30.52 31.81 30.66 31.87 10.61 76.88 10.61 76.88"/>
            <polygon class="cls-80" points="10.48 76.83 10.35 76.77 30.39 31.75 30.52 31.81 10.48 76.83 10.48 76.83"/>
            <polygon class="cls-105" points="10.35 76.77 10.22 76.71 30.26 31.69 30.39 31.75 10.35 76.77 10.35 76.77"/>
            <polygon class="cls-61" points="10.22 76.71 10.09 76.65 30.13 31.63 30.26 31.69 10.22 76.71 10.22 76.71"/>
            <polygon class="cls-59" points="10.09 76.65 9.96 76.59 30 31.58 30.13 31.63 10.09 76.65 10.09 76.65"/>
            <polygon class="cls-69" points="9.96 76.59 9.83 76.53 29.87 31.52 30 31.58 9.96 76.59 9.96 76.59"/>
            <polygon class="cls-38" points="9.83 76.53 9.69 76.47 29.74 31.46 29.87 31.52 9.83 76.53 9.83 76.53"/>
            <polygon class="cls-6" points="9.69 76.47 9.56 76.42 29.6 31.4 29.74 31.46 9.69 76.47 9.69 76.47"/>
            <polygon class="cls-49" points="9.56 76.42 9.43 76.36 29.47 31.34 29.6 31.4 9.56 76.42 9.56 76.42"/>
            <polygon class="cls-130" points="9.43 76.36 9.3 76.3 29.34 31.28 29.47 31.34 9.43 76.36 9.43 76.36"/>
            <polygon class="cls-131" points="9.3 76.3 9.17 76.24 29.21 31.23 29.34 31.28 9.3 76.3 9.3 76.3"/>
            <polygon class="cls-26" points="9.17 76.24 9.04 76.18 29.08 31.17 29.21 31.23 9.17 76.24 9.17 76.24"/>
            <polygon class="cls-34" points="9.04 76.18 8.91 76.12 28.95 31.11 29.08 31.17 9.04 76.18 9.04 76.18"/>
            <polygon class="cls-117" points="8.91 76.12 8.77 76.07 28.82 31.05 28.95 31.11 8.91 76.12 8.91 76.12"/>
            <polygon class="cls-87" points="8.77 76.07 8.64 76.01 28.69 30.99 28.82 31.05 8.77 76.07 8.77 76.07"/>
            <polygon class="cls-63" points="8.64 76.01 8.51 75.95 28.55 30.93 28.69 30.99 8.64 76.01 8.64 76.01"/>
            <polygon class="cls-16" points="8.51 75.95 8.38 75.89 28.42 30.87 28.55 30.93 8.51 75.95 8.51 75.95"/>
            <polygon class="cls-53" points="8.38 75.89 8.25 75.83 28.29 30.82 28.42 30.87 8.38 75.89 8.38 75.89"/>
            <polygon class="cls-52" points="8.25 75.83 8.12 75.77 28.16 30.76 28.29 30.82 8.25 75.83 8.25 75.83"/>
            <polygon class="cls-75" points="8.12 75.77 7.99 75.71 28.03 30.7 28.16 30.76 8.12 75.77 8.12 75.77"/>
            <polygon class="cls-36" points="7.99 75.71 7.85 75.66 27.9 30.64 28.03 30.7 7.99 75.71 7.99 75.71"/>
            <polygon class="cls-68" points="7.85 75.66 7.72 75.6 27.77 30.58 27.9 30.64 7.85 75.66 7.85 75.66"/>
            <polygon class="cls-90" points="7.72 75.6 7.59 75.54 27.63 30.52 27.77 30.58 7.72 75.6 7.72 75.6"/>
            <polygon class="cls-18" points="7.59 75.54 7.46 75.48 27.5 30.47 27.63 30.52 7.59 75.54 7.59 75.54"/>
            <polygon class="cls-45" points="7.46 75.48 7.33 75.42 27.37 30.41 27.5 30.47 7.46 75.48 7.46 75.48"/>
            <polygon class="cls-44" points="7.33 75.42 7.2 75.36 27.24 30.35 27.37 30.41 7.33 75.42 7.33 75.42"/>
            <polygon class="cls-72" points="7.2 75.36 7.07 75.3 27.11 30.29 27.24 30.35 7.2 75.36 7.2 75.36"/>
            <polygon class="cls-94" points="7.07 75.3 6.94 75.25 26.98 30.23 27.11 30.29 7.07 75.3 7.07 75.3"/>
            <polygon class="cls-57" points="6.94 75.25 6.8 75.19 26.85 30.17 26.98 30.23 6.94 75.25 6.94 75.25"/>
            <polygon class="cls-7" points="6.8 75.19 6.67 75.13 26.71 30.11 26.85 30.17 6.8 75.19 6.8 75.19"/>
            <polygon class="cls-129" points="6.67 75.13 6.54 75.07 26.58 30.06 26.71 30.11 6.67 75.13 6.67 75.13"/>
          </g>
        </g>
      </g>
      <path class="cls-3" d="M40.86,38.58c-.16-.26-.21-.15-.42-.39-.21-.25-.51-.42-.74-.69-.23-.28.11-.37,0-.59-.12-.22-.55.04-.55.04,0,0-.3.2-.58-.02-.29-.22-.57-.28-.8-.34-.23-.06-.26-.14-.41-.34-.15-.21-.32-.42-.46-.45-.14-.04-.49-.31-.55-.47-.06-.16-.02-.42-.23-.57-.21-.15-.16-.35-.38-.45,0,0-.22-.13-.33-.15-.12-.03-.45-.06-.48-.14-.03-.08-.66-.33-.77-.06-.11.27-.15.72-.36.8-.21.07-.2.34-.2.34,0,0-.23-.06-.25.11,0,.11.07.28.13.38l2.88.69-.42,1.75-3.83,1.46,3.3.79-.41,1.74-6-1.43.41-1.73,3.85-1.47-3.1-.74c-.23.14-.58.35-.79.34-.27-.02-.49.3-.49.3,0,0-.48.38-.64.51-.16.14-.48.16-.52.32-.04.16-.21,1-.49,1.13-.28.13-.38.45-.38.45,0,0-.33.24-.47.33-.14.09-.09.61-.09.61,0,0,.02.72-.05.82-.07.11-.44.31-.57.35-.13.04-.33.27-.37.43s-.08.44-.25.43c-.17-.01-.78-.01-.86.21-.08.22-.08.64-.26.6-.18-.04-.37.11-.41.27-.04.17-.13.46-.27.53-.14.06-.3.54-.3.54,0,0-.41.49-.57.55-.16.06-.28.25-.3.34-.02.09-.19.3-.28.35-.08.05-.08.23-.08.23,0,0-.12.07-.15.23-.04.16-.16.57-.38.67-.22.1-.41.39-.41.39,0,0-.32.51-.37.72-.05.21.15.8,0,.76-.16-.04-.33-.03-.46.21-.13.24-.39.71-.43.85-.03.14-.57.65-.95.82-.39.18-.48.47-.51.69-.03.21-.41,1.1-.57,1.26-.16.16-.4.54-.41.69,0,.15.21.37,0,.42-.21.05-.48.15-.48.15,0,0-.55.56-.6.79-.06.23-.1.61-.31.57-.21-.05-.34.19-.38.37-.05.18-.24.39-.3.62-.06.23-.06.47-.03.56.03.08.03.4.03.4,0,0,.2.29.06.48-.14.19-.14.58-.14.58,0,0-.05.82.05,1.02.1.19-.07.47-.2.64-.14.16-.35.55-.36.77,0,.22-.13.24-.27.43-.14.19-.36.8-.35,1.07,0,.27-.12.9-.2,1.27-.09.37-.27.94-.09.98.19.05.41-.07.59.19.18.26.45.57.45.57,0,0,.38,1.58.4,1.83.02.25.34,1.26.34,1.26,0,0,.13.57.41.83.28.26.2.51.2.51,0,0-.05.11.53.25,0,0,.05.5.19.54.14.03.46.33.46.33,0,0,.21.13.35.16.14.03.42.71.42.93,0,.22.57.9.57.9,0,0,.01.25.27.31.25.06.51.54.51.54l.56,1.14s.46,1.33.46,1.58c0,.24.18.36.18.36,0,0,.08.68.15.92.07.24.18.61.14.77-.04.17-.12.71-.22.93-.1.22-.16.28-.07.81.09.54.28.97.43.86.15-.11.17-.3.36-.26.18.05.93.91,1.14.79.2-.12.26-.06.17-.4-.09-.34-.1-.71,0-.86.11-.15.44-.7.53-1.07.09-.37.06-.55.12-.81.06-.26.01-.56.15-1.14.14-.58.17-1.11.17-1.11,0,0,.07-.94.32-1.34.24-.41.63-1.1.72-1.49.09-.4.35-.95.57-1.29.23-.34.29-.62.34-.8.04-.19.31-.61.78-.89.11-.07.24-.13.38-.19l-2.9-.69-.45,1.89-1.48-.35,1.34-5.64,1.48.35-.45,1.89,3.94.94c.04-.13.07-.21.16-.3.17-.2.36-.16,1.04-1.18.68-1.01.86-.85.98-1.36.12-.51.3-.54.42-.85.12-.31.25-1.05.55-1.49.3-.44,1.06-1.9,1.19-2.44.13-.53.29-.91.44-1.54.15-.63.51-1.32.64-1.86.13-.54.25-1.14.35-1.58.1-.44.34-1.02.44-1.46.11-.44.39-1.21.48-1.38.09-.18.35-.33.36-.58,0-.24-.24-.96-.08-1.32.16-.35.7-.76.76-1.02.06-.25-.12-.32.3-.66.43-.34,1.19-1.41,1.33-1.99.14-.58.09-.79.31-1.08.22-.29.5-.55.63-.91.14-.36.11-.27.23-.78.12-.51.2-.93-.07-1.44-.27-.51-.41-.34-.24-1.04.17-.69-.08-1.91.67-2.39.75-.48,1.83-1.33,1.83-1.33,0,0,.28.07.12-.19ZM34.38,44.55l-1.06.07-.5,2.1.92.53-.45,1.89-5.46-3.68.48-2.03,6.53-.82-.46,1.94ZM32.55,52.29l-4.03.16,3.53,1.94-.43,1.82-6.32-.09.42-1.76,3.5.16-3.13-1.73.42-1.75,3.58-.14-3.2-1.43.42-1.75,5.69,2.75-.43,1.82ZM30.69,60.11l-6-1.42.44-1.86,6,1.42-.44,1.86ZM30.07,62.71l-1.06.06-.5,2.1.92.53-.45,1.9-5.47-3.68.48-2.03,6.53-.82-.46,1.94ZM27.62,62.86l-2.32.14,2,1.17.31-1.31ZM31.94,44.7l-2.31.14,2,1.17.31-1.31Z"/>
      <path class="cls-3" d="M40.86,38.58c-.16-.26-.21-.15-.42-.39-.21-.25-.51-.42-.74-.69-.23-.28.11-.37,0-.59-.12-.22-.55.04-.55.04,0,0-.3.2-.58-.02-.29-.22-.57-.28-.8-.34-.23-.06-.26-.14-.41-.34-.15-.21-.32-.42-.46-.45-.14-.04-.49-.31-.55-.47-.06-.16-.02-.42-.23-.57-.21-.15-.16-.35-.38-.45,0,0-.22-.13-.33-.15-.12-.03-.45-.06-.48-.14-.03-.08-.66-.33-.77-.06-.11.27-.15.72-.36.8-.21.07-.2.34-.2.34,0,0-.23-.06-.25.11,0,.11.07.28.13.38l2.88.69-.42,1.75-3.83,1.46,3.3.79-.41,1.74-6-1.43.41-1.73,3.85-1.47-3.1-.74c-.23.14-.58.35-.79.34-.27-.02-.49.3-.49.3,0,0-.48.38-.64.51-.16.14-.48.16-.52.32-.04.16-.21,1-.49,1.13-.28.13-.38.45-.38.45,0,0-.33.24-.47.33-.14.09-.09.61-.09.61,0,0,.02.72-.05.82-.07.11-.44.31-.57.35-.13.04-.33.27-.37.43s-.08.44-.25.43c-.17-.01-.78-.01-.86.21-.08.22-.08.64-.26.6-.18-.04-.37.11-.41.27-.04.17-.13.46-.27.53-.14.06-.3.54-.3.54,0,0-.41.49-.57.55-.16.06-.28.25-.3.34-.02.09-.19.3-.28.35-.08.05-.08.23-.08.23,0,0-.12.07-.15.23-.04.16-.16.57-.38.67-.22.1-.41.39-.41.39,0,0-.32.51-.37.72-.05.21.15.8,0,.76-.16-.04-.33-.03-.46.21-.13.24-.39.71-.43.85-.03.14-.57.65-.95.82-.39.18-.48.47-.51.69-.03.21-.41,1.1-.57,1.26-.16.16-.4.54-.41.69,0,.15.21.37,0,.42-.21.05-.48.15-.48.15,0,0-.55.56-.6.79-.06.23-.1.61-.31.57-.21-.05-.34.19-.38.37-.05.18-.24.39-.3.62-.06.23-.06.47-.03.56.03.08.03.4.03.4,0,0,.2.29.06.48-.14.19-.14.58-.14.58,0,0-.05.82.05,1.02.1.19-.07.47-.2.64-.14.16-.35.55-.36.77,0,.22-.13.24-.27.43-.14.19-.36.8-.35,1.07,0,.27-.12.9-.2,1.27-.09.37-.27.94-.09.98.19.05.41-.07.59.19.18.26.45.57.45.57,0,0,.38,1.58.4,1.83.02.25.34,1.26.34,1.26,0,0,.13.57.41.83.28.26.2.51.2.51,0,0-.05.11.53.25,0,0,.05.5.19.54.14.03.46.33.46.33,0,0,.21.13.35.16.14.03.42.71.42.93,0,.22.57.9.57.9,0,0,.01.25.27.31.25.06.51.54.51.54l.56,1.14s.46,1.33.46,1.58c0,.24.18.36.18.36,0,0,.08.68.15.92.07.24.18.61.14.77-.04.17-.12.71-.22.93-.1.22-.16.28-.07.81.09.54.28.97.43.86.15-.11.17-.3.36-.26.18.05.93.91,1.14.79.2-.12.26-.06.17-.4-.09-.34-.1-.71,0-.86.11-.15.44-.7.53-1.07.09-.37.06-.55.12-.81.06-.26.01-.56.15-1.14.14-.58.17-1.11.17-1.11,0,0,.07-.94.32-1.34.24-.41.63-1.1.72-1.49.09-.4.35-.95.57-1.29.23-.34.29-.62.34-.8.04-.19.31-.61.78-.89.11-.07.24-.13.38-.19l-2.9-.69-.45,1.89-1.48-.35,1.34-5.64,1.48.35-.45,1.89,3.94.94c.04-.13.07-.21.16-.3.17-.2.36-.16,1.04-1.18.68-1.01.86-.85.98-1.36.12-.51.3-.54.42-.85.12-.31.25-1.05.55-1.49.3-.44,1.06-1.9,1.19-2.44.13-.53.29-.91.44-1.54.15-.63.51-1.32.64-1.86.13-.54.25-1.14.35-1.58.1-.44.34-1.02.44-1.46.11-.44.39-1.21.48-1.38.09-.18.35-.33.36-.58,0-.24-.24-.96-.08-1.32.16-.35.7-.76.76-1.02.06-.25-.12-.32.3-.66.43-.34,1.19-1.41,1.33-1.99.14-.58.09-.79.31-1.08.22-.29.5-.55.63-.91.14-.36.11-.27.23-.78.12-.51.2-.93-.07-1.44-.27-.51-.41-.34-.24-1.04.17-.69-.08-1.91.67-2.39.75-.48,1.83-1.33,1.83-1.33,0,0,.28.07.12-.19Z"/>
      <polygon class="cls-3" points="34.38 44.55 33.32 44.61 32.83 46.72 33.74 47.25 33.29 49.14 27.83 45.46 28.31 43.43 34.85 42.61 34.38 44.55"/>
      <polygon class="cls-3" points="32.55 52.29 28.52 52.44 32.05 54.39 31.62 56.2 25.3 56.11 25.72 54.35 29.22 54.51 26.09 52.79 26.5 51.04 30.08 50.9 26.88 49.47 27.29 47.72 32.98 50.47 32.55 52.29"/>
      <rect class="cls-1" x="26.96" y="55.38" width="1.91" height="6.17" transform="translate(-35.42 72.11) rotate(-76.64)"/>
      <polygon class="cls-3" points="30.07 62.71 29.01 62.78 28.51 64.88 29.43 65.41 28.98 67.31 23.51 63.62 24 61.59 30.53 60.77 30.07 62.71"/>
      <polygon class="cls-3" points="27.62 62.86 25.3 63 27.31 64.17 27.62 62.86"/>
      <polygon class="cls-3" points="31.94 44.7 29.62 44.84 31.62 46.01 31.94 44.7"/>
    </g>
    <g>
      <path class="cls-81" d="M126.84,78.92l.36-.29c.82-.69,1.47-1.58,1.95-2.68.07-.18.15-.35.24-.51.22.17.38.27.46.31.14.08.3.15.5.23-.15.17-.29.35-.43.53l-.7,1.01v4.5c0,.24.02.7.06,1.39-.25-.03-.41-.04-.48-.04-.1,0-.27.02-.51.04l.03-.41c.02-.42.03-1.86.03-4.32l-.91,1.17c-.1-.21-.19-.38-.26-.51-.09-.11-.2-.26-.33-.43ZM127.03,76c.1-.1.2-.19.29-.28.27-.28.56-.64.86-1.07l.59-.97.36-.73c.32.22.64.38.97.47-.12.14-.24.29-.34.45-.13.15-.35.47-.66.97-.18.21-.34.42-.5.65-.07.06-.38.5-.93,1.3-.19-.31-.41-.57-.65-.8ZM129.4,82.61c.09-.18.19-.36.28-.53.23-.42.38-.8.45-1.15.04-.2.09-.4.14-.59.3.1.6.18.88.25-.07.16-.14.32-.2.5-.01.02-.04.1-.09.23-.05.16-.1.31-.15.46l-.27.71c-.06.14-.11.28-.15.42-.31-.14-.61-.24-.89-.29ZM133.42,79.77h-1.92c-.43.01-.94.04-1.52.06.02-.2.03-.36.03-.46s-.01-.26-.03-.45l.64.04h5.25c.25,0,.55-.02.89-.04-.03.21-.04.36-.04.45.01.11.03.26.03.46-.6-.04-1.1-.06-1.5-.06h-1.59l.66,1.47c-.3.08-.58.18-.84.31l-.1-.38c-.1-.29-.2-.55-.31-.79l-.19-.41c.2-.06.38-.13.54-.22ZM132.76,74.94h-.68c-.46,0-1.07.02-1.82.06.03-.27.04-.42.04-.46,0-.08-.02-.23-.04-.45.56.04,1.02.06,1.37.06h1.27s.02-.09.02-.13c.01-.1.03-.19.03-.28,0-.28.02-.56.06-.84.34.09.68.16,1,.2l-.22.82c-.02.08-.04.15-.04.23h1.83c.45,0,.9-.02,1.36-.06-.03.21-.04.36-.04.45,0,.09.02.25.04.46-.17-.02-.32-.03-.45-.03-.34-.02-1.3-.03-2.9-.03-.04.26-.08.52-.13.77h2.01c.3-.01.66-.04,1.07-.06-.04.35-.05.67-.05.95v.89c.01.29.03.61.05.96-.43-.04-.79-.05-1.07-.05h-3.86c-.22.01-.54.03-.97.05.04-.36.05-.68.05-.96v-.93c0-.22-.03-.53-.05-.91.39.04.71.06.97.06h1.02c.05-.19.09-.45.12-.77ZM131.47,82.24v-1.42c-.03-.17-.04-.38-.06-.65.26.02.43.03.53.03.12,0,.29-.01.52-.03-.03.15-.04.28-.04.4-.02.08-.03.4-.03.97,0,.32.02.52.06.59.06.09.25.14.57.14h.91c.32,0,.53-.05.61-.16.08-.08.14-.22.19-.41.03-.14.05-.33.05-.57.34.24.65.41.93.52-.09.34-.19.62-.3.84-.19.39-.59.58-1.22.59h-1.72c-.42-.05-.69-.13-.82-.26-.12-.12-.18-.32-.18-.58ZM131.49,77.72h.82v-1.35h-.82v1.35ZM133.05,77.72h.94v-1.35h-.94v1.35ZM134.72,77.72h1.01v-1.35h-1.01v1.35ZM135.41,80.89c-.12-.13-.24-.26-.34-.39.24-.14.44-.31.62-.51l1.68,1.83c-.29.2-.55.41-.79.62l-.3-.5c-.09-.17-.38-.53-.87-1.07Z"/>
      <path class="cls-81" d="M140.86,82.54c0,.25.01.5.02.74-.2-.02-.36-.03-.46-.03-.11.01-.27.03-.48.03.04-.67.07-1.02.08-1.04v-7.25c0-.4-.01-.85-.04-1.35.07,0,.15.01.24.02.39.02,2.73.03,7.02.03.3,0,.74-.03,1.3-.05-.03.29-.04.56-.04.83v7.28c0,.21.02.71.06,1.51-.1-.01-.16-.02-.18-.02-.15-.02-.25-.03-.3-.03-.06,0-.22.03-.47.05,0-.24.01-.47.02-.71h-6.75ZM140.86,81.8h6.75v-7.31h-6.75v7.31ZM141.04,79.92c.27,0,.54-.01.82-.01.32-.01.69-.04,1.12-.09.53-.05.81-.08.83-.09.18-.04.36-.08.54-.11v.72c.22-.22.44-.46.66-.74l-.19-.75c-.06-.25-.11-.46-.13-.64l-.08-.73-.05-1.08h-2.15c-.35.01-.77.04-1.25.06,0-.09.01-.15.02-.19,0-.3-.01-.52-.02-.66l.34.03c.3.02,1.31.03,3.04.03-.02-.2-.03-.4-.03-.59-.03-.16-.05-.32-.05-.47l.27.03c.16.03.38.04.67.04-.02.05-.03.1-.03.15-.03.15-.04.43-.04.84h.89c-.11-.22-.28-.46-.52-.74.26-.12.46-.23.61-.32l.68.81-.48.26c.34-.01.65-.04.94-.06-.03.19-.04.32-.04.41,0,.1.02.25.04.44-.39-.04-.8-.06-1.23-.06h-.94l.11,1.41.12.95c.24-.57.41-1.08.52-1.52.03-.14.06-.27.09-.4.29.16.59.28.91.37-.08.11-.14.24-.19.37-.15.3-.28.59-.39.87l-.34.68-.23.45c.12.21.25.41.39.6.12.18.2.27.25.27.09,0,.17-.17.24-.47.02-.06.05-.23.08-.48.19.27.41.47.67.6l-.24.7c-.17.5-.37.74-.58.74-.09,0-.21-.08-.37-.2-.14-.11-.3-.27-.5-.48-.07-.09-.14-.16-.2-.23-.07-.09-.14-.2-.2-.31-.19.22-.34.39-.45.52-.22.22-.47.48-.75.81-.12-.11-.23-.2-.31-.27-.1-.07-.27-.17-.51-.28.17-.11.32-.22.47-.31.28-.24.43-.36.46-.37l-1.12.11-.97.11c-.2.04-.4.07-.59.1-.14.02-.26.05-.38.08-.06-.3-.12-.6-.19-.88ZM141.56,78.47v-.62c0-.24-.03-.54-.05-.91.3.04.58.05.84.05h.87c.27,0,.56-.03.87-.05-.04.39-.05.7-.05.94v.61c.01.23.03.53.05.89-.35-.04-.64-.05-.85-.05h-.87c-.19.01-.47.03-.86.05.04-.37.05-.67.05-.9ZM143.28,77.68h-.97v.94h.97v-.94Z"/>
      <path class="cls-81" d="M151.07,82.91c.06-.12.12-.24.18-.34.14-.32.27-.65.38-.99.11-.38.18-.7.2-.96,0-.14.02-.26.04-.38.33.06.64.1.93.1-.06.17-.14.47-.25.9l-.3,1.12-.22.66c-.26-.07-.58-.11-.97-.11ZM154.87,79.89c-.06-.18-.12-.36-.17-.53-.42.06-.79.1-1.11.12-.36.05-.77.11-1.25.18l-.45.11c-.07-.31-.18-.61-.31-.91.33-.1.61-.31.85-.61.27-.37.57-.81.89-1.32-.33,0-.66.03-.99.05-.06.01-.12.02-.16.02-.16.02-.37.08-.62.17-.11-.35-.23-.64-.36-.85.25-.09.44-.2.57-.36.15-.17.34-.48.58-.94.33-.62.58-1.18.75-1.7.03-.13.06-.26.11-.39.26.16.6.33,1.03.53-.09.11-.17.24-.24.37-.3.46-.46.72-.48.79-.01,0-.02.02-.02.04l-1.04,1.58,1.32-.03c.22-.37.43-.81.62-1.3l.13-.34c.36.24.68.41.97.52-.09.12-.18.25-.25.38l-1.4,2.05-.99,1.35,1.61-.12-.48-.96c.25-.08.48-.17.7-.28l1.1,2.03c-.29.09-.59.21-.91.37ZM153.13,80.73l-.06-.41c.25-.01.49-.03.71-.05l.38,2.05-.95.12c.02-.24.03-.37.03-.39,0-.01-.04-.45-.11-1.31ZM154.42,80.48l-.13-.32c.26-.06.48-.12.66-.19l.75,1.71c-.28.06-.56.17-.84.3-.02-.06-.03-.11-.03-.15l-.41-1.35ZM156.38,79.05l-.1-.3c-.08-.25-.2-.53-.38-.83-.16-.32-.36-.63-.6-.94.27-.29.5-.59.69-.89.24-.37.4-.69.48-.97.03-.1.06-.2.11-.29.24.16.57.32.98.5-.09.09-.17.18-.24.27-.71.88-1.08,1.33-1.1,1.38l.4.65c.2.32.44.67.73,1.05-.44.16-.76.28-.98.38ZM160,74.65h-3.54c-.3,0-.65.02-1.03.06.02-.22.03-.39.03-.5s-.01-.25-.03-.42c.42.04.77.06,1.06.06h3.53c.29,0,.68-.02,1.15-.06-.02.2-.03.35-.03.44.01.12.03.28.03.47-.45-.04-.84-.06-1.16-.06ZM160.45,82.73h-3.95c-.12,0-.46.03-1,.08.01-.14.03-.25.03-.31,0-.16-.01-.37-.03-.62.37.05.71.08,1.02.08h1.38v-1.89h-.93c-.27,0-.65.03-1.14.05.02-.2.03-.35.03-.44,0-.09-.01-.22-.03-.39.34.04.66.05.94.05h3.24c.31,0,.65-.03,1.01-.05-.03.19-.04.32-.04.41,0,.06.02.2.04.42-.42-.04-.75-.05-1.01-.05h-1.21v1.91h1.96s.76-.09.76-.09c-.03.21-.04.37-.04.47,0,.09.02.25.04.46-.59-.05-.95-.08-1.08-.08ZM158.29,78.97l-.16-.38c-.22-.54-.52-1.09-.89-1.66.26-.27.46-.54.61-.8.06-.1.13-.24.2-.42.06-.1.15-.36.28-.76.21.14.52.28.93.44-.09.11-.18.24-.25.37-.27.39-.57.8-.89,1.23l.39.6c.22.33.45.64.69.93-.34.13-.65.28-.9.45ZM160.34,78.97c-.06-.11-.11-.23-.15-.33-.03-.05-.12-.19-.27-.43-.11-.19-.24-.37-.37-.52-.12-.16-.32-.39-.58-.69.42-.44.75-.96.99-1.56l.16-.42c.35.23.67.39.95.47-.18.22-.51.65-.99,1.29-.06.06-.12.13-.16.19.14.17.27.32.39.45.11.15.4.46.86.91-.29.17-.56.38-.83.62Z"/>
      <path class="cls-81" d="M163.93,76.82l-.29-.19c.2-.24.39-.48.56-.74l1.72,1.31c-.09.09-.15.18-.2.25-.09.09-.16.19-.23.32-.1.15-.16.24-.18.26-.09-.1-.17-.19-.26-.28-.27-.29-.65-.6-1.12-.93ZM163.96,82.61c.03-.08.06-.15.11-.22.49-1.04.78-2.18.87-3.41l.03-.44c.19.19.35.33.46.42l.44.31c-.02.06-.04.14-.06.23l-.69,2.87c-.08.37-.14.71-.18,1.02-.17-.17-.31-.3-.44-.41-.08-.07-.26-.2-.54-.38ZM164.41,74.22c-.11-.08-.22-.15-.31-.23.27-.2.51-.41.71-.64l1.5,1.41c-.11.08-.21.16-.3.25-.08.05-.24.2-.47.44-.15-.22-.26-.37-.32-.45l-.8-.79ZM165.58,83.05c.1-.05.2-.1.29-.14.38-.21.68-.47.89-.77.22-.3.38-.65.46-1.03.04-.26.08-.62.11-1.08,0-.28-.02-.7-.06-1.26.37.08.71.12,1.03.13-.04.24-.06.42-.06.56v.11h3.23c-.01-.06-.03-.28-.05-.67.24.03.41.04.53.04.12,0,.29-.02.51-.04-.04.27-.05.48-.05.63v3.01c.01.29.03.6.05.93-.23-.02-.4-.03-.52-.03-.12.01-.29.03-.52.03.04-.36.05-.67.05-.93v-.83h-3.48c-.27.65-.66,1.23-1.17,1.73-.07.05-.13.11-.18.17-.21-.2-.56-.39-1.05-.57ZM165.61,78.58c.06-.06.13-.11.19-.15.42-.32.7-.67.85-1.07.11-.29.18-.7.23-1.24h-.13c-.22,0-.43.02-.66.06.03-.2.04-.34.04-.41,0-.09-.02-.22-.04-.39.3.04.53.05.69.05h1.5c.18,0,.4-.03.66-.05-.11-.19-.25-.37-.41-.54.16-.08.29-.15.39-.22h-1.56c-.3,0-.65.02-1.04.06.02-.22.03-.37.03-.46,0-.11-.01-.27-.03-.48.37.04.72.06,1.04.06h2.14c-.09-.25-.2-.55-.36-.89.35-.04.69-.1,1.02-.18.06.21.11.38.15.51l.2.57h2.2c.29,0,.67-.02,1.12-.06-.03.24-.04.41-.04.5,0,.11.02.26.04.45-.47-.04-.84-.06-1.12-.06h-1.8c.06.06.12.11.16.15l.3.17c-.11.1-.22.2-.31.31-.14.16-.28.3-.41.43-.14.16-.29.33-.47.53v1.92c0,.22.03.46.05.72-.19-.02-.34-.03-.45-.03-.11.01-.26.03-.44.03.04-.27.05-.51.05-.7v-1.49c0-.19-.03-.39-.05-.6.06-.05.11-.09.16-.12.11-.09.29-.26.53-.53.15-.21.28-.42.39-.63l.06-.16h-1.19l.55.83c-.25.12-.48.26-.68.41l-.16-.37c-.04.32-.05.54-.05.67l-.03,1.49c0,.27-.04.45-.09.56-.06.11-.18.19-.36.26-.14.05-.37.1-.67.14-.09-.29-.23-.58-.43-.86.15.03.33.04.53.04.09,0,.16-.04.2-.09.03-.06.04-.19.04-.41v-1.18s-.53,0-.53,0c-.04.37-.08.67-.11.89-.04.19-.09.38-.15.56-.13.36-.37.79-.71,1.28-.05.05-.09.1-.12.15-.22-.14-.36-.23-.41-.25-.1-.06-.27-.12-.52-.18ZM168.15,80.97h3.33v-.71h-3.27c-.03.24-.05.47-.05.71ZM171.15,78.83l-.26.19c-.13-.27-.27-.51-.42-.72.11-.05.18-.11.23-.17.04-.09.06-.17.06-.26v-1.31c0-.19-.03-.42-.05-.68.05-.01.11-.02.17-.02.2-.02.5-.11.89-.26.5-.22.8-.37.88-.43.06-.05.13-.1.2-.14.19.27.41.52.65.75-.28.07-.56.15-.84.24.14.81.53,1.49,1.16,2.03.09.08.19.15.28.23-.35.09-.67.27-.95.53l-.17-.22c-.34-.48-.56-.84-.65-1.09.03.16.08.32.14.5l-.88.53c-.19.13-.34.23-.45.3ZM171.56,77.85c.06-.05.13-.1.19-.14.11-.08.21-.15.3-.23.06-.06.13-.12.2-.17-.11-.31-.21-.66-.3-1.05-.14.04-.27.09-.4.14v1.45Z"/>
      <path class="cls-81" d="M176.28,82.94c.13-.12.26-.24.4-.34.35-.29.64-.71.85-1.26.1-.24.2-.56.31-.98h-.62c-.27,0-.56.03-.86.05.03-.2.04-.34.04-.43,0-.09-.02-.23-.04-.42.39.04.68.05.88.05h.66c.02-.37.03-.82.03-1.33h-.75c-.19.01-.48.03-.85.05.04-.21.05-.34.05-.41,0-.08-.03-.23-.05-.44.39.04.68.05.85.05h1.13c.14-.38.24-.68.3-.89.1-.38.22-.8.36-1.26.29.14.56.27.83.38l-.16.37c-.06.17-.12.33-.18.48-.19.42-.31.72-.38.93h.24c.27,0,.55-.03.85-.05-.03.21-.04.36-.04.44,0,.08.02.22.04.41-.38-.04-.67-.05-.86-.05h-.55c-.01.26-.02.7-.02,1.33.32,0,.72-.02,1.21-.04,0,.09-.01.18-.02.27,0,0,0,.02,0,.04,0,.04,0,.22.02.52-.27-.03-.53-.04-.79-.04h-.47c-.12.5-.24.91-.34,1.24-.2.52-.45.98-.75,1.4-.09.13-.18.26-.27.39-.16-.12-.29-.2-.4-.25-.14-.06-.34-.13-.62-.19ZM179.27,75.32h-1.97c-.34,0-.63.02-.89.04.03-.2.04-.34.04-.41,0-.11-.02-.26-.04-.44.04,0,.07,0,.1.01.31.03.82.04,1.54.04-.02-.08-.04-.15-.04-.23-.05-.24-.13-.53-.25-.87-.06-.11-.11-.22-.15-.31.33-.04.61-.08.85-.13l.51,1.37c-.06.01-.1.02-.12.02-.11.03-.28.08-.52.15h.94c.26,0,.56-.03.9-.05-.03.21-.04.36-.04.45,0,.08.02.22.04.41-.36-.04-.66-.05-.89-.05ZM176.86,75.93c-.06-.1-.12-.2-.17-.29.3-.06.58-.14.84-.25l.61,1.69c-.31.04-.6.11-.86.22l-.06-.29c-.09-.44-.2-.8-.36-1.08ZM178.41,82.59c.14-.14.28-.28.43-.42.42-.44.76-.96,1.04-1.56.28-.68.46-1.4.55-2.15.04-.27.06-.55.06-.85.03-.35.05-.79.05-1.3h-.1c-.18,0-.38.03-.59.05.03-.21.04-.34.04-.41,0-.07-.02-.22-.04-.44.32.03.55.04.7.04v-1.68c-.01-.24-.03-.48-.03-.72.34.09.66.14.96.16-.02.19-.04.39-.04.58l-.06,1.66h.67c.24,0,.53-.03.85-.05-.04.39-.05.72-.05.98l-.09,4.5c-.02.47-.05.79-.08.96-.05.17-.13.29-.25.38-.18.14-.6.31-1.27.51-.04-.31-.09-.52-.14-.64-.06-.12-.18-.29-.38-.51.38.05.65.08.8.08.21,0,.33-.06.38-.17.01-.03.03-.08.03-.14.02-.11.03-.28.03-.52l.12-4.62h-.63c-.01.5-.03.94-.05,1.31l-.08.93c-.06.45-.14.89-.25,1.32-.27.92-.7,1.84-1.31,2.77-.11.16-.22.32-.31.47-.25-.19-.57-.37-.96-.52ZM185.32,75.39h-1.63c-.19.01-.48.03-.89.05.02-.2.03-.34.03-.43,0-.11-.01-.26-.03-.44.42.04.73.05.93.05h.53c-.03-.1-.05-.19-.05-.28-.03-.16-.11-.43-.25-.82-.05-.11-.1-.23-.14-.33.34-.06.64-.14.87-.24l.54,1.41c-.27.06-.54.14-.8.26h1.15c.24,0,.54-.03.9-.05-.03.2-.04.34-.04.43,0,.08.02.23.04.44l-1.07-.05c.23.17.47.3.73.41-.04.05-.06.1-.09.15-.02.01-.28.57-.77,1.67.22,0,.64-.03,1.25-.05-.02.19-.03.33-.03.44.01.11.03.25.03.42-.39-.04-.7-.05-.94-.05h-.56v1.39h.48c.25,0,.54-.02.87-.06-.03.21-.04.37-.04.47,0,.09.02.23.04.42-.35-.04-.65-.06-.89-.06h-.46v1.67c.01.32.03.71.05,1.18-.19-.02-.36-.03-.48-.03-.12.01-.28.03-.48.03.02-.57.04-.85.04-.86v-1.99s-.57,0-.57,0c-.19,0-.42.02-.7.06.03-.21.04-.35.04-.42,0-.08-.02-.24-.04-.47.1.02.18.03.25.03.04.01.08.02.12.02.08,0,.15.01.23.02.04-.01.27-.02.69-.02v-1.38h-.38c-.2.01-.5.03-.88.05.04-.23.05-.37.05-.41,0-.06-.03-.22-.05-.45.37.04.66.06.88.06h.77l.28-.75.46-1.49ZM183.3,76.06l-.19-.41c.3-.04.58-.1.84-.17l.57,1.77c-.2.05-.34.08-.43.08-.12.04-.28.08-.47.12-.02-.11-.04-.23-.04-.33-.05-.37-.14-.71-.27-1.04Z"/>
      <path class="cls-81" d="M193.44,79.73h-2.6c-.24,0-.9.03-2,.08.02-.21.03-.39.03-.54-.01-.07-.03-.19-.03-.34.91.04,1.37.06,1.38.06h3.23s0-.68,0-.68h-1.89c-.5,0-1.07.03-1.69.08.02-.19.03-.33.03-.42,0-.11-.01-.25-.03-.42l.37.03c.34.02,1.41.03,3.22.03v-.54h-2.4c-.24.01-.54.03-.88.05.04-.31.05-.56.05-.75v-.78c0-.23-.03-.47-.05-.73.36.04.65.05.87.05h2.41v-.47h-1.81l-1.02.02-1.49.06c.02-.22.03-.38.03-.46s-.01-.24-.03-.45l.97.04,3.35.03v-.22c0-.25-.03-.53-.05-.83.22.02.38.03.48.03.13,0,.29-.01.48-.03-.03.42-.04.76-.04,1.04h.97l3.37-.08c-.01.07-.02.14-.02.2-.03.12-.02.36.02.71l-1.59-.06-1.13-.02h-1.61v.47h2.27c.24,0,.54-.03.89-.05-.04.29-.05.55-.05.76v.71c0,.24.03.51.05.79-.35-.04-.66-.05-.91-.05h-2.25v.54h2.5c.28,0,.58-.03.91-.05-.04.34-.05.64-.05.87v.57h.22c.32,0,.68-.03,1.09-.05-.02.19-.03.33-.03.42.01.09.03.23.03.42-.65-.04-1.09-.05-1.3-.05v.97c.01.34.03.71.05,1.1-.21-.02-.37-.03-.47-.03-.11.01-.27.03-.48.03.01-.17.03-.34.03-.5h-2.49v1.07c0,.29-.11.49-.32.6-.18.08-.42.15-.73.22-.06.03-.13.05-.2.05-.11.03-.31.06-.59.09-.05-.32-.11-.55-.18-.69-.09-.16-.26-.37-.52-.63l.53.1c.32.05.57.08.77.08.25,0,.38-.12.38-.36v-.52h-2.08c-.57.01-1.17.04-1.78.06.02-.19.03-.34.03-.43,0-.1-.01-.25-.03-.45.62.04,1.22.06,1.79.06h2.07v-.82ZM191.08,76.37h2.36v-.79h-2.36v.79ZM194.31,76.37h2.24v-.79h-2.24v.79ZM194.31,79h2.49v-.69h-2.49v.69ZM194.31,80.55h2.49v-.82h-2.49v.82Z"/>
      <path class="cls-81" d="M200.13,82.72c.11-.14.22-.28.33-.41.28-.36.51-.79.68-1.28.06-.22.13-.5.19-.84,0-.04,0-.06.01-.06.06-.6.09-.99.09-1.18.01-.32.02-1.08.02-2.29l-.08-1.72c.41.04.75.05,1.01.05h2.42v-1.46c0-.19-.03-.43-.05-.72.23.02.4.03.51.03.13,0,.3-.01.52-.03-.04.36-.06.64-.06.84h2.74c.31,0,.85-.02,1.63-.06-.03.24-.04.39-.04.46,0,.07.02.22.04.43l-.53-.03c-.29-.02-.52-.03-.68-.03h-3.16v.58h3.65c.32,0,.67-.03,1.05-.05l-.63,1.72c-.16-.04-.25-.06-.28-.06-.02,0-.27-.03-.74-.08l.45-.79h-3.55v.59l1.02-.04c.48-.03,1.04-.09,1.67-.17v.23c0,.16.03.34.05.54-.23.01-.5.02-.8.02-.07,0-.72.03-1.95.1v.16c0,.12.05.2.14.23.06,0,.13.02.22.04.16.01.66.02,1.47.02.57,0,.91-.04,1.02-.13.05-.04.09-.1.11-.19.03-.14.05-.33.08-.59.21.17.37.28.47.34.1.07.26.14.47.22-.11.32-.18.54-.23.65-.07.12-.16.22-.27.29-.13.07-.26.12-.4.14l-.38.03h-2.53c-.24-.03-.43-.05-.58-.1-.29-.09-.44-.35-.44-.76v-.29c-.05,0-.59.05-1.63.12-.12.03-.27.05-.45.05-.01-.27-.03-.54-.05-.82.18,0,.34,0,.5.01.22,0,.77-.03,1.64-.05v-.62h-2.43c0,2.41-.05,3.95-.14,4.62.07-.09.15-.18.24-.27.53-.57.93-1.24,1.19-1.99.04-.16.09-.3.14-.44.31.14.62.27.95.38-.13.17-.22.31-.27.42-.06.11-.13.22-.22.33h.7c.16,0,.51-.03,1.05-.05-.17.66-.3,1.16-.42,1.49-.13.32-.32.71-.56,1.16.27.2.52.34.74.43.27.1.66.18,1.17.23l1.56.05c.19,0,.45-.02.8-.04l1.24-.13c-.26.46-.41.84-.46,1.15-.44,0-.89-.01-1.35-.03l-1-.04c-.81-.06-1.41-.15-1.8-.26-.39-.11-.73-.27-1.01-.46l-.4-.31c-.22.24-.43.43-.62.58-.23.17-.5.36-.81.55-.13.07-.25.15-.37.24-.11-.14-.23-.26-.33-.34-.1-.09-.29-.21-.58-.37.1-.04.2-.08.31-.11.72-.26,1.33-.62,1.85-1.08-.29-.39-.51-.79-.67-1.17-.09.17-.17.29-.24.38l-.5.6c-.19-.17-.33-.28-.44-.32-.19.62-.43,1.23-.73,1.83-.09.14-.17.28-.24.43l-.43-.22-.64-.23ZM205.01,79.48h-1.23c.04.1.07.19.1.26.11.22.25.47.42.75.04.06.08.11.1.15.04.04.08.09.12.14.24-.52.41-.96.5-1.3ZM205.59,81.39c.1-.08.2-.15.29-.22.34-.27.55-.59.65-.96.07-.29.11-.54.11-.74,0-.05-.01-.1-.02-.14-.03-.24-.05-.48-.05-.72.34.04.56.05.67.05h1.09c.22,0,.47-.03.77-.05-.05.8-.08,1.37-.08,1.71,0,.14.03.24.1.28.04.03.11.04.22.04.19,0,.49-.06.9-.17-.14.32-.22.67-.23,1.03-.22.01-.4.02-.54.02-.36,0-.62-.02-.8-.06-.29-.08-.46-.24-.48-.47-.01-.12-.02-.23-.02-.31l.03-1.27h-.77c0,.75-.2,1.44-.64,2.09-.09.1-.17.2-.24.31-.21-.17-.53-.31-.96-.42Z"/>
    </g>
    <g>
      <g>
        <polygon class="cls-15" points="131.23 61.68 131.23 61 126.94 61 126.94 61.68 128.68 61.68 128.68 68.24 129.49 68.24 129.49 61.68 131.23 61.68"/>
        <path class="cls-15" d="M135.04,68.24v-3.51c0-1.11-.55-1.61-1.68-1.61-.89,0-1.77.39-1.79,1.4h.8c.07-.6.43-.8,1.02-.8,1,0,.94.8.94,1.54v.11c-.17.03-.33.03-.49.03-.92,0-2.38.41-2.38,1.55,0,.85.48,1.4,1.34,1.4.56,0,1.26-.25,1.53-.78h.02v.66h.69ZM134.33,65.97c0,.42-.02.63-.19,1.01-.21.45-.66.78-1.17.78-.42,0-.7-.3-.7-.72,0-.8,1-1.06,1.64-1.06h.42Z"/>
        <path class="cls-15" d="M137.6,61.94v-.94h-.94v.94h.94ZM137.49,68.24v-5h-.71v5h.71Z"/>
        <path class="cls-15" d="M142.99,65.7c0-1.16-.27-2.57-1.71-2.57-.6,0-1.13.39-1.3.97h-.02v-.85h-.71v7.23h.71v-3.05h.02c.19.61.67.93,1.31.93,1.36,0,1.7-1.57,1.7-2.66ZM142.17,65.56c0,.69-.08,2.19-1.06,2.19s-1.15-1.33-1.15-2.04.27-1.99,1.18-1.99,1.04,1.14,1.04,1.84Z"/>
        <path class="cls-15" d="M147.64,65.27v-.24c0-1.1-.58-1.9-1.74-1.9-1.47,0-1.95,1.14-1.95,2.45,0,1.62.7,2.78,2.43,2.78.39,0,.78-.03,1.14-.15v-.59c-.34.08-.64.14-.99.14-1.23,0-1.77-1.1-1.77-2.19v-.29h2.88ZM146.82,64.67h-2c.1-.55.46-.94,1.05-.94.55,0,.96.4.96.94Z"/>
        <path class="cls-15" d="M149.83,61.94v-.94h-.94v.94h.94ZM149.72,68.24v-5h-.71v5h.71Z"/>
      </g>
      <g>
        <path class="cls-15" d="M132.51,52.24c0-1.35-1.06-2.09-2.33-2.09-2.04,0-2.7,1.73-2.7,3.5,0,1.97.54,3.98,2.9,3.98.67,0,1.56-.24,2.09-.69v-3.52h-2.48v.68h1.66v2.45c-.31.28-.92.4-1.33.4-1.73,0-1.94-1.97-1.94-3.3,0-1.21.29-2.81,1.82-2.81.86,0,1.4.56,1.4,1.41h.92Z"/>
        <path class="cls-15" d="M137.36,54.54v-.24c0-1.1-.58-1.9-1.74-1.9-1.47,0-1.95,1.14-1.95,2.45,0,1.62.7,2.78,2.43,2.78.39,0,.78-.03,1.14-.15v-.59c-.34.08-.64.14-.99.14-1.23,0-1.77-1.1-1.77-2.19v-.29h2.88ZM136.54,53.94h-2c.11-.55.46-.94,1.05-.94.55,0,.96.4.96.94Z"/>
        <path class="cls-15" d="M141.06,53.16v-.77c-.8,0-1.35.36-1.67,1.08h-.02v-.97h-.71v5h.71v-2.07c0-1.09.4-2.28,1.69-2.28Z"/>
        <path class="cls-15" d="M148.06,57.51v-3.57c0-.79-.4-1.54-1.28-1.54-.7,0-1.21.5-1.42,1.14h-.02c-.05-.75-.51-1.14-1.26-1.14-.82,0-1.2.56-1.4,1.27h-.02v-1.15h-.71v5h.71v-2.06c0-.69.34-2.34,1.25-2.34.82,0,.73,1.06.73,1.63v2.77h.71v-2.06c0-.69.33-2.34,1.25-2.34.82,0,.73,1.06.73,1.63v2.77h.71Z"/>
        <path class="cls-15" d="M152.93,57.51v-3.51c0-1.11-.55-1.61-1.68-1.61-.89,0-1.77.39-1.79,1.4h.8c.07-.6.43-.8,1.02-.8,1,0,.94.8.94,1.54v.1c-.17.03-.33.03-.49.03-.92,0-2.38.41-2.38,1.55,0,.85.48,1.4,1.34,1.4.56,0,1.26-.25,1.53-.78h.02v.66h.69ZM152.21,55.24c0,.42-.02.63-.19,1.01-.21.45-.66.78-1.17.78-.42,0-.7-.3-.7-.72,0-.8,1-1.06,1.64-1.06h.42Z"/>
        <path class="cls-15" d="M158.17,57.51v-3.57c0-.79-.4-1.54-1.28-1.54s-1.31.5-1.56,1.27h-.02v-1.15h-.71v5h.71v-2.06c0-.79.42-2.34,1.42-2.34.82,0,.73,1.06.73,1.63v2.77h.71Z"/>
        <polygon class="cls-15" points="166 50.95 166 50.27 161.72 50.27 161.72 50.95 163.45 50.95 163.45 57.51 164.27 57.51 164.27 50.95 166 50.95"/>
        <path class="cls-15" d="M169.03,53.16v-.77c-.8,0-1.35.36-1.67,1.08h-.02v-.97h-.71v5h.71v-2.07c0-1.09.4-2.28,1.69-2.28Z"/>
        <path class="cls-15" d="M173.12,57.51v-3.51c0-1.11-.55-1.61-1.68-1.61-.89,0-1.77.39-1.79,1.4h.8c.07-.6.43-.8,1.02-.8,1,0,.94.8.94,1.54v.1c-.17.03-.33.03-.49.03-.92,0-2.38.41-2.38,1.55,0,.85.48,1.4,1.34,1.4.56,0,1.26-.25,1.53-.78h.02v.66h.69ZM172.41,55.24c0,.42-.02.63-.19,1.01-.21.45-.66.78-1.17.78-.42,0-.7-.3-.7-.72,0-.8,1-1.06,1.64-1.06h.42Z"/>
        <path class="cls-15" d="M178.17,57.51v-7.24h-.71v3.06h-.02c-.21-.61-.66-.93-1.31-.93-1.36,0-1.7,1.57-1.7,2.66,0,1.16.27,2.57,1.71,2.57.6,0,1.13-.39,1.3-.97h.02v.85h.71ZM177.45,55.03c0,.69-.28,1.99-1.18,1.99s-1.04-1.14-1.04-1.84.08-2.19,1.06-2.19,1.15,1.33,1.15,2.04Z"/>
        <path class="cls-15" d="M183.19,54.54v-.24c0-1.1-.58-1.9-1.74-1.9-1.47,0-1.95,1.14-1.95,2.45,0,1.62.7,2.78,2.43,2.78.39,0,.78-.03,1.14-.15v-.59c-.34.08-.64.14-.99.14-1.23,0-1.77-1.1-1.77-2.19v-.29h2.88ZM182.37,53.94h-2c.1-.55.46-.94,1.05-.94.55,0,.96.4.96.94Z"/>
        <path class="cls-15" d="M192.05,53.88c0-1.73-.45-3.73-2.57-3.73s-2.58,1.98-2.58,3.73.45,3.75,2.58,3.75,2.57-2.03,2.57-3.75ZM191.16,53.87c0,1.12-.16,3.08-1.68,3.08s-1.69-1.94-1.69-3.08.17-3.03,1.69-3.03,1.68,1.9,1.68,3.03Z"/>
        <path class="cls-15" d="M196.2,50.97v-.64c-.28-.06-.57-.09-.85-.09-1.04,0-1.64.55-1.64,1.58v.69h-.84v.6h.84v4.4h.71v-4.4h1.44v-.6h-1.44c0-.86-.08-1.68,1.05-1.68.25,0,.48.05.72.14Z"/>
        <path class="cls-15" d="M199.51,50.97v-.64c-.28-.06-.57-.09-.85-.09-1.04,0-1.64.55-1.64,1.58v.69h-.84v.6h.84v4.4h.71v-4.4h1.44v-.6h-1.44c0-.86-.08-1.68,1.05-1.68.25,0,.48.05.72.14Z"/>
        <path class="cls-15" d="M200.92,51.21v-.94h-.94v.94h.94ZM200.8,57.51v-5h-.71v5h.71Z"/>
        <path class="cls-15" d="M205.94,54.03c0-1.08-.65-1.64-1.71-1.64-1.53,0-2.04,1.13-2.04,2.5,0,1.67.85,2.73,2.57,2.73.37,0,.69-.03,1.04-.14v-.57c-.26.08-.54.1-.81.1-1.42,0-1.98-1-1.98-2.29,0-.75.27-1.74,1.19-1.74.64,0,.89.46.89,1.04h.85Z"/>
        <path class="cls-15" d="M210.38,54.54v-.24c0-1.1-.58-1.9-1.74-1.9-1.47,0-1.95,1.14-1.95,2.45,0,1.62.7,2.78,2.43,2.78.39,0,.78-.03,1.14-.15v-.59c-.34.08-.64.14-.99.14-1.23,0-1.77-1.1-1.77-2.19v-.29h2.88ZM209.56,53.94h-2c.1-.55.46-.94,1.05-.94.55,0,.96.4.96.94Z"/>
      </g>
      <g>
        <path class="cls-15" d="M132.71,43.14c0-2.37-.66-3.61-3.18-3.61h-1.79v7.25h1.79c.47,0,.95-.02,1.41-.17,1.51-.48,1.77-2.08,1.77-3.48ZM131.35,43.14c0,.79-.03,2.08-.8,2.56-.3.18-.68.22-1.03.22h-.57v-5.51h.57c1.72,0,1.83,1.35,1.83,2.73Z"/>
        <path class="cls-15" d="M137.62,43.97v-.28c0-1.22-.63-2.03-1.9-2.03-1.49,0-2.14.93-2.14,2.35,0,1.65.75,2.88,2.52,2.88.47,0,.94-.05,1.4-.2v-.81c-.29.1-.64.19-.95.19-1.13,0-1.88-1.04-1.88-2.1h2.96ZM136.52,43.27h-1.83c.05-.5.44-.86.94-.86.54,0,.88.33.88.86Z"/>
        <path class="cls-15" d="M142.76,46.78v-5h-1.17v2.16c0,.67-.34,1.86-1.18,1.86-.12,0-.25-.01-.34-.09-.2-.19-.18-.83-.18-1.07v-2.85h-1.17v3.46c0,.86.4,1.65,1.35,1.65.7,0,1.22-.42,1.48-1.05h.02v.93h1.17Z"/>
        <path class="cls-15" d="M147.3,42.59v-.81h-1.48v-1.89l-1.16.7v1.19h-.98v.81h.98v2.93c0,1.04.51,1.37,1.53,1.37.31,0,.64-.03.96-.08v-.82c-.18.04-.36.08-.54.08-.72,0-.79-.54-.79-1.12v-2.36h1.48Z"/>
        <path class="cls-15" d="M150.96,45.39c0-1.43-2.19-1.76-2.19-2.42,0-.34.51-.46.78-.46.4,0,.77.16,1.11.34v-.99c-.38-.11-.74-.19-1.13-.19-.93,0-1.79.43-1.79,1.47,0,1.32,2.15,1.82,2.15,2.4,0,.4-.57.45-.86.45-.44,0-.87-.13-1.27-.3v1.01c.43.14.87.2,1.32.2.98,0,1.89-.39,1.89-1.5Z"/>
        <path class="cls-15" d="M155.81,43.49c0-1.23-.68-1.83-1.9-1.83-1.5,0-2.29.94-2.29,2.39,0,1.74.89,2.83,2.68,2.83.49,0,.99-.08,1.46-.23v-.71c-.27.09-.56.13-.84.13-1.32,0-2.06-.97-2.06-2.22,0-.6.22-1.36.95-1.36.61,0,.76.49.76,1.01h1.24Z"/>
        <path class="cls-15" d="M160.62,46.78v-3.46c0-.86-.4-1.65-1.35-1.65-.71,0-1.22.41-1.48,1.05h-.02v-3.18h-1.16v7.24h1.16v-2.16c0-.67.34-1.86,1.18-1.86.12,0,.25.01.34.09.2.19.18.83.18,1.07v2.85h1.16Z"/>
        <path class="cls-15" d="M165.78,43.97v-.28c0-1.22-.63-2.03-1.9-2.03-1.49,0-2.14.93-2.14,2.35,0,1.65.75,2.88,2.52,2.88.47,0,.94-.05,1.4-.2v-.81c-.29.1-.64.19-.95.19-1.13,0-1.88-1.04-1.88-2.1h2.96ZM164.68,43.27h-1.83c.05-.5.44-.86.94-.86.54,0,.88.33.88.86Z"/>
        <path class="cls-15" d="M169.79,45.39c0-1.43-2.19-1.76-2.19-2.42,0-.34.51-.46.78-.46.4,0,.77.16,1.11.34v-.99c-.38-.11-.75-.19-1.13-.19-.93,0-1.79.43-1.79,1.47,0,1.32,2.15,1.82,2.15,2.4,0,.4-.57.45-.86.45-.44,0-.87-.13-1.27-.3v1.01c.43.14.87.2,1.32.2.98,0,1.89-.39,1.89-1.5Z"/>
        <polygon class="cls-15" points="182.45 39.53 181.33 39.53 180.31 44.98 180.29 44.98 178.42 39.53 177.44 39.53 175.59 44.98 175.57 44.98 174.53 39.53 173.41 39.53 174.8 46.78 176.08 46.78 177.92 41.42 177.94 41.42 179.81 46.78 181.09 46.78 182.45 39.53"/>
        <path class="cls-15" d="M184.62,40.69v-1.15h-1.16v1.15h1.16ZM184.62,46.78v-5h-1.16v5h1.16Z"/>
        <path class="cls-15" d="M188.9,42.88v-1.22c-.84,0-1.23.35-1.62,1.04h-.02v-.92h-1.16v5h1.16v-2.19c0-1.18.44-1.7,1.64-1.7Z"/>
        <path class="cls-15" d="M192.92,42.59v-.81h-1.48v-1.89l-1.16.7v1.19h-.98v.81h.98v2.93c0,1.04.51,1.37,1.53,1.37.31,0,.64-.03.96-.08v-.82c-.18.04-.36.08-.54.08-.72,0-.79-.54-.79-1.12v-2.36h1.48Z"/>
        <path class="cls-15" d="M196.58,45.39c0-1.43-2.19-1.76-2.19-2.42,0-.34.51-.46.78-.46.4,0,.77.16,1.11.34v-.99c-.38-.11-.75-.19-1.13-.19-.93,0-1.79.43-1.79,1.47,0,1.32,2.15,1.82,2.15,2.4,0,.4-.57.45-.86.45-.44,0-.87-.13-1.27-.3v1.01c.43.14.87.2,1.32.2.98,0,1.89-.39,1.89-1.5Z"/>
        <path class="cls-15" d="M201.43,43.49c0-1.23-.68-1.83-1.9-1.83-1.5,0-2.29.94-2.29,2.39,0,1.74.89,2.83,2.68,2.83.49,0,.99-.08,1.46-.23v-.71c-.27.09-.56.13-.84.13-1.32,0-2.06-.97-2.06-2.22,0-.6.22-1.36.95-1.36.61,0,.76.49.76,1.01h1.24Z"/>
        <path class="cls-15" d="M206.25,46.78v-3.46c0-.86-.4-1.65-1.35-1.65-.71,0-1.22.41-1.48,1.05h-.02v-3.18h-1.16v7.24h1.16v-2.16c0-.67.34-1.86,1.18-1.86.12,0,.25.01.34.09.2.19.18.83.18,1.07v2.85h1.16Z"/>
        <path class="cls-15" d="M211.32,46.78v-3.56c0-1.15-.76-1.55-1.82-1.55s-1.9.44-1.9,1.58h1.13c0-.49.26-.77.77-.77.58,0,.7.42.7.91v.49c-1.13.03-2.79.19-2.79,1.69,0,.85.67,1.31,1.47,1.31.55,0,1.05-.18,1.3-.69h.02v.58h1.11ZM210.21,44.57c0,.64-.26,1.5-1.04,1.5-.39,0-.62-.2-.62-.6,0-.76,1.1-.9,1.66-.9Z"/>
        <path class="cls-15" d="M216.35,40.42v-.89c-.38-.08-.79-.11-1.16-.11-1.12,0-2.05.43-2.05,1.68v.68h-.91v.81h.91v4.19h1.17v-4.19h1.47v-.81h-1.47v-.35c0-.77.33-1.2,1.13-1.2.3,0,.63.07.91.18Z"/>
        <path class="cls-15" d="M219.7,42.59v-.81h-1.48v-1.89l-1.16.7v1.19h-.98v.81h.98v2.93c0,1.04.51,1.37,1.53,1.37.31,0,.64-.03.96-.08v-.82c-.18.04-.36.08-.54.08-.72,0-.79-.54-.79-1.12v-2.36h1.48Z"/>
        <path class="cls-15" d="M223.36,45.39c0-1.43-2.19-1.76-2.19-2.42,0-.34.51-.46.78-.46.4,0,.77.16,1.11.34v-.99c-.38-.11-.75-.19-1.13-.19-.93,0-1.79.43-1.79,1.47,0,1.32,2.15,1.82,2.15,2.4,0,.4-.57.45-.86.45-.44,0-.87-.13-1.27-.3v1.01c.43.14.87.2,1.32.2.98,0,1.89-.39,1.89-1.5Z"/>
        <path class="cls-15" d="M228.45,44.28c0-1.15-.28-2.61-1.72-2.61-.55,0-1.01.25-1.29.71h-.02v-2.84h-1.16v5.12c0,1.37.67,2.24,2.09,2.24,1.61,0,2.11-1.2,2.11-2.61ZM227.21,44.28c0,.59-.05,1.79-.87,1.79-.95,0-.92-1.1-.92-1.79,0-.58.13-1.87.92-1.87.87,0,.87,1.26.87,1.87Z"/>
        <path class="cls-15" d="M233.33,40.79v-1.16h-1.29v1.16h1.29ZM231.16,40.79v-1.16h-1.29v1.16h1.29ZM233.61,46.78v-5h-1.16v2.16c0,.67-.34,1.86-1.18,1.86-.12,0-.25-.01-.34-.09-.2-.19-.18-.83-.18-1.07v-2.85h-1.17v3.46c0,.86.4,1.65,1.35,1.65.7,0,1.22-.42,1.48-1.05h.02v.93h1.16Z"/>
        <path class="cls-15" d="M237.83,42.88v-1.22c-.84,0-1.23.35-1.62,1.04h-.02v-.92h-1.16v5h1.16v-2.19c0-1.18.44-1.7,1.64-1.7Z"/>
        <path class="cls-15" d="M242.84,44.28c0-1.45-.62-2.61-2.2-2.61s-2.2,1.16-2.2,2.61.62,2.61,2.2,2.61,2.2-1.17,2.2-2.61ZM241.6,44.28c0,.68-.03,1.79-.97,1.79s-.97-1.11-.97-1.79.03-1.79.97-1.79.97,1.11.97,1.79Z"/>
      </g>
    </g>
  </g>
  <g>
    <path class="cls-81" d="M60.22,48.49h-7.21c-.67-6.25-2.04-12.28-4.03-18.02h7.21c1.99,5.74,3.37,11.77,4.03,18.02Z"/>
    <path class="cls-71" d="M60.18,66.51c-.69,6.25-2.09,12.28-4.11,18.02h-7.21c2.02-5.74,3.42-11.77,4.11-18.02h7.21Z"/>
    <path class="cls-65" d="M60.69,57.34c0,3.1-.17,6.16-.51,9.18h-7.21c.34-3.01.51-6.07.51-9.18s-.16-5.94-.47-8.85h7.21c.31,2.91.47,5.86.47,8.85Z"/>
  </g>
</svg>