<?xml version="1.0" encoding="UTF-8"?>
<svg id="_圖層_2" data-name="圖層 2" xmlns="http://www.w3.org/2000/svg" viewBox="0 0 186.19 115">
  <defs>
    <style>
      .cls-1 {
        fill: #0086cb;
      }

      .cls-2 {
        fill: #575756;
      }

      .cls-3 {
        fill: #f29100;
      }

      .cls-4 {
        fill: #51ad32;
      }
    </style>
  </defs>
  <g>
    <path class="cls-2" d="M1.92,77.47c1.02-.25,2.42-1.66,4.23-4.22l1.18.39c-1.05,1.46-2.13,2.71-3.25,3.75,2.08-.13,4.11-.33,6.09-.58-.48-.59-1-1.21-1.58-1.83l.94-.62c1.41,1.48,2.49,2.79,3.24,3.89l-1.02.69c-.24-.36-.5-.74-.78-1.12-2.64.33-5.57.58-8.82.75l-.23-1.12ZM11.7,84.72h-1.18v-.65H3.87v.68h-1.18v-5.31h9.01v5.28ZM10.52,82.97v-2.41H3.87v2.41h6.65Z"/>
    <path class="cls-2" d="M21.08,78.22l-.79.79c-.52-.6-1.12-1.18-1.81-1.72l.83-.8c.65.51,1.24,1.09,1.77,1.73ZM21.29,80.42c-.45,1.48-.97,2.87-1.52,4.18l-1.13-.5c.63-1.32,1.17-2.67,1.64-4.08l1,.4ZM21.11,75.11l-.79.79c-.46-.58-1-1.12-1.62-1.62l.82-.8c.58.49,1.12,1.03,1.59,1.63ZM21.29,76.86c.28-.15.63-.51,1.05-1.09-.34.06-.65.13-.94.18l-.16-.65c.25-.19.63-.83,1.12-1.92l.75.3c-.31.64-.58,1.12-.79,1.43.16-.03.34-.05.54-.08.15-.24.3-.49.46-.74l.75.3c-.64.98-1.17,1.68-1.59,2.11.28-.05.56-.09.88-.14-.05-.15-.09-.3-.14-.43l.62-.19c.18.43.33.93.48,1.49l-.68.18c-.03-.14-.06-.28-.09-.4-.77.14-1.47.25-2.11.34l-.15-.69ZM22.29,79.1l-.68.16c-.1-.43-.2-.85-.31-1.27l.6-.2c.15.38.28.82.39,1.31ZM23.15,82.29h6.47c0,1-.09,1.67-.26,2-.16.3-.55.46-1.15.48-.89,0-1.76-.01-2.61-.01l-.23-.92c.97.04,1.86.06,2.69.06.21,0,.34-.08.39-.2.04-.15.06-.34.06-.56h-6.62l.48-2.25h5.8v-.59h-6.15v-.84h7.23v2.23h-5.91l-.18.6ZM23.32,78.95l-.65.24c-.1-.43-.23-.84-.35-1.24l.6-.18c.18.43.3.83.4,1.18ZM24.33,78.84l-.64.24c-.1-.4-.24-.79-.39-1.18l.61-.16c.18.4.31.77.41,1.1ZM25.17,73.99c-.07-.21-.18-.41-.28-.59l.93-.16c.1.23.19.48.26.75h1.03v.73h-2.9v-.73h.95ZM26.84,77.09v2h-2.36v-2h2.36ZM26.81,75.07v.65h-2.31v-.65h2.31ZM26.79,76.07v.65h-2.26v-.65h2.26ZM26.06,77.69h-.8v.78h.8v-.78ZM30.06,77.4l-.67.16c-.03-.13-.06-.25-.09-.35-.75.14-1.46.25-2.08.33l-.18-.68c.29-.15.65-.53,1.1-1.1-.35.08-.69.14-1,.19l-.14-.63c.25-.2.63-.84,1.11-1.92l.74.29c-.31.64-.58,1.12-.79,1.44.19-.03.39-.06.6-.1.15-.23.29-.45.44-.68l.73.29c-.65.97-1.18,1.66-1.61,2.07.26-.04.56-.09.89-.14-.05-.15-.11-.3-.16-.44l.6-.19c.19.43.35.9.5,1.46ZM28.11,79.06l-.68.16c-.1-.41-.24-.82-.39-1.19l.6-.2c.18.35.33.77.46,1.23ZM29.13,78.94l-.65.24c-.13-.43-.26-.83-.43-1.23l.62-.18c.2.43.35.82.46,1.17ZM30.13,78.81l-.62.24c-.14-.41-.3-.82-.49-1.22l.62-.15c.2.4.36.78.49,1.13Z"/>
    <path class="cls-2" d="M40.37,77.82v.9c-.65,2.26-2.03,3.98-4.17,5.16l-.72-.94c1.81-.94,3.04-2.28,3.72-4.02h-3.28v-1.1h4.44ZM46.6,77.17c-.85,1.05-1.86,1.87-2.99,2.45.89,1.37,2.02,2.54,3.4,3.51l-.79.95c-1.71-1.34-3.05-3-4.03-4.98v4.56c0,.75-.4,1.13-1.19,1.13h-1.74l-.31-1.13,1.71.05c.25,0,.38-.14.38-.41v-6.82h-3.63v-1.12h4.8v1.48c.25.65.54,1.28.87,1.88,1.03-.58,1.92-1.34,2.65-2.3l.89.74ZM43.56,74.27l-.41.99c-1.41-.5-2.88-.88-4.41-1.15l.51-.98c1.49.28,2.93.65,4.31,1.14Z"/>
    <path class="cls-2" d="M57.14,80.73l-.88.21c-.05-.2-.09-.4-.14-.6-1.12.34-2.17.56-3.15.67l-.3-1.05c.2-.08.38-.18.53-.33.35-.39.77-1.02,1.24-1.87-.48.09-.99.19-1.53.29l-.28-1c.18-.08.34-.21.46-.41.33-.58.73-1.66,1.22-3.24l1.02.39c-.46,1.24-.92,2.28-1.36,3.11.36-.08.72-.15,1.04-.23.28-.55.58-1.17.89-1.82l.97.36c-.85,1.88-1.77,3.45-2.75,4.69.58-.11,1.15-.26,1.73-.45-.1-.3-.2-.58-.3-.85l.84-.28c.28.7.51,1.51.74,2.41ZM54.39,84.4l-.99.24c-.13-1-.29-1.9-.46-2.67l.89-.18c.2.8.39,1.67.56,2.61ZM55.87,83.84l-.95.2c-.16-.89-.35-1.68-.58-2.36l.89-.19c.24.72.45,1.49.64,2.35ZM57.22,83.1l-.88.21c-.15-.73-.35-1.38-.59-1.93l.84-.18c.24.58.45,1.22.63,1.9ZM63.47,78.85v4.34h-1.71c.88.2,1.68.44,2.44.73l-.55.83c-.88-.39-1.78-.69-2.7-.92l.44-.64h-1.9l.55.63c-.73.38-1.64.7-2.75.95l-.44-.93c.98-.18,1.8-.4,2.47-.65h-1.83v-4.34h5.98ZM59.93,73.74v-.51h1.11v.51h2.91v.83h-2.91v.49h2.62v.8h-6.33v-.8h2.6v-.49h-2.89v-.83h2.89ZM63.84,76.24v2.25h-6.77v-2.25h6.77ZM59.02,76.98h-.96v.78h.96v-.78ZM62.41,80.09v-.48h-3.87v.48h3.87ZM62.41,81.26v-.49h-3.87v.49h3.87ZM62.41,81.92h-3.87v.49h3.87v-.49ZM60.93,76.98h-.93v.78h.93v-.78ZM62.85,76.98h-.95v.78h.95v-.78Z"/>
    <path class="cls-2" d="M73.57,80.88c-.8-.24-1.51-.43-2.12-.56v.15c-.03,1.73-.3,3.13-.83,4.21l-.97-.57c.46-.93.7-2.11.72-3.56v-2.61h4.96v5.75c0,.6-.35.9-1.04.9h-1.53l-.28-1.04c.53.03,1.02.05,1.47.05.2,0,.3-.1.3-.3v-1.22c-.74.25-1.61.49-2.59.71l-.24-.97c.98-.19,1.92-.41,2.82-.69v-2.18h-2.8v.46c.7.14,1.54.33,2.51.58l-.39.89ZM75.99,76.98l-.87.6c-.13-.23-.25-.44-.38-.64-1.38.16-2.91.3-4.59.4l-.19-.99c.56-.18,1.34-1.21,2.34-3.08l1.09.38c-.62,1.03-1.24,1.91-1.87,2.65.9-.08,1.78-.16,2.64-.26-.23-.34-.46-.68-.72-1.02l.84-.53c.73.95,1.3,1.78,1.71,2.49ZM76.21,77.89v-4.49h1.09v1.37l3.63-.16v.98l-3.63.18v1.38c0,.15.06.24.21.24h3.45v1.03h-4.28c-.33,0-.48-.18-.48-.51ZM76.6,84.57c-.25,0-.38-.15-.38-.44v-5.11h1.09v1.38l3.62-.18v.99l-3.62.18v1.9c0,.18.06.28.21.28h2.16c.1,0,.19-.09.25-.24.06-.16.1-.67.11-1.49l1.05.34c-.06,1.04-.18,1.7-.34,1.97-.16.28-.43.43-.78.43h-3.39Z"/>
    <path class="cls-2" d="M89.56,78.28l-.82.8c-.58-.67-1.24-1.29-2.01-1.88l.83-.82c.73.56,1.39,1.19,2,1.9ZM89.65,80.42c-.48,1.48-1,2.87-1.58,4.18l-1.15-.51c.65-1.32,1.22-2.67,1.72-4.07l1.02.4ZM89.92,75.4l-.8.8c-.59-.69-1.27-1.34-2.05-1.96l.84-.82c.73.6,1.41,1.26,2.01,1.97ZM93.92,75.68c.13-.34.23-.68.3-1h-2.96v4.13c0,2.37-.4,4.32-1.19,5.84l-.99-.55c.73-1.31,1.09-3.06,1.09-5.28v-5.16h7.88v1.03h-2.71c-.08.34-.19.68-.31,1h2.64v4.72h-2.18v3.23c0,.68-.36,1.02-1.08,1.02h-1.21l-.24-1.04c.38.04.74.06,1.08.06.23,0,.35-.1.35-.29v-2.98h-2.26v-4.72h1.79ZM93.48,81.18c-.33,1.13-.77,2.1-1.34,2.93l-.89-.58c.6-.79,1.03-1.64,1.28-2.55l.95.2ZM96.59,77.58v-.95h-3.41v.95h3.41ZM96.59,78.51h-3.41v.95h3.41v-.95ZM98.36,83.57l-.92.46c-.4-1.03-.85-1.93-1.34-2.71l.89-.41c.51.8.97,1.69,1.37,2.66Z"/>
    <path class="cls-2" d="M104.04,74.97v-1.09h4.51v1.09h-2.03c-.18.93-.4,1.78-.68,2.59h2.48v5.9h-2.36v.95h-1.08v-4.78c-.16.26-.33.51-.49.77l-.63-1c.78-1.23,1.33-2.7,1.63-4.42h-1.36ZM107.25,82.41v-3.79h-1.29v3.79h1.29ZM111.13,78.95c-.13,2.61-.75,4.56-1.88,5.82l-.89-.77c.98-1.09,1.53-2.77,1.63-5.06h-1.19v-1.13h1.22v-2.94h-.95v-1.1h6.01v1.1h-1.03v2.94h1.26v1.13h-1.26v5.74h-1.13v-5.74h-1.78ZM111.16,74.88v2.94h1.76v-2.94h-1.76Z"/>
    <path class="cls-2" d="M126.33,77.94v1.08c0,.13-.01.23-.01.33h3.25v3.87c0,.15.09.23.29.23h1.09c.15-.03.25-.11.29-.26.1-.5.16-1.03.16-1.61l1.11.33c-.1,1.04-.23,1.71-.36,2.01-.19.4-.52.6-.98.62h-2.23c-.34,0-.5-.15-.5-.45v-3.63h-2.22c-.16.9-.48,1.63-.95,2.21-.73.84-1.96,1.53-3.67,2.07l-.65-1.03c1.62-.48,2.72-1.05,3.33-1.76.34-.41.58-.92.72-1.49h-3.05v-1.09h3.2c0-.11.01-.23.01-.33v-1.08h1.19ZM132.08,76.99h-1.18v-1.61h-2.32v1.8c0,.15.1.23.3.23h2.81v1.03h-3.64c-.4,0-.59-.16-.59-.49v-2.56h-1.57c-.18.83-.49,1.49-.95,2-.58.58-1.52,1.03-2.82,1.36l-.44-1.05c1.03-.21,1.8-.54,2.3-.98.38-.34.65-.78.8-1.32h-2.3v1.59h-1.18v-2.67h4.81c-.14-.33-.29-.64-.44-.92l1.22-.2c.16.34.31.72.46,1.12h4.73v2.69Z"/>
    <path class="cls-2" d="M140.25,74.17v-.85h1.14v.85h4.73v-.85h1.14v.85h1.8v1h-1.8v3.87h1.92v1h-2.21c.55.6,1.37,1.08,2.44,1.44l-.53,1.08c-.62-.28-1.15-.58-1.62-.92v.63h-2.92v1.1h4.64v1.02h-10.43v-1.02h4.63v-1.1h-2.94v-.55c-.44.29-.92.55-1.43.8l-.64-1.05c1.1-.38,1.95-.85,2.52-1.43h-2.36v-1h1.91v-3.87h-1.77v-1h1.77ZM143.19,81.27v-.83h1.15v.83h2.45c-.43-.38-.78-.79-1.05-1.23h-3.78c-.31.45-.69.85-1.12,1.23h2.35ZM146.13,75.85v-.68h-4.73v.68h4.73ZM146.13,77.43v-.7h-4.73v.7h4.73ZM146.13,79.04v-.73h-4.73v.73h4.73Z"/>
    <path class="cls-2" d="M155.72,77.68l-.68-.97c2.21-.88,3.98-2.01,5.33-3.38h.95c1.33,1.38,3.06,2.51,5.22,3.39l-.66.95c-.6-.25-1.17-.53-1.7-.83v.82h-2.76v1.66h4.56v1.12h-4.56v2.84h1.83l-.67-.46c.55-.59,1.04-1.28,1.44-2.08l1.02.49c-.41.79-.89,1.48-1.42,2.06h2.55v1.13h-10.71v-1.13h2.57c-.5-.73-1.05-1.37-1.64-1.93l.94-.58c.64.63,1.21,1.31,1.7,2.05l-.6.46h1.81v-2.84h-4.54v-1.12h4.54v-1.66h-2.76v-.83c-.56.3-1.15.59-1.77.84ZM160.85,74.42c-.89.84-1.88,1.57-2.98,2.2h5.91c-1.1-.63-2.08-1.37-2.94-2.2Z"/>
    <path class="cls-2" d="M178.31,73.22c1.61.9,3.43,1.69,5.45,2.37l-.64,1.02c-1.11-.44-2.11-.88-3.01-1.31v.6h-4.39v-.6c-.8.4-1.68.79-2.62,1.17h9.67v3.53h-9.69v-3.51c-.11.04-.21.08-.31.13l-.64-1.02c1.98-.68,3.79-1.47,5.4-2.37h.8ZM182.15,84.78h-1.14v-.35h-6.18v.39h-1.14v-4.28h8.46v4.24ZM177.38,77.4h-3.18v1.67h3.18v-1.67ZM176.79,78.55l-.74.51c-.3-.35-.73-.75-1.26-1.18l.74-.46c.55.43.97.8,1.25,1.13ZM181.01,82.07v-.63h-6.18v.63h6.18ZM181.01,83.53v-.62h-6.18v.62h6.18ZM179.6,75.06c-.62-.31-1.18-.63-1.69-.93-.53.31-1.09.63-1.68.93h3.38ZM181.61,77.4h-3.18v1.67h1.28l-.68-.5c.44-.31.82-.69,1.14-1.13l.8.4c-.34.48-.74.88-1.19,1.23h1.82v-1.67Z"/>
  </g>
  <g>
    <path class="cls-2" d="M81.42,60.17h6.17c.37,0,.67-.3.67-.67v-30.66c0-.37-.3-.67-.67-.67h-6.17c-2.41,0-4.36,1.95-4.36,4.36v23.28c0,2.41,1.95,4.36,4.36,4.36Z"/>
    <path class="cls-2" d="M1.86,30.35h0c0,1.2.97,2.17,2.17,2.17h7.53c2.4,0,4.34,1.95,4.34,4.34v22.64c0,.37.3.67.67.67h9.87c.37,0,.67-.3.67-.67v-30.66c0-.37-.3-.67-.67-.67H4.03c-1.2,0-2.17.97-2.17,2.17Z"/>
    <path class="cls-1" d="M32.11,32.52h6.99c.28,0,.53-.18.63-.44l1.09-3.01c.16-.43-.16-.89-.63-.89h-8.08c-.37,0-.67.3-.67.67v3.01c0,.37.3.67.67.67Z"/>
    <path class="cls-2" d="M149.17,28.18c-2.4,0-4.34,1.95-4.34,4.34h0v23.3h0c0,2.4,1.94,4.34,4.34,4.34h32.9c.28,0,.53-.18.63-.44l1.09-3.01c.16-.43-.16-.89-.63-.89h-22.79c-2.4,0-4.34-1.94-4.34-4.34v-14.61c0-2.4,1.95-4.34,4.34-4.34h21.7c.28,0,.53-.18.63-.44l1.09-3.01c.16-.43-.16-.89-.63-.89h-33.99Z"/>
    <path class="cls-1" d="M176.7,45.91l1.09-3.01c.16-.43-.17-.89-.63-.89h-15.76c-.37,0-.67.3-.67.67v3.01c0,.37.3.67.67.67h14.67c.28,0,.53-.18.63-.44Z"/>
    <path class="cls-2" d="M60.87,28.4h-8.82c-1.27,0-2.41.78-2.88,1.96l-11.56,29.12c-.17.44.15.91.62.91h2.92c.27,0,.52-.17.62-.42l9.78-24.47c.23-.57,1.03-.56,1.25.02l8.13,22.03c.63,1.71,2.26,2.85,4.09,2.85h7.16c.46,0,.79-.46.63-.9l-11.3-30.66c-.1-.26-.35-.44-.63-.44Z"/>
    <path class="cls-3" d="M51.73,50.89l-3.61,8.91c-.12.29.09.6.4.6h7.21c.31,0,.52-.31.4-.6l-3.61-8.91c-.15-.36-.66-.36-.8,0Z"/>
    <g>
      <path class="cls-4" d="M119.21,59.5v-3.01c0-.37-.3-.67-.67-.67h-11.68c-.37,0-.67-.3-.67-.67v-1.34c0-.37-.3-.67-.67-.67h-1.82c-.99,0-1.56.82-2.31,1.48-1.43,1.25-3.55,3.03-3.72,3.88-.18.9.74,1.66,1.66,1.66h19.21c.37,0,.67-.3.67-.67Z"/>
      <path class="cls-4" d="M112.47,28.84v3.01c0,.37.3.67.67.67h11.68c.37,0,.67.3.67.67v1.34c0,.37.3.67.67.67h1.82c.99,0,1.56-.82,2.31-1.48,1.43-1.25,3.55-3.03,3.72-3.88.18-.9-.74-1.66-1.66-1.66h-19.21c-.37,0-.67.3-.67.67Z"/>
      <path class="cls-2" d="M130.49,60.17h-6.21c-.37,0-.67-.3-.67-.67v-7.91c0-1.7-1.29-3.12-2.98-3.28l-15.82-1.52c-4.5-.43-7.94-4.21-7.94-8.73v-5.52c0-2.41,1.95-4.36,4.36-4.36h6.15c.37,0,.67.3.67.67v7.91c0,1.7,1.29,3.12,2.98,3.28l15.87,1.52c4.5.43,7.94,4.21,7.94,8.73v5.52c0,2.41-1.95,4.36-4.36,4.36Z"/>
    </g>
  </g>
</svg>