<?xml version="1.0" encoding="UTF-8"?>
<svg id="_關於論壇" data-name="關於論壇" xmlns="http://www.w3.org/2000/svg" xmlns:xlink="http://www.w3.org/1999/xlink" viewBox="0 0 910.81 47">
  <defs>
    <style>
      .cls-1 {
        fill: url(#_未命名漸層_9-11);
      }

      .cls-2 {
        fill: url(#_未命名漸層_9-12);
      }

      .cls-3 {
        fill: url(#_未命名漸層_9-10);
      }

      .cls-4 {
        fill: url(#_未命名漸層_9-15);
      }

      .cls-5 {
        fill: url(#_未命名漸層_9-13);
      }

      .cls-6 {
        fill: url(#_未命名漸層_9-16);
      }

      .cls-7 {
        fill: url(#_未命名漸層_9-14);
      }

      .cls-8 {
        fill: url(#_未命名漸層_9-9);
      }

      .cls-9 {
        fill: url(#_未命名漸層_9-5);
      }

      .cls-10 {
        fill: url(#_未命名漸層_9-2);
      }

      .cls-11 {
        fill: url(#_未命名漸層_9-8);
      }

      .cls-12 {
        fill: url(#_未命名漸層_9-6);
      }

      .cls-13 {
        fill: url(#_未命名漸層_9-7);
      }

      .cls-14 {
        fill: url(#_未命名漸層_9-4);
      }

      .cls-15 {
        fill: url(#_未命名漸層_9-3);
      }

      .cls-16 {
        fill: url(#_未命名漸層_9);
      }
    </style>
    <linearGradient id="_未命名漸層_9" data-name="未命名漸層 9" x1="0" y1="23.7" x2="47.3" y2="23.7" gradientUnits="userSpaceOnUse">
      <stop offset="0" stop-color="#fff"/>
      <stop offset=".6" stop-color="#f4e2b2"/>
      <stop offset=".76" stop-color="#f2e3b4"/>
    </linearGradient>
    <linearGradient id="_未命名漸層_9-2" data-name="未命名漸層 9" x1="61.17" y1="24.69" x2="107.38" y2="24.69" xlink:href="#_未命名漸層_9"/>
    <linearGradient id="_未命名漸層_9-3" data-name="未命名漸層 9" x1="122.74" y1="23.58" x2="167.16" y2="23.58" xlink:href="#_未命名漸層_9"/>
    <linearGradient id="_未命名漸層_9-4" data-name="未命名漸層 9" x1="186.33" y1="24.2" x2="202.28" y2="24.2" xlink:href="#_未命名漸層_9"/>
    <linearGradient id="_未命名漸層_9-5" data-name="未命名漸層 9" x1="219.57" y1="23.68" x2="265.93" y2="23.68" xlink:href="#_未命名漸層_9"/>
    <linearGradient id="_未命名漸層_9-6" data-name="未命名漸層 9" x1="281.38" y1="23.92" x2="325.96" y2="23.92" xlink:href="#_未命名漸層_9"/>
    <linearGradient id="_未命名漸層_9-7" data-name="未命名漸層 9" x1="344.33" y1="24.2" x2="360.28" y2="24.2" xlink:href="#_未命名漸層_9"/>
    <linearGradient id="_未命名漸層_9-8" data-name="未命名漸層 9" x1="377.17" y1="23.6" x2="422.44" y2="23.6" xlink:href="#_未命名漸層_9"/>
    <linearGradient id="_未命名漸層_9-9" data-name="未命名漸層 9" x1="440.12" y1="24.52" x2="483.11" y2="24.52" xlink:href="#_未命名漸層_9"/>
    <linearGradient id="_未命名漸層_9-10" data-name="未命名漸層 9" x1="499.81" y1="23.6" x2="545.67" y2="23.6" xlink:href="#_未命名漸層_9"/>
    <linearGradient id="_未命名漸層_9-11" data-name="未命名漸層 9" x1="559.84" y1="23.4" x2="607.04" y2="23.4" xlink:href="#_未命名漸層_9"/>
    <linearGradient id="_未命名漸層_9-12" data-name="未命名漸層 9" x1="621.6" y1="23.55" x2="668.01" y2="23.55" xlink:href="#_未命名漸層_9"/>
    <linearGradient id="_未命名漸層_9-13" data-name="未命名漸層 9" x1="683.41" y1="23.35" x2="727.45" y2="23.35" xlink:href="#_未命名漸層_9"/>
    <linearGradient id="_未命名漸層_9-14" data-name="未命名漸層 9" x1="745.08" y1="24.59" x2="787.63" y2="24.59" xlink:href="#_未命名漸層_9"/>
    <linearGradient id="_未命名漸層_9-15" data-name="未命名漸層 9" x1="805.16" y1="25.36" x2="849.29" y2="25.36" xlink:href="#_未命名漸層_9"/>
    <linearGradient id="_未命名漸層_9-16" data-name="未命名漸層 9" x1="865.54" y1="23.53" x2="910.81" y2="23.53" xlink:href="#_未命名漸層_9"/>
  </defs>
  <path class="cls-16" d="M16.2,13.03c-1.09,1.98-2.38,4.01-3.76,5.99v27.84h-5.5v-21.2c-1.29,1.39-2.58,2.58-3.86,3.67-.54-1.29-2.13-4.26-3.07-5.5,4.16-3.12,8.47-7.92,11.05-12.73l5.15,1.93ZM15.35,2.58c-3.12,4.26-7.73,9.06-11.84,12.09-.74-1.19-2.18-3.27-3.07-4.31C3.96,7.88,8.07,3.76,10.15.54l5.2,2.03ZM34.47,40.61c1.19.2,2.48.25,3.76.25,1.39.05,6.83,0,8.72-.05-.74,1.24-1.44,3.81-1.63,5.3h-7.58c-6.74,0-11.99-1.63-15.6-7.73-1.24,3.27-2.92,6.04-5.25,8.27-.84-.99-3.17-2.97-4.46-3.76,4.66-3.96,6.34-10.75,6.79-19.02l5.7.45c-.2,2.48-.45,4.75-.84,6.93,1.19,3.52,2.87,5.79,4.9,7.28v-17.98h1.78c-1.09-.84-2.33-1.73-3.17-2.23,4.8-3.71,7.43-10.1,8.42-17.78l5.5.64c-.45,2.97-1.04,5.75-1.88,8.27,2.82,2.58,6.09,5.75,7.68,7.92l-3.91,3.91c-1.24-1.83-3.52-4.41-5.84-6.74-1.14,2.28-2.53,4.26-4.11,5.99h1.04v6.98h9.56v4.95h-9.56v8.12ZM28.58,16.89c-.89-.99-2.43-2.28-3.96-3.52-1.63,3.37-3.62,6.29-5.99,8.52-.84-1.09-2.92-3.12-4.16-4.01,4.41-3.81,7.08-10.2,8.32-17.34l5.6.84c-.5,2.53-1.09,4.95-1.88,7.23,1.78,1.24,3.67,2.67,4.71,3.67l-2.62,4.61Z"/>
  <path class="cls-10" d="M71.42,16.99c0,8.27-.69,20.7-5.05,28.68-1.14-.94-3.71-2.38-5.2-2.92,4.11-7.38,4.46-18.13,4.46-25.76V2.67h41.31v5.35h-35.51v8.96ZM83.31,34.18c-2.38,3.76-5.79,8.12-8.42,10.75-1.19-.89-3.52-2.43-4.95-3.17,2.82-2.43,5.89-6.14,7.78-9.36l5.6,1.78ZM91.93,30.91v10.05c0,2.67-.5,4.11-2.38,4.9-1.83.84-4.41.84-7.92.84-.2-1.58-.94-3.71-1.63-5.2,2.18.05,4.61.05,5.25.05.74,0,.94-.15.94-.74v-9.91h-11.49V11.59h8.77c.64-1.24,1.19-2.48,1.54-3.52l7.08.84c-.59.89-1.19,1.83-1.78,2.67h13.27v19.32h-11.64ZM80.44,19.17h17.04v-3.17h-17.04v3.17ZM80.44,26.5h17.04v-3.22h-17.04v3.22ZM98.96,32.34c2.62,2.97,6.49,7.23,8.42,9.91l-5.05,2.87c-1.73-2.63-5.4-7.08-8.07-10.35l4.71-2.43Z"/>
  <path class="cls-15" d="M132.29,24.52c-2.08-1.54-6.49-3.91-9.56-5.5l3.22-4.36c2.92,1.34,7.43,3.52,9.66,4.95l-3.32,4.9ZM124.52,42.2c2.23-3.37,5.4-8.82,7.88-13.97l4.51,3.76c-2.13,4.66-4.75,9.61-7.23,14.02l-5.15-3.81ZM135.12,11.19c-2.13-1.63-6.54-4.11-9.61-5.79l3.27-4.26c3.02,1.39,7.53,3.67,9.81,5.25l-3.47,4.8ZM167.16,10.75v35.36h-5.8v-2.58h-17.29v2.92h-5.55V10.75h11.24V.69h5.75v10.05h11.64ZM144.08,16.39v7.78h5.7v-7.78h-5.7ZM144.08,37.89h5.7v-8.07h-5.7v8.07ZM155.52,16.39v7.78h5.84v-7.78h-5.84ZM161.37,37.89v-8.07h-5.84v8.07h5.84Z"/>
  <path class="cls-14" d="M202.28,27.34l-5.3,4.56c-3.02-3.71-7.23-7.97-10.65-10.9l5.15-4.51c3.52,2.87,8.27,7.78,10.8,10.85Z"/>
  <path class="cls-9" d="M253.1,38.53c4.71,1.54,9.66,3.22,12.83,4.51l-5.2,3.71c-3.32-1.54-8.97-3.81-14.41-5.6l2.97-2.63h-13.77l3.62,2.53c-4.06,2.28-10.45,4.61-15.5,5.79-.89-1.09-2.77-2.92-4.06-3.96,4.36-.94,9.61-2.67,13.08-4.36h-6.79v-16.34h34.18v16.34h-6.93ZM265.38,20.65h-45.07v-4.95h45.07v4.95ZM231.4,7.97h-8.52V3.57h8.52V.5h5.75v3.07h11.34V.5h6.04v3.07h8.47v4.41h-8.47v6.09h-23.13v-6.09ZM231.55,28.53h8.12v-2.38h-8.12v2.38ZM231.55,34.57h8.12v-2.38h-8.12v2.38ZM237.15,7.97v2.23h11.34v-2.23h-11.34ZM254.09,26.15h-8.57v2.38h8.57v-2.38ZM254.09,32.19h-8.57v2.38h8.57v-2.38Z"/>
  <path class="cls-12" d="M325.96,39.72v5.45h-44.58v-5.45h11.54c-.45-2.43-1.73-6.29-3.02-9.16l5.55-1.49c1.44,2.82,2.92,6.69,3.37,9.16l-5,1.49h12.93c1.68-3.22,3.37-7.43,4.31-10.6l6.64,1.49c-1.44,3.07-3.17,6.39-4.8,9.11h13.08ZM324.52,8.07h-42V2.67h42v5.4ZM320.31,29.07h-33.58V11.79h33.58v17.29ZM313.77,17.29h-20.9v6.34h20.9v-6.34Z"/>
  <path class="cls-13" d="M360.28,27.34l-5.3,4.56c-3.02-3.71-7.23-7.97-10.65-10.9l5.15-4.51c3.52,2.87,8.27,7.78,10.8,10.85Z"/>
  <path class="cls-11" d="M390.94,2.18c-.3.59-.54,1.19-.89,1.78,2.92,1.73,5.79,3.86,7.48,5.5l-2.33,4.9c-.35-.35-.74-.74-1.14-1.09v4.56h-4.16v3.62h5.79v5h-5.79v11.54l5.79-1.09.3,4.66c-5.84,1.39-12.04,2.67-16.79,3.76l-1.09-5.3c1.98-.3,4.46-.74,7.08-1.19v-12.38h-6.39v-5h6.39v-3.62h-3.67v-2.18c-.79.79-1.54,1.49-2.33,2.13-.3-1.34-1.39-4.61-2.03-6.09,3.57-2.67,7.38-6.98,9.61-11.49l4.16,1.98ZM382.62,28.23c.79,2.72,1.54,6.24,1.78,8.52l-3.71,1.09c-.2-2.33-.84-5.84-1.54-8.57l3.47-1.04ZM393.71,12.93c-1.73-1.58-3.96-3.22-6.19-4.71-1.04,1.68-2.28,3.22-3.52,4.71h9.71ZM390.25,36.16c.64-2.28,1.39-5.84,1.68-8.37l4.06,1.14c-.89,2.97-1.78,6.19-2.48,8.32l-3.27-1.09ZM422.44,40.86c0,2.67-.5,4.16-2.08,5.1-1.58.84-3.91,1.04-7.38,1.04-.15-1.44-.79-3.96-1.54-5.35,2.13.1,4.41.05,5.15.05.69,0,.89-.25.89-.94V7.68h-14.86v39.23h-4.85V2.38h24.67v38.48ZM415.36,16.2h-10.65v-4.8h10.65v4.8ZM408.52,35.22v2.53h-3.47v-17.88h9.96v15.35h-6.49ZM408.52,24.37v6.34h2.87v-6.34h-2.87Z"/>
  <path class="cls-8" d="M483.11,37.74v6.04h-42.99v-6.04h42.99ZM480.44,5.25v5.94h-37.54v-5.94h37.54ZM476.53,21.05v5.99h-30.21v-5.99h30.21Z"/>
  <path class="cls-3" d="M527.15,19.86c3.27,9.66,9.26,17.43,18.52,21.2-1.49,1.24-3.42,3.86-4.36,5.55-8.96-4.21-14.71-11.44-18.57-21-2.67,8.27-8.02,16-18.52,21.05-.94-1.63-2.67-3.76-4.41-5,11.34-5.05,16.05-13.27,17.98-21.79h-17.04v-6.09h18.03c.5-4.66.45-9.16.5-13.22h6.44c-.05,4.06-.1,8.62-.59,13.22h19.47v6.09h-17.43Z"/>
  <path class="cls-1" d="M574.94,29.52c-.5-1.39-1.39-3.32-2.33-5.25v22.44h-5.65v-18.23c-1.29,3.67-2.72,7.03-4.31,9.36-.54-1.68-1.83-4.36-2.82-5.94,3.02-3.86,5.65-10.8,7.08-16.74h-5.94v-5.45h5.99V.45h5.65v9.21h4.95v5.5h-4.95v1.58c1.39,1.83,4.9,7.43,5.75,8.82l-3.42,3.96ZM606.3,26.15c-1.98,3.32-4.51,6.39-7.43,9.21,2.97,2.33,6.29,5.15,8.17,7.13l-4.56,3.81c-1.63-2.03-4.8-5-7.83-7.48-4.61,3.37-9.91,6.14-15.95,7.97-.74-1.39-2.38-3.71-3.47-5,11.64-3.17,20.95-10,24.96-17.83l6.09,2.18ZM602.88,16.39c-4.66,8.02-12.48,15.21-21.84,19.42-.74-1.29-2.23-3.42-3.27-4.51,4.56-1.83,8.77-4.51,12.18-7.58-7.43.54-9.06.84-10.1,1.29-.2-1.39-.99-4.11-1.44-5.35,1.19-.25,2.97-.64,3.91-1.63.79-.89,2.67-3.86,4.21-6.34h-8.22v-5.35h11.59c-.4-1.54-1.04-3.22-1.73-4.66l5.55-1.68c1.09,1.98,2.13,4.46,2.58,6.34h10.05v5.35h-13.62c-1.49,2.38-3.12,5.05-4.66,7.33l6.59-.3c.99-1.39,1.93-2.82,2.62-4.21l5.6,1.88Z"/>
  <path class="cls-2" d="M631.16,18.62c-.69,6.39-1.93,14.96-3.62,20.55l-5.94-2.38c1.73-5.25,3.17-12.68,3.81-19.27l5.75,1.09ZM640.47,14.61v22.98c0,2.33.4,2.72,2.77,2.72h7.08c2.48,0,2.92-1.58,3.27-9.31,1.39,1.04,3.91,2.08,5.55,2.48-.69,9.41-2.28,12.33-8.37,12.33h-8.22c-6.44,0-8.22-1.98-8.22-8.22V14.61h6.14ZM640.03,1.29c4.46,2.82,10.75,7.18,13.72,10.25l-4.36,4.61c-2.67-3.02-8.77-7.73-13.37-10.85l4.01-4.01ZM661.62,15.95c2.77,5.89,5.35,13.32,6.39,18.43l-5.99,2.48c-.74-5.05-3.32-12.88-5.89-18.67l5.5-2.23Z"/>
  <path class="cls-5" d="M727.45,10.2h-14.51l4.66.94c-.99,1.78-2.08,3.52-3.07,5.05h10.65v25.06c0,2.62-.64,3.76-2.48,4.46-1.78.69-4.46.74-8.42.74-.25-1.29-.89-3.12-1.58-4.31,2.38.1,5.2.1,5.94.05.79,0,1.09-.25,1.09-.99v-20.26h-7.68v1.29c0,.94.1,1.39.94,1.39h2.43c.74,0,2.23-.1,2.87-.3.05,1.34.15,2.58.35,3.91-.69.25-2.03.35-3.12.35h-3.96c-4.01,0-4.71-1.88-4.71-5.4v-1.24h-3.52c-.59,3.67-2.13,6.04-6.44,7.63h17.93v12.08h-14.31v2.03h-4.9v-13.67c-.59.15-1.19.3-1.88.45-.35-1.09-1.39-2.72-2.33-3.67v20.8h-5.65v-30.41h10.2c-.54-1.49-1.49-3.42-2.28-4.95l3.27-1.04h-13.52v-4.95h19.51c-.3-1.29-.74-2.58-1.14-3.71l5.7-1.44c.59,1.58,1.29,3.52,1.73,5.15h18.23v4.95ZM691.39,25.46c4.61-.79,6.19-2.13,6.79-4.51h-6.79v4.51ZM709.02,16.2c.99-1.88,2.03-4.16,2.58-5.99h-12.48c.89,1.63,1.93,3.57,2.48,4.85l-3.17,1.14h10.6ZM700.5,32.64v3.96h9.61v-3.96h-9.61Z"/>
  <path class="cls-7" d="M745.08,24.47h18.87v22.04h-5.89v-2.23h-7.38v2.48h-5.6v-22.29ZM750.68,30.11v8.52h7.38v-8.52h-7.38ZM780.94,20.36h-29.02V2.43h29.02v17.93ZM774.95,8.07h-17.33v6.69h17.33v-6.69ZM787.63,24.47v22.09h-5.94v-2.28h-7.88v2.48h-5.65v-22.29h19.46ZM781.68,38.63v-8.52h-7.88v8.52h7.88Z"/>
  <path class="cls-4" d="M829.38,10.05v7.78l.99-1.14c5.35,2.67,13.13,6.93,16.89,10.01l-4.36,5.4c-2.87-2.53-8.52-6.14-13.52-9.01v23.53h-6.34V10.05h-17.88v-5.94h44.13v5.94h-19.91Z"/>
  <path class="cls-6" d="M910.81,31.6h-19.56v8.07c0,3.52-.89,5.05-3.22,5.99-2.38.89-5.94,1.04-11,.99-.35-1.68-1.49-4.26-2.43-5.84,3.67.15,7.83.15,8.92.15,1.14-.05,1.58-.4,1.58-1.39v-7.97h-19.56v-5.75h19.56v-5.79h-16.2v-5.65h16.2v-5.79c-5.15.45-10.35.74-15.21.94-.15-1.54-.89-3.91-1.49-5.2,11.94-.5,25.51-1.83,33.63-3.96l4.26,4.9c-4.41,1.14-9.61,1.98-15.06,2.62v6.49h16.64v5.65h-16.64v5.79h19.56v5.75Z"/>
</svg>